<svg width="1920" height="100" viewBox="0 0 1920 100" fill="none" xmlns="http://www.w3.org/2000/svg">
<rect width="1920" height="100" fill="white"/>
<path d="M72.136 61.592V39.832H68.168L68.296 55.032H68.2L56.84 39.832H53V61.592H57L56.84 46.232H56.968L68.328 61.592H72.136Z" fill="black"/>
<path d="M91.648 53.592C91.648 48.888 88 45.304 83.264 45.304C78.496 45.304 74.88 48.888 74.88 53.592C74.88 58.296 78.496 61.848 83.264 61.848C88 61.848 91.648 58.296 91.648 53.592ZM83.264 58.136C80.896 58.136 78.912 56.184 78.912 53.592C78.912 51 80.896 49.048 83.264 49.048C85.632 49.048 87.584 51 87.584 53.592C87.584 56.184 85.632 58.136 83.264 58.136Z" fill="black"/>
<path d="M111.218 61.592L116.21 45.592H112.114L109.01 56.056H108.978L105.746 45.592H102.898L99.5062 55.96H99.4422L96.4663 45.592H92.2743L97.0103 61.592H100.69L104.114 51.672H104.21L107.506 61.592H111.218Z" fill="black"/>
<path d="M131.42 58.168C129.02 58.168 127.068 56.216 127.068 53.592C127.068 50.936 129.02 49.016 131.42 49.016C133.82 49.016 135.772 50.904 135.772 53.592C135.772 56.28 133.82 58.168 131.42 58.168ZM139.74 61.592V45.592H135.804V47.608C134.62 46.2 132.892 45.304 130.844 45.304C126.492 45.304 123.036 48.888 123.036 53.592C123.036 58.328 126.364 61.848 130.748 61.848C132.86 61.848 134.62 60.952 135.804 59.512V61.592H139.74Z" fill="black"/>
<path d="M151.217 61.592L157.521 45.592H153.489L149.393 56.664H149.265L145.361 45.592H141.201L147.153 61.592H151.217Z" fill="black"/>
<path d="M166.076 58.168C163.677 58.168 161.725 56.216 161.725 53.592C161.725 50.936 163.677 49.016 166.076 49.016C168.477 49.016 170.428 50.904 170.428 53.592C170.428 56.28 168.477 58.168 166.076 58.168ZM174.396 61.592V45.592H170.461V47.608C169.277 46.2 167.549 45.304 165.501 45.304C161.149 45.304 157.692 48.888 157.692 53.592C157.692 58.328 161.021 61.848 165.405 61.848C167.517 61.848 169.277 60.952 170.461 59.512V61.592H174.396Z" fill="black"/>
<path d="M179.761 43.608C181.009 43.608 182.066 42.552 182.066 41.304C182.066 40.088 181.009 39 179.761 39C178.513 39 177.457 40.088 177.457 41.304C177.457 42.552 178.513 43.608 179.761 43.608ZM181.745 61.592V45.592H177.714V61.592H181.745Z" fill="black"/>
<path d="M189.246 61.592V39.832H185.214V61.592H189.246Z" fill="black"/>
<path d="M200.202 58.168C197.802 58.168 195.85 56.216 195.85 53.592C195.85 50.936 197.802 49.016 200.202 49.016C202.602 49.016 204.553 50.904 204.553 53.592C204.553 56.28 202.602 58.168 200.202 58.168ZM208.521 61.592V45.592H204.585V47.608C203.401 46.2 201.674 45.304 199.626 45.304C195.274 45.304 191.818 48.888 191.818 53.592C191.818 58.328 195.145 61.848 199.529 61.848C201.641 61.848 203.401 60.952 204.585 59.512V61.592H208.521Z" fill="black"/>
<path d="M215.71 61.592V59.512C216.862 60.952 218.559 61.848 220.671 61.848C225.023 61.848 228.479 58.264 228.479 53.56C228.479 48.856 225.118 45.304 220.766 45.304C218.718 45.304 217.023 46.2 215.839 47.544V39.832H211.775V61.592H215.71ZM220.094 58.168C217.694 58.168 215.742 56.216 215.742 53.592C215.742 50.936 217.694 49.016 220.094 49.016C222.494 49.016 224.447 51 224.447 53.592C224.447 56.184 222.494 58.168 220.094 58.168Z" fill="black"/>
<path d="M235.027 61.592V39.832H230.995V61.592H235.027Z" fill="black"/>
<path d="M254.047 54.648C254.111 54.328 254.143 53.976 254.143 53.624C254.143 48.824 250.687 45.304 245.919 45.304C241.183 45.304 237.599 48.792 237.599 53.624C237.599 58.456 240.991 61.848 245.823 61.848C249.823 61.848 252.863 59.672 253.823 56.28H249.695C248.927 57.56 247.615 58.36 245.919 58.36C243.775 58.36 242.079 57.016 241.791 54.648H254.047ZM241.823 52.152C242.239 50.04 243.871 48.824 245.855 48.824C247.839 48.824 249.535 50.072 249.823 52.152H241.823Z" fill="black"/>
<path d="M278.273 53.592C278.273 48.888 274.625 45.304 269.889 45.304C265.121 45.304 261.505 48.888 261.505 53.592C261.505 58.296 265.121 61.848 269.889 61.848C274.625 61.848 278.273 58.296 278.273 53.592ZM269.889 58.136C267.521 58.136 265.537 56.184 265.537 53.592C265.537 51 267.521 49.048 269.889 49.048C272.257 49.048 274.209 51 274.209 53.592C274.209 56.184 272.257 58.136 269.889 58.136Z" fill="black"/>
<path d="M294.536 61.592V50.904C294.536 47.48 292.52 45.304 289.096 45.304C286.696 45.304 285.224 46.648 284.648 47.608V45.592H280.712V61.592H284.776V51.608C284.776 49.976 286.056 48.92 287.72 48.92C289.32 48.92 290.504 49.88 290.504 51.64V61.592H294.536Z" fill="black"/>
<path d="M301.965 61.592V39.832H297.933V61.592H301.965Z" fill="black"/>
<path d="M307.48 43.608C308.728 43.608 309.784 42.552 309.784 41.304C309.784 40.088 308.728 39 307.48 39C306.232 39 305.176 40.088 305.176 41.304C305.176 42.552 306.232 43.608 307.48 43.608ZM309.464 61.592V45.592H305.432V61.592H309.464Z" fill="black"/>
<path d="M326.661 61.592V50.904C326.661 47.48 324.645 45.304 321.221 45.304C318.821 45.304 317.349 46.648 316.773 47.608V45.592H312.837V61.592H316.901V51.608C316.901 49.976 318.181 48.92 319.845 48.92C321.445 48.92 322.629 49.88 322.629 51.64V61.592H326.661Z" fill="black"/>
<path d="M345.578 54.648C345.642 54.328 345.674 53.976 345.674 53.624C345.674 48.824 342.218 45.304 337.45 45.304C332.714 45.304 329.13 48.792 329.13 53.624C329.13 58.456 332.522 61.848 337.354 61.848C341.354 61.848 344.394 59.672 345.354 56.28H341.226C340.458 57.56 339.146 58.36 337.45 58.36C335.306 58.36 333.61 57.016 333.322 54.648H345.578ZM333.354 52.152C333.77 50.04 335.402 48.824 337.386 48.824C339.37 48.824 341.066 50.072 341.354 52.152H333.354Z" fill="black"/>
<path d="M361.58 48.568C360.492 47.384 359.756 46.456 359.756 45.272C359.756 44.088 360.812 43.032 362.412 43.032C363.916 43.032 365.132 43.96 365.132 45.272C365.132 46.712 363.564 47.8 361.58 48.568ZM364.236 56.952C363.18 57.752 361.932 58.328 360.524 58.328C358.348 58.328 356.844 57.176 356.844 55.544C356.844 53.912 358.22 52.888 359.884 52.184L364.236 56.952ZM373.196 61.592L369.132 57.048C370.508 55.128 371.852 52.92 373.068 50.296H369.164C368.364 51.768 367.564 53.08 366.764 54.328L363.5 50.68C366.316 49.496 368.78 48.12 368.78 45.144C368.78 42.232 366.476 39.576 362.444 39.576C358.316 39.576 355.852 42.328 355.852 45.368C355.852 47.096 356.652 48.44 357.932 49.976C355.116 51.16 352.812 52.792 352.812 55.928C352.812 59.832 356.044 61.848 360.108 61.848C362.22 61.848 364.556 60.984 366.54 59.544L368.364 61.496C368.94 61.592 369.548 61.592 370.156 61.592H373.196Z" fill="black"/>
<path d="M382.887 43.608C384.135 43.608 385.19 42.552 385.19 41.304C385.19 40.088 384.135 39 382.887 39C381.639 39 380.582 40.088 380.582 41.304C380.582 42.552 381.639 43.608 382.887 43.608ZM384.871 61.592V45.592H380.839V61.592H384.871Z" fill="black"/>
<path d="M402.067 61.592V50.904C402.067 47.48 400.051 45.304 396.627 45.304C394.227 45.304 392.755 46.648 392.179 47.608V45.592H388.243V61.592H392.307V51.608C392.307 49.976 393.587 48.92 395.251 48.92C396.851 48.92 398.035 49.88 398.035 51.64V61.592H402.067Z" fill="black"/>
<path d="M413.208 54.776V51.736H404.792V54.776H413.208Z" fill="black"/>
<path d="M429.66 50.424C429.276 46.84 426.076 45.304 422.46 45.304C417.82 45.304 415.1 47.416 415.1 50.488C415.1 56.92 425.98 53.688 425.98 56.92C425.98 58.072 424.668 58.744 422.588 58.744C420.604 58.744 419.356 58.2 418.812 56.6H414.876C415.324 60.472 418.588 61.848 422.396 61.848C426.684 61.848 429.98 59.896 429.98 56.504C429.98 50.008 419.164 53.144 419.164 50.072C419.164 48.952 420.476 48.44 422.204 48.44C424.188 48.44 425.436 49.08 425.852 50.424H429.66Z" fill="black"/>
<path d="M439.729 61.592V58.04H438.929C437.553 58.04 437.169 57.528 437.169 56.184V49.08H439.697V45.592H437.169V41.688H433.137V45.592H431.057V49.08H433.137V56.92C433.137 60.184 434.385 61.592 437.649 61.592H439.729Z" fill="black"/>
<path d="M457.929 53.592C457.929 48.888 454.281 45.304 449.545 45.304C444.777 45.304 441.161 48.888 441.161 53.592C441.161 58.296 444.777 61.848 449.545 61.848C454.281 61.848 457.929 58.296 457.929 53.592ZM449.545 58.136C447.177 58.136 445.193 56.184 445.193 53.592C445.193 51 447.177 49.048 449.545 49.048C451.913 49.048 453.865 51 453.865 53.592C453.865 56.184 451.913 58.136 449.545 58.136Z" fill="black"/>
<path d="M464.432 61.592V52.12C464.432 50.488 465.232 49.208 466.768 49.208C467.312 49.208 467.76 49.368 468.144 49.592L470.128 46.072C469.584 45.624 468.784 45.304 467.76 45.304C466.096 45.304 464.944 46.168 464.304 47.16V45.592H460.368V61.592H464.432Z" fill="black"/>
<path d="M486.422 54.648C486.486 54.328 486.518 53.976 486.518 53.624C486.518 48.824 483.062 45.304 478.294 45.304C473.558 45.304 469.974 48.792 469.974 53.624C469.974 58.456 473.366 61.848 478.198 61.848C482.198 61.848 485.238 59.672 486.198 56.28H482.07C481.302 57.56 479.99 58.36 478.294 58.36C476.15 58.36 474.454 57.016 474.166 54.648H486.422ZM474.198 52.152C474.614 50.04 476.246 48.824 478.23 48.824C480.214 48.824 481.91 50.072 482.198 52.152H474.198Z" fill="black"/>
<path d="M492.65 59.448C492.65 58.104 491.561 57.016 490.217 57.016C488.905 57.016 487.849 58.104 487.849 59.448C487.849 60.76 488.905 61.816 490.217 61.816C491.561 61.816 492.65 60.76 492.65 59.448Z" fill="black"/>
<path d="M660.596 79H548C531.983 79 519 66.0174 519 50C519 33.9826 531.983 21 548 21H660.596C676.614 21 689.596 33.9826 689.596 50C689.607 66.0069 676.614 79 660.596 79Z" fill="#B2FCE4"/>
<path d="M641.068 43.7725L632.522 61.4022H628.981L632.174 54.8161L627.158 43.7725H630.794L634.019 51.17L637.538 43.7725H641.068Z" fill="black"/>
<path d="M608.549 50.0323C608.549 48.009 607.021 46.4494 605.145 46.4494C603.27 46.4494 601.742 47.9564 601.742 50.0323C601.742 52.0872 603.27 53.6151 605.145 53.6151C607.021 53.6151 608.549 52.0556 608.549 50.0323ZM598.633 61.4026V43.7728H601.71V45.3957C602.637 44.247 604.018 43.541 605.662 43.541C609.044 43.541 611.7 46.323 611.7 50.0007C611.7 53.6784 608.992 56.4814 605.588 56.4814C604.007 56.4814 602.711 55.8597 601.805 54.8059V61.392H598.633V61.4026Z" fill="black"/>
<path d="M622.807 50.0323C622.807 47.9247 621.279 46.4494 619.403 46.4494C617.527 46.4494 615.999 47.9563 615.999 50.0323C615.999 52.0871 617.527 53.6151 619.403 53.6151C621.279 53.6151 622.807 52.1293 622.807 50.0323ZM622.828 56.2917V54.6689C621.9 55.7964 620.52 56.4919 618.876 56.4919C615.441 56.4919 612.838 53.7416 612.838 50.0323C612.838 46.3546 615.546 43.5515 618.95 43.5515C620.552 43.5515 621.9 44.2575 622.828 45.3535V43.7728H625.905V56.2917H622.828Z" fill="black"/>
<path d="M593.079 44.9952C593.079 44.9952 593.859 43.541 595.787 43.541C596.609 43.541 597.136 43.8255 597.136 43.8255V47.0185C597.136 47.0185 595.977 46.3019 594.913 46.4494C593.848 46.597 593.174 47.5665 593.174 48.8731V56.2917H589.991V43.7728H593.068V44.9952H593.079Z" fill="black"/>
<path d="M664.968 43.0668L661.322 40.9803L657.623 38.8622C655.179 37.4607 652.123 39.2205 652.123 42.0446V42.5188C652.123 42.7822 652.26 43.0246 652.491 43.1511L654.209 44.1311C654.683 44.4051 655.273 44.0573 655.273 43.5093V42.3818C655.273 41.8233 655.874 41.4755 656.359 41.7495L659.731 43.6885L663.093 45.6169C663.577 45.8909 663.577 46.5969 663.093 46.8709L659.731 48.7993L656.359 50.7383C655.874 51.0122 655.273 50.6645 655.273 50.106V49.5475C655.273 46.7234 652.218 44.953 649.773 46.3651L646.074 48.4832L642.428 50.5697C639.973 51.9817 639.973 55.533 642.428 56.945L646.074 59.0315L649.773 61.1496C652.218 62.5511 655.273 60.7913 655.273 57.9672V57.493C655.273 57.2295 655.136 56.9872 654.905 56.8607L653.187 55.8807C652.713 55.6067 652.123 55.9545 652.123 56.5024V57.63C652.123 58.1885 651.522 58.5362 651.037 58.2622L647.665 56.3233L644.304 54.3949C643.819 54.1209 643.819 53.4149 644.304 53.1409L647.665 51.2125L651.037 49.2735C651.522 48.9995 652.123 49.3473 652.123 49.9058V50.4643C652.123 53.2884 655.179 55.0588 657.623 53.6467L661.322 51.5286L664.968 49.4421C667.424 48.0195 667.424 44.4788 664.968 43.0668Z" fill="black"/>
<path d="M554.617 51.6218C553.943 54.4986 551.466 56.4797 548.263 56.4797C544.564 56.4797 541.782 53.6977 541.782 50.02C541.782 46.3424 544.606 43.5393 548.315 43.5393C551.445 43.5393 553.89 45.5204 554.596 48.3445H551.34C550.76 47.217 549.612 46.4688 548.336 46.4688C546.482 46.4688 544.933 47.9968 544.933 50.02C544.933 52.0433 546.482 53.5713 548.336 53.5713C549.664 53.5713 550.813 52.8231 551.361 51.6218H554.617Z" fill="black"/>
<path d="M556.08 56.2802V38.6189H559.231V56.2802H556.08Z" fill="black"/>
<path d="M563.974 50.8527C564.195 52.7074 565.523 53.7506 567.198 53.7506C568.526 53.7506 569.548 53.1289 570.149 52.1278H573.374C572.625 54.7833 570.244 56.4799 567.114 56.4799C563.331 56.4799 560.686 53.8244 560.686 50.0519C560.686 46.2793 563.489 43.55 567.188 43.55C570.918 43.55 573.616 46.3004 573.616 50.0519C573.616 50.3258 573.595 50.5998 573.542 50.8527H563.974V50.8527ZM570.254 48.8927C570.033 47.2699 568.705 46.2899 567.156 46.2899C565.607 46.2899 564.332 47.2383 564.005 48.8927H570.254Z" fill="black"/>
<path d="M584.87 56.2795V54.6567C583.943 55.7842 582.573 56.4797 580.918 56.4797C577.494 56.4797 574.891 53.7293 574.891 50.02C574.891 46.3424 577.589 43.5393 580.992 43.5393C582.594 43.5393 583.943 44.2348 584.87 45.3413V43.7606H587.947V56.269H584.87V56.2795ZM584.839 50.02C584.839 47.923 583.311 46.4372 581.435 46.4372C579.559 46.4372 578.031 47.9336 578.031 50.02C578.031 52.0749 579.559 53.6029 581.435 53.6029C583.311 53.6029 584.839 52.1276 584.839 50.02Z" fill="black"/>
<path d="M1489.44 22.345C1488.07 24.636 1485.61 26.144 1482.71 26.144C1478.24 26.144 1474.85 22.606 1474.85 18.14C1474.85 13.674 1478.24 10.136 1482.71 10.136C1485.64 10.136 1487.99 11.644 1489.32 13.906H1491.99C1490.37 10.397 1486.83 8.048 1482.71 8.048C1477.05 8.048 1472.5 12.427 1472.5 18.227C1472.5 23.911 1476.88 28.232 1482.71 28.232C1487.03 28.232 1490.54 25.883 1492.08 22.345H1489.44ZM1496.95 28V8.28H1494.75V28H1496.95ZM1514.63 21.504C1514.66 21.301 1514.66 21.069 1514.66 20.866C1514.66 16.487 1511.53 13.5 1507.38 13.5C1503.24 13.5 1500.05 16.487 1500.05 20.866C1500.05 25.245 1503.06 28.232 1507.36 28.232C1510.66 28.232 1513.27 26.376 1514.37 23.679H1511.91C1510.98 25.187 1509.36 26.173 1507.36 26.173C1504.57 26.173 1502.6 24.346 1502.34 21.504H1514.63ZM1502.4 19.706C1502.86 17.183 1504.8 15.53 1507.36 15.53C1509.85 15.53 1511.88 17.183 1512.26 19.706H1502.4ZM1524.18 26.173C1521.31 26.173 1519.02 23.911 1519.02 20.866C1519.02 17.821 1521.31 15.53 1524.18 15.53C1527.05 15.53 1529.37 17.734 1529.37 20.866C1529.37 23.998 1527.05 26.173 1524.18 26.173ZM1531.55 28V13.732H1529.4V16.081C1528.18 14.544 1526.33 13.5 1524.09 13.5C1519.95 13.5 1516.76 16.719 1516.76 20.866C1516.76 25.1 1519.83 28.232 1524.06 28.232C1526.3 28.232 1528.18 27.188 1529.4 25.651V28H1531.55ZM1537.65 28V19.126C1537.65 17.386 1538.46 15.704 1540.4 15.704C1541.01 15.704 1541.47 15.907 1541.85 16.11L1543.04 14.08C1542.66 13.79 1541.91 13.5 1540.92 13.5C1539.27 13.5 1538.28 14.341 1537.62 15.356V13.732H1535.44V28H1537.65ZM1552.35 26.173C1549.48 26.173 1547.16 23.911 1547.16 20.866C1547.16 17.821 1549.48 15.53 1552.35 15.53C1555.22 15.53 1557.51 17.908 1557.51 20.866C1557.51 23.824 1555.22 26.173 1552.35 26.173ZM1547.19 33.336V25.767C1548.38 27.246 1550.18 28.232 1552.38 28.232C1556.53 28.232 1559.77 24.984 1559.77 20.837C1559.77 16.69 1556.61 13.5 1552.47 13.5C1550.2 13.5 1548.35 14.544 1547.13 16.11V13.732H1544.98V33.336H1547.19ZM1569.3 26.173C1566.42 26.173 1564.13 23.911 1564.13 20.866C1564.13 17.821 1566.42 15.53 1569.3 15.53C1572.17 15.53 1574.49 17.734 1574.49 20.866C1574.49 23.998 1572.17 26.173 1569.3 26.173ZM1576.66 28V13.732H1574.52V16.081C1573.3 14.544 1571.44 13.5 1569.21 13.5C1565.06 13.5 1561.87 16.719 1561.87 20.866C1561.87 25.1 1564.95 28.232 1569.18 28.232C1571.41 28.232 1573.3 27.188 1574.52 25.651V28H1576.66ZM1581.63 33.336C1584.35 33.336 1584.96 32.031 1585.98 29.624L1592.74 13.732H1590.44L1585.75 25.187H1585.69L1580.9 13.732H1578.55L1584.35 27.13C1584.53 27.536 1584.56 27.884 1584.38 28.319L1584.06 29.073C1583.43 30.581 1583.05 31.277 1581.34 31.277H1580.58V33.336H1581.63ZM1601.09 11.064C1601.9 11.064 1602.6 10.397 1602.6 9.556C1602.6 8.744 1601.9 8.048 1601.09 8.048C1600.25 8.048 1599.58 8.744 1599.58 9.556C1599.58 10.397 1600.25 11.064 1601.09 11.064ZM1602.19 28V13.732H1599.99V28H1602.19ZM1617.79 17.821C1617.32 14.428 1614.31 13.5 1611.46 13.5C1607.87 13.5 1605.46 14.979 1605.46 17.763C1605.46 23.476 1615.7 20.199 1615.7 23.969C1615.7 25.477 1614.02 26.202 1611.72 26.202C1609.58 26.202 1607.93 25.622 1607.43 23.679H1605.23C1605.72 27.014 1608.39 28.232 1611.55 28.232C1615 28.232 1617.99 26.724 1617.99 23.708C1617.99 18.053 1607.66 21.011 1607.66 17.473C1607.66 16.081 1609.23 15.559 1611.26 15.559C1613.61 15.559 1615.23 16.255 1615.52 17.821H1617.79ZM1637.63 28V13.732H1635.43V23.099C1635.43 24.665 1634.1 26.173 1631.75 26.173C1629.54 26.173 1628.38 24.897 1628.38 23.099V13.732H1626.18V23.244C1626.18 26.144 1627.95 28.232 1631.28 28.232C1633.55 28.232 1634.85 27.188 1635.46 26.26V28H1637.63ZM1652.98 28V18.575C1652.98 15.675 1651.21 13.5 1647.88 13.5C1645.62 13.5 1644.31 14.631 1643.7 15.559V13.732H1641.53V28H1643.73V18.72C1643.73 17.154 1645.07 15.559 1647.42 15.559C1649.62 15.559 1650.78 16.922 1650.78 18.72V28H1652.98ZM1659.08 28V19.126C1659.08 17.386 1659.89 15.704 1661.84 15.704C1662.45 15.704 1662.91 15.907 1663.29 16.11L1664.48 14.08C1664.1 13.79 1663.35 13.5 1662.36 13.5C1660.71 13.5 1659.72 14.341 1659.05 15.356V13.732H1656.88V28H1659.08ZM1679.54 21.504C1679.57 21.301 1679.57 21.069 1679.57 20.866C1679.57 16.487 1676.44 13.5 1672.29 13.5C1668.15 13.5 1664.96 16.487 1664.96 20.866C1664.96 25.245 1667.97 28.232 1672.27 28.232C1675.57 28.232 1678.18 26.376 1679.28 23.679H1676.82C1675.89 25.187 1674.27 26.173 1672.27 26.173C1669.48 26.173 1667.51 24.346 1667.25 21.504H1679.54ZM1667.31 19.706C1667.77 17.183 1669.71 15.53 1672.27 15.53C1674.76 15.53 1676.79 17.183 1677.17 19.706H1667.31ZM1690.83 33.336C1694.4 33.336 1696.46 31.364 1696.46 27.768V13.732H1694.31V16.11C1693.09 14.573 1691.29 13.5 1689.06 13.5C1684.91 13.5 1681.67 16.719 1681.67 20.866C1681.67 25.013 1684.91 28.232 1689.06 28.232C1691.24 28.232 1693.03 27.188 1694.25 25.709V27.652C1694.25 30.262 1692.92 31.277 1690.54 31.277H1688.6V33.336H1690.83ZM1689.09 26.173C1686.22 26.173 1683.93 23.824 1683.93 20.866C1683.93 17.908 1686.22 15.53 1689.09 15.53C1691.96 15.53 1694.28 17.821 1694.28 20.866C1694.28 23.911 1691.96 26.173 1689.09 26.173ZM1711.81 28V13.732H1709.6V23.099C1709.6 24.665 1708.27 26.173 1705.92 26.173C1703.71 26.173 1702.55 24.897 1702.55 23.099V13.732H1700.35V23.244C1700.35 26.144 1702.12 28.232 1705.45 28.232C1707.72 28.232 1709.02 27.188 1709.63 26.26V28H1711.81ZM1717.99 28V8.28H1715.79V28H1717.99ZM1728.51 26.173C1725.64 26.173 1723.35 23.911 1723.35 20.866C1723.35 17.821 1725.64 15.53 1728.51 15.53C1731.38 15.53 1733.7 17.734 1733.7 20.866C1733.7 23.998 1731.38 26.173 1728.51 26.173ZM1735.88 28V13.732H1733.73V16.081C1732.51 14.544 1730.66 13.5 1728.42 13.5C1724.28 13.5 1721.09 16.719 1721.09 20.866C1721.09 25.1 1724.16 28.232 1728.4 28.232C1730.63 28.232 1732.51 27.188 1733.73 25.651V28H1735.88ZM1745.34 28V25.97H1744.5C1742.88 25.97 1742.5 25.332 1742.5 23.708V15.704H1745.28V13.732H1742.5V10.194H1740.29V13.732H1738.09V15.704H1740.29V23.94C1740.29 26.811 1741.31 28 1744.21 28H1745.34ZM1761.28 21.504C1761.31 21.301 1761.31 21.069 1761.31 20.866C1761.31 16.487 1758.17 13.5 1754.03 13.5C1749.88 13.5 1746.69 16.487 1746.69 20.866C1746.69 25.245 1749.71 28.232 1754 28.232C1757.3 28.232 1759.91 26.376 1761.02 23.679H1758.55C1757.62 25.187 1756 26.173 1754 26.173C1751.21 26.173 1749.24 24.346 1748.98 21.504H1761.28ZM1749.04 19.706C1749.5 17.183 1751.45 15.53 1754 15.53C1756.49 15.53 1758.52 17.183 1758.9 19.706H1749.04ZM1770.82 26.173C1767.95 26.173 1765.66 23.824 1765.66 20.866C1765.66 17.908 1767.95 15.53 1770.82 15.53C1773.69 15.53 1776.01 17.821 1776.01 20.866C1776.01 23.911 1773.69 26.173 1770.82 26.173ZM1778.19 28V8.28H1775.98V16.023C1774.77 14.515 1772.97 13.5 1770.79 13.5C1766.65 13.5 1763.4 16.719 1763.4 20.866C1763.4 25.013 1766.65 28.232 1770.79 28.232C1773.03 28.232 1774.82 27.159 1776.04 25.622V28H1778.19ZM1798.52 23.157C1797.68 24.955 1795.91 26.173 1793.82 26.173C1790.95 26.173 1788.66 23.824 1788.66 20.866C1788.66 17.908 1790.95 15.53 1793.82 15.53C1795.88 15.53 1797.65 16.748 1798.49 18.517H1800.89C1799.94 15.559 1797.15 13.5 1793.82 13.5C1789.67 13.5 1786.39 16.719 1786.39 20.866C1786.39 25.013 1789.67 28.232 1793.82 28.232C1797.18 28.232 1799.97 26.173 1800.89 23.157H1798.52ZM1805.87 28V19.126C1805.87 17.386 1806.68 15.704 1808.62 15.704C1809.23 15.704 1809.69 15.907 1810.07 16.11L1811.26 14.08C1810.88 13.79 1810.13 13.5 1809.14 13.5C1807.49 13.5 1806.5 14.341 1805.84 15.356V13.732H1803.66V28H1805.87ZM1826.33 21.504C1826.36 21.301 1826.36 21.069 1826.36 20.866C1826.36 16.487 1823.23 13.5 1819.08 13.5C1814.93 13.5 1811.74 16.487 1811.74 20.866C1811.74 25.245 1814.76 28.232 1819.05 28.232C1822.36 28.232 1824.97 26.376 1826.07 23.679H1823.6C1822.67 25.187 1821.05 26.173 1819.05 26.173C1816.27 26.173 1814.29 24.346 1814.03 21.504H1826.33ZM1814.09 19.706C1814.55 17.183 1816.5 15.53 1819.05 15.53C1821.54 15.53 1823.57 17.183 1823.95 19.706H1814.09ZM1835.87 26.173C1833 26.173 1830.71 23.824 1830.71 20.866C1830.71 17.908 1833 15.53 1835.87 15.53C1838.75 15.53 1841.07 17.821 1841.07 20.866C1841.07 23.911 1838.75 26.173 1835.87 26.173ZM1843.24 28V8.28H1841.04V16.023C1839.82 14.515 1838.02 13.5 1835.85 13.5C1831.7 13.5 1828.45 16.719 1828.45 20.866C1828.45 25.013 1831.7 28.232 1835.85 28.232C1838.08 28.232 1839.88 27.159 1841.09 25.622V28H1843.24ZM1848.32 11.064C1849.14 11.064 1849.83 10.397 1849.83 9.556C1849.83 8.744 1849.14 8.048 1848.32 8.048C1847.48 8.048 1846.82 8.744 1846.82 9.556C1846.82 10.397 1847.48 11.064 1848.32 11.064ZM1849.43 28V13.732H1847.22V28H1849.43ZM1858.99 28V25.97H1858.15C1856.52 25.97 1856.15 25.332 1856.15 23.708V15.704H1858.93V13.732H1856.15V10.194H1853.94V13.732H1851.74V15.704H1853.94V23.94C1853.94 26.811 1854.96 28 1857.86 28H1858.99ZM1863.84 26.608C1863.84 25.651 1863.09 24.897 1862.16 24.897C1861.23 24.897 1860.51 25.651 1860.51 26.608C1860.51 27.507 1861.23 28.232 1862.16 28.232C1863.09 28.232 1863.84 27.507 1863.84 26.608ZM1558.82 57V39.368H1565.81V37.28H1549.48V39.368H1556.47V57H1558.82ZM1573.02 45.748C1571.63 44.269 1570.73 43.283 1570.73 41.833C1570.73 40.383 1572.1 39.165 1573.89 39.165C1575.52 39.165 1577 40.18 1577 41.804C1577 43.573 1575.23 44.82 1573.02 45.748ZM1576.79 52.94C1575.55 54.187 1573.98 55.144 1572.18 55.144C1569.8 55.144 1568.04 53.781 1568.04 51.925C1568.04 49.895 1569.8 48.764 1571.98 47.865L1576.79 52.94ZM1583.61 57L1579.64 52.795L1583.52 47.111H1581.09L1578.21 51.258L1574.21 46.995C1576.91 45.806 1579.29 44.385 1579.29 41.746C1579.29 39.339 1577.34 37.048 1573.92 37.048C1570.62 37.048 1568.35 39.194 1568.35 42.036C1568.35 43.776 1569.2 44.907 1570.76 46.589C1568.15 47.662 1565.77 49.199 1565.77 52.128C1565.77 55.144 1568.5 57.232 1571.78 57.232C1574.01 57.232 1576.42 55.985 1578.16 54.39L1580.48 56.826C1580.59 56.971 1580.77 57 1580.94 57H1583.61ZM1602.49 51.345C1601.13 53.636 1598.66 55.144 1595.76 55.144C1591.3 55.144 1587.91 51.606 1587.91 47.14C1587.91 42.674 1591.3 39.136 1595.76 39.136C1598.69 39.136 1601.04 40.644 1602.38 42.906H1605.04C1603.42 39.397 1599.88 37.048 1595.76 37.048C1590.11 37.048 1585.56 41.427 1585.56 47.227C1585.56 52.911 1589.94 57.232 1595.76 57.232C1600.09 57.232 1603.59 54.883 1605.13 51.345H1602.49ZM1619.31 46.821C1618.85 43.428 1615.83 42.5 1612.99 42.5C1609.4 42.5 1606.99 43.979 1606.99 46.763C1606.99 52.476 1617.23 49.199 1617.23 52.969C1617.23 54.477 1615.54 55.202 1613.25 55.202C1611.11 55.202 1609.45 54.622 1608.96 52.679H1606.76C1607.25 56.014 1609.92 57.232 1613.08 57.232C1616.53 57.232 1619.52 55.724 1619.52 52.708C1619.52 47.053 1609.19 50.011 1609.19 46.473C1609.19 45.081 1610.76 44.559 1612.79 44.559C1615.14 44.559 1616.76 45.255 1617.05 46.821H1619.31ZM1633.8 45.748C1632.41 44.269 1631.51 43.283 1631.51 41.833C1631.51 40.383 1632.87 39.165 1634.67 39.165C1636.29 39.165 1637.77 40.18 1637.77 41.804C1637.77 43.573 1636 44.82 1633.8 45.748ZM1637.57 52.94C1636.32 54.187 1634.76 55.144 1632.96 55.144C1630.58 55.144 1628.81 53.781 1628.81 51.925C1628.81 49.895 1630.58 48.764 1632.75 47.865L1637.57 52.94ZM1644.38 57L1640.41 52.795L1644.3 47.111H1641.86L1638.99 51.258L1634.99 46.995C1637.68 45.806 1640.06 44.385 1640.06 41.746C1640.06 39.339 1638.12 37.048 1634.7 37.048C1631.39 37.048 1629.13 39.194 1629.13 42.036C1629.13 43.776 1629.97 44.907 1631.54 46.589C1628.93 47.662 1626.55 49.199 1626.55 52.128C1626.55 55.144 1629.27 57.232 1632.55 57.232C1634.78 57.232 1637.19 55.985 1638.93 54.39L1641.25 56.826C1641.37 56.971 1641.54 57 1641.72 57H1644.38ZM1654.33 57V37.28H1652.12V57H1654.33ZM1664.85 55.173C1661.98 55.173 1659.69 52.911 1659.69 49.866C1659.69 46.821 1661.98 44.53 1664.85 44.53C1667.72 44.53 1670.04 46.734 1670.04 49.866C1670.04 52.998 1667.72 55.173 1664.85 55.173ZM1672.21 57V42.732H1670.07V45.081C1668.85 43.544 1666.99 42.5 1664.76 42.5C1660.61 42.5 1657.42 45.719 1657.42 49.866C1657.42 54.1 1660.5 57.232 1664.73 57.232C1666.96 57.232 1668.85 56.188 1670.07 54.651V57H1672.21ZM1681.68 57V54.97H1680.84C1679.21 54.97 1678.83 54.332 1678.83 52.708V44.704H1681.62V42.732H1678.83V39.194H1676.63V42.732H1674.43V44.704H1676.63V52.94C1676.63 55.811 1677.65 57 1680.55 57H1681.68ZM1697.61 50.504C1697.64 50.301 1697.64 50.069 1697.64 49.866C1697.64 45.487 1694.51 42.5 1690.36 42.5C1686.22 42.5 1683.03 45.487 1683.03 49.866C1683.03 54.245 1686.04 57.232 1690.33 57.232C1693.64 57.232 1696.25 55.376 1697.35 52.679H1694.89C1693.96 54.187 1692.33 55.173 1690.33 55.173C1687.55 55.173 1685.58 53.346 1685.32 50.504H1697.61ZM1685.37 48.706C1685.84 46.183 1687.78 44.53 1690.33 44.53C1692.83 44.53 1694.86 46.183 1695.23 48.706H1685.37ZM1708.89 57V44.704H1712.51V42.732H1708.89V41.601C1708.89 39.977 1709.5 39.31 1711.15 39.31H1712.6V37.28H1710.95C1707.96 37.28 1706.66 38.498 1706.66 41.485V42.732H1704.16V44.704H1706.66V57H1708.89ZM1727.63 50.504C1727.66 50.301 1727.66 50.069 1727.66 49.866C1727.66 45.487 1724.53 42.5 1720.38 42.5C1716.23 42.5 1713.04 45.487 1713.04 49.866C1713.04 54.245 1716.06 57.232 1720.35 57.232C1723.66 57.232 1726.27 55.376 1727.37 52.679H1724.91C1723.98 54.187 1722.35 55.173 1720.35 55.173C1717.57 55.173 1715.6 53.346 1715.34 50.504H1727.63ZM1715.39 48.706C1715.86 46.183 1717.8 44.53 1720.35 44.53C1722.85 44.53 1724.88 46.183 1725.25 48.706H1715.39ZM1744.34 50.504C1744.37 50.301 1744.37 50.069 1744.37 49.866C1744.37 45.487 1741.24 42.5 1737.09 42.5C1732.94 42.5 1729.75 45.487 1729.75 49.866C1729.75 54.245 1732.77 57.232 1737.06 57.232C1740.37 57.232 1742.98 55.376 1744.08 52.679H1741.61C1740.69 54.187 1739.06 55.173 1737.06 55.173C1734.28 55.173 1732.31 53.346 1732.04 50.504H1744.34ZM1732.1 48.706C1732.57 46.183 1734.51 44.53 1737.06 44.53C1739.56 44.53 1741.59 46.183 1741.96 48.706H1732.1ZM1758.96 46.821C1758.5 43.428 1755.48 42.5 1752.64 42.5C1749.04 42.5 1746.64 43.979 1746.64 46.763C1746.64 52.476 1756.87 49.199 1756.87 52.969C1756.87 54.477 1755.19 55.202 1752.9 55.202C1750.75 55.202 1749.1 54.622 1748.61 52.679H1746.4C1746.9 56.014 1749.57 57.232 1752.73 57.232C1756.18 57.232 1759.16 55.724 1759.16 52.708C1759.16 47.053 1748.84 50.011 1748.84 46.473C1748.84 45.081 1750.41 44.559 1752.44 44.559C1754.79 44.559 1756.41 45.255 1756.7 46.821H1758.96ZM1773.88 55.173C1771.01 55.173 1768.72 52.911 1768.72 49.866C1768.72 46.821 1771.01 44.53 1773.88 44.53C1776.75 44.53 1779.07 46.734 1779.07 49.866C1779.07 52.998 1776.75 55.173 1773.88 55.173ZM1781.25 57V42.732H1779.1V45.081C1777.88 43.544 1776.03 42.5 1773.79 42.5C1769.65 42.5 1766.46 45.719 1766.46 49.866C1766.46 54.1 1769.53 57.232 1773.77 57.232C1776 57.232 1777.88 56.188 1779.1 54.651V57H1781.25ZM1792.51 55.173C1789.64 55.173 1787.32 52.911 1787.32 49.866C1787.32 46.821 1789.64 44.53 1792.51 44.53C1795.38 44.53 1797.67 46.908 1797.67 49.866C1797.67 52.824 1795.38 55.173 1792.51 55.173ZM1787.35 62.336V54.767C1788.53 56.246 1790.33 57.232 1792.54 57.232C1796.68 57.232 1799.93 53.984 1799.93 49.837C1799.93 45.69 1796.77 42.5 1792.62 42.5C1790.36 42.5 1788.51 43.544 1787.29 45.11V42.732H1785.14V62.336H1787.35ZM1810.29 55.173C1807.42 55.173 1805.1 52.911 1805.1 49.866C1805.1 46.821 1807.42 44.53 1810.29 44.53C1813.16 44.53 1815.45 46.908 1815.45 49.866C1815.45 52.824 1813.16 55.173 1810.29 55.173ZM1805.13 62.336V54.767C1806.32 56.246 1808.12 57.232 1810.32 57.232C1814.47 57.232 1817.72 53.984 1817.72 49.837C1817.72 45.69 1814.56 42.5 1810.41 42.5C1808.15 42.5 1806.29 43.544 1805.07 45.11V42.732H1802.93V62.336H1805.13ZM1823 57V37.28H1820.8V57H1823ZM1828.07 62.336C1830.8 62.336 1831.41 61.031 1832.42 58.624L1839.18 42.732H1836.89L1832.19 54.187H1832.13L1827.35 42.732H1825L1830.8 56.13C1830.97 56.536 1831 56.884 1830.83 57.319L1830.51 58.073C1829.87 59.581 1829.49 60.277 1827.78 60.277H1827.03V62.336H1828.07ZM1852.87 55.173C1850 55.173 1847.7 52.911 1847.7 49.866C1847.7 46.821 1850 44.53 1852.87 44.53C1855.74 44.53 1858.06 46.734 1858.06 49.866C1858.06 52.998 1855.74 55.173 1852.87 55.173ZM1860.23 57V42.732H1858.09V45.081C1856.87 43.544 1855.01 42.5 1852.78 42.5C1848.63 42.5 1845.44 45.719 1845.44 49.866C1845.44 54.1 1848.52 57.232 1852.75 57.232C1854.98 57.232 1856.87 56.188 1858.09 54.651V57H1860.23ZM1869.69 57V54.97H1868.85C1867.23 54.97 1866.85 54.332 1866.85 52.708V44.704H1869.64V42.732H1866.85V39.194H1864.65V42.732H1862.44V44.704H1864.65V52.94C1864.65 55.811 1865.66 57 1868.56 57H1869.69ZM1611.35 81.157C1610.51 82.955 1608.74 84.173 1606.65 84.173C1603.78 84.173 1601.49 81.824 1601.49 78.866C1601.49 75.908 1603.78 73.53 1606.65 73.53C1608.71 73.53 1610.48 74.748 1611.32 76.517H1613.73C1612.77 73.559 1609.98 71.5 1606.65 71.5C1602.5 71.5 1599.23 74.719 1599.23 78.866C1599.23 83.013 1602.5 86.232 1606.65 86.232C1610.01 86.232 1612.8 84.173 1613.73 81.157H1611.35ZM1618.78 86V66.28H1616.58V86H1618.78ZM1636.47 79.504C1636.5 79.301 1636.5 79.069 1636.5 78.866C1636.5 74.487 1633.37 71.5 1629.22 71.5C1625.07 71.5 1621.88 74.487 1621.88 78.866C1621.88 83.245 1624.9 86.232 1629.19 86.232C1632.5 86.232 1635.11 84.376 1636.21 81.679H1633.74C1632.81 83.187 1631.19 84.173 1629.19 84.173C1626.41 84.173 1624.43 82.346 1624.17 79.504H1636.47ZM1624.23 77.706C1624.69 75.183 1626.64 73.53 1629.19 73.53C1631.68 73.53 1633.71 75.183 1634.09 77.706H1624.23ZM1646.01 84.173C1643.14 84.173 1640.85 81.911 1640.85 78.866C1640.85 75.821 1643.14 73.53 1646.01 73.53C1648.89 73.53 1651.21 75.734 1651.21 78.866C1651.21 81.998 1648.89 84.173 1646.01 84.173ZM1653.38 86V71.732H1651.23V74.081C1650.02 72.544 1648.16 71.5 1645.93 71.5C1641.78 71.5 1638.59 74.719 1638.59 78.866C1638.59 83.1 1641.66 86.232 1645.9 86.232C1648.13 86.232 1650.02 85.188 1651.23 83.651V86H1653.38ZM1659.48 86V77.126C1659.48 75.386 1660.29 73.704 1662.23 73.704C1662.84 73.704 1663.31 73.907 1663.68 74.11L1664.87 72.08C1664.5 71.79 1663.74 71.5 1662.76 71.5C1661.1 71.5 1660.12 72.341 1659.45 73.356V71.732H1657.28V86H1659.48ZM1674.18 84.173C1671.31 84.173 1668.99 81.911 1668.99 78.866C1668.99 75.821 1671.31 73.53 1674.18 73.53C1677.06 73.53 1679.35 75.908 1679.35 78.866C1679.35 81.824 1677.06 84.173 1674.18 84.173ZM1669.02 91.336V83.767C1670.21 85.246 1672.01 86.232 1674.21 86.232C1678.36 86.232 1681.61 82.984 1681.61 78.837C1681.61 74.69 1678.45 71.5 1674.3 71.5C1672.04 71.5 1670.18 72.544 1668.96 74.11V71.732H1666.82V91.336H1669.02ZM1691.13 84.173C1688.26 84.173 1685.97 81.911 1685.97 78.866C1685.97 75.821 1688.26 73.53 1691.13 73.53C1694 73.53 1696.32 75.734 1696.32 78.866C1696.32 81.998 1694 84.173 1691.13 84.173ZM1698.5 86V71.732H1696.35V74.081C1695.13 72.544 1693.28 71.5 1691.04 71.5C1686.9 71.5 1683.71 74.719 1683.71 78.866C1683.71 83.1 1686.78 86.232 1691.01 86.232C1693.25 86.232 1695.13 85.188 1696.35 83.651V86H1698.5ZM1703.46 91.336C1706.19 91.336 1706.8 90.031 1707.81 87.624L1714.57 71.732H1712.28L1707.58 83.187H1707.52L1702.74 71.732H1700.39L1706.19 85.13C1706.36 85.536 1706.39 85.884 1706.22 86.319L1705.9 87.073C1705.26 88.581 1704.88 89.277 1703.17 89.277H1702.42V91.336H1703.46ZM1716.8 84.608C1716.8 83.651 1716.05 82.897 1715.12 82.897C1714.19 82.897 1713.47 83.651 1713.47 84.608C1713.47 85.507 1714.19 86.232 1715.12 86.232C1716.05 86.232 1716.8 85.507 1716.8 84.608ZM1730.63 81.157C1729.79 82.955 1728.02 84.173 1725.93 84.173C1723.06 84.173 1720.77 81.824 1720.77 78.866C1720.77 75.908 1723.06 73.53 1725.93 73.53C1727.99 73.53 1729.76 74.748 1730.6 76.517H1733.01C1732.05 73.559 1729.27 71.5 1725.93 71.5C1721.79 71.5 1718.51 74.719 1718.51 78.866C1718.51 83.013 1721.79 86.232 1725.93 86.232C1729.3 86.232 1732.08 84.173 1733.01 81.157H1730.63ZM1749.73 78.866C1749.73 74.719 1746.45 71.5 1742.3 71.5C1738.16 71.5 1734.88 74.719 1734.88 78.866C1734.88 83.013 1738.16 86.232 1742.3 86.232C1746.45 86.232 1749.73 83.013 1749.73 78.866ZM1742.3 84.173C1739.43 84.173 1737.14 81.824 1737.14 78.866C1737.14 75.908 1739.43 73.53 1742.3 73.53C1745.17 73.53 1747.49 75.908 1747.49 78.866C1747.49 81.824 1745.17 84.173 1742.3 84.173ZM1754.75 84.608C1754.75 83.651 1754 82.897 1753.07 82.897C1752.14 82.897 1751.42 83.651 1751.42 84.608C1751.42 85.507 1752.14 86.232 1753.07 86.232C1754 86.232 1754.75 85.507 1754.75 84.608ZM1769.1 86V71.732H1766.89V81.099C1766.89 82.665 1765.56 84.173 1763.21 84.173C1761.01 84.173 1759.85 82.897 1759.85 81.099V71.732H1757.64V81.244C1757.64 84.144 1759.41 86.232 1762.75 86.232C1765.01 86.232 1766.31 85.188 1766.92 84.26V86H1769.1ZM1785.69 86L1779.2 77.184L1785.17 71.732H1782.42L1775.28 78.344H1775.2V66.28H1772.99V86H1775.2V80.838L1777.54 78.692L1782.94 86H1785.69ZM1787.41 86.174L1797.35 66.164H1795.44L1785.46 86.174H1787.41ZM1804.87 86V83.97H1804.03C1802.4 83.97 1802.03 83.332 1802.03 81.708V73.704H1804.81V71.732H1802.03V68.194H1799.82V71.732H1797.62V73.704H1799.82V81.94C1799.82 84.811 1800.84 86 1803.74 86H1804.87ZM1820.81 79.504C1820.83 79.301 1820.83 79.069 1820.83 78.866C1820.83 74.487 1817.7 71.5 1813.56 71.5C1809.41 71.5 1806.22 74.487 1806.22 78.866C1806.22 83.245 1809.23 86.232 1813.53 86.232C1816.83 86.232 1819.44 84.376 1820.54 81.679H1818.08C1817.15 83.187 1815.53 84.173 1813.53 84.173C1810.74 84.173 1808.77 82.346 1808.51 79.504H1820.81ZM1808.57 77.706C1809.03 75.183 1810.97 73.53 1813.53 73.53C1816.02 73.53 1818.05 75.183 1818.43 77.706H1808.57ZM1826.03 86V77.126C1826.03 75.386 1826.84 73.704 1828.79 73.704C1829.39 73.704 1829.86 73.907 1830.24 74.11L1831.42 72.08C1831.05 71.79 1830.29 71.5 1829.31 71.5C1827.65 71.5 1826.67 72.341 1826 73.356V71.732H1823.83V86H1826.03ZM1853.26 86V76.488C1853.26 73.588 1851.7 71.5 1848.36 71.5C1846.22 71.5 1844.94 72.486 1843.93 73.994C1843.23 72.457 1841.78 71.5 1839.52 71.5C1837.26 71.5 1836.15 72.544 1835.55 73.472V71.732H1833.37V86H1835.57V76.633C1835.57 75.067 1836.71 73.559 1839.05 73.559C1841.26 73.559 1842.22 74.835 1842.22 76.633V86H1844.42V76.517C1844.42 75.009 1845.61 73.559 1847.9 73.559C1850.1 73.559 1851.06 74.835 1851.06 76.633V86H1853.26ZM1868.76 75.821C1868.3 72.428 1865.28 71.5 1862.44 71.5C1858.84 71.5 1856.43 72.979 1856.43 75.763C1856.43 81.476 1866.67 78.199 1866.67 81.969C1866.67 83.477 1864.99 84.202 1862.7 84.202C1860.55 84.202 1858.9 83.622 1858.41 81.679H1856.2C1856.7 85.014 1859.36 86.232 1862.52 86.232C1865.98 86.232 1868.96 84.724 1868.96 81.708C1868.96 76.053 1858.64 79.011 1858.64 75.473C1858.64 74.081 1860.2 73.559 1862.23 73.559C1864.58 73.559 1866.21 74.255 1866.5 75.821H1868.76Z" fill="black"/>
</svg>
