<svg width="600" height="449" viewBox="0 0 600 449" fill="none" xmlns="http://www.w3.org/2000/svg">
<rect width="600" height="449" fill="black"/>
<path d="M137.38 274V256.32H134.156L134.26 268.67H134.182L124.952 256.32H121.832V274H125.082L124.952 261.52H125.056L134.286 274H137.38ZM153.234 267.5C153.234 263.678 150.27 260.766 146.422 260.766C142.548 260.766 139.61 263.678 139.61 267.5C139.61 271.322 142.548 274.208 146.422 274.208C150.27 274.208 153.234 271.322 153.234 267.5ZM146.422 271.192C144.498 271.192 142.886 269.606 142.886 267.5C142.886 265.394 144.498 263.808 146.422 263.808C148.346 263.808 149.932 265.394 149.932 267.5C149.932 269.606 148.346 271.192 146.422 271.192ZM169.135 274L173.191 261H169.863L167.341 269.502H167.315L164.689 261H162.375L159.619 269.424H159.567L157.149 261H153.743L157.591 274H160.581L163.363 265.94H163.441L166.119 274H169.135ZM185.549 271.218C183.599 271.218 182.013 269.632 182.013 267.5C182.013 265.342 183.599 263.782 185.549 263.782C187.499 263.782 189.085 265.316 189.085 267.5C189.085 269.684 187.499 271.218 185.549 271.218ZM192.309 274V261H189.111V262.638C188.149 261.494 186.745 260.766 185.081 260.766C181.545 260.766 178.737 263.678 178.737 267.5C178.737 271.348 181.441 274.208 185.003 274.208C186.719 274.208 188.149 273.48 189.111 272.31V274H192.309ZM201.634 274L206.756 261H203.48L200.152 269.996H200.048L196.876 261H193.496L198.332 274H201.634ZM213.707 271.218C211.757 271.218 210.171 269.632 210.171 267.5C210.171 265.342 211.757 263.782 213.707 263.782C215.657 263.782 217.243 265.316 217.243 267.5C217.243 269.684 215.657 271.218 213.707 271.218ZM220.467 274V261H217.269V262.638C216.307 261.494 214.903 260.766 213.239 260.766C209.703 260.766 206.895 263.678 206.895 267.5C206.895 271.348 209.599 274.208 213.161 274.208C214.877 274.208 216.307 273.48 217.269 272.31V274H220.467ZM224.826 259.388C225.84 259.388 226.698 258.53 226.698 257.516C226.698 256.528 225.84 255.644 224.826 255.644C223.812 255.644 222.954 256.528 222.954 257.516C222.954 258.53 223.812 259.388 224.826 259.388ZM226.438 274V261H223.162V274H226.438ZM232.533 274V256.32H229.257V274H232.533ZM241.434 271.218C239.484 271.218 237.898 269.632 237.898 267.5C237.898 265.342 239.484 263.782 241.434 263.782C243.384 263.782 244.97 265.316 244.97 267.5C244.97 269.684 243.384 271.218 241.434 271.218ZM248.194 274V261H244.996V262.638C244.034 261.494 242.63 260.766 240.966 260.766C237.43 260.766 234.622 263.678 234.622 267.5C234.622 271.348 237.326 274.208 240.888 274.208C242.604 274.208 244.034 273.48 244.996 272.31V274H248.194ZM254.035 274V272.31C254.971 273.48 256.349 274.208 258.065 274.208C261.601 274.208 264.409 271.296 264.409 267.474C264.409 263.652 261.679 260.766 258.143 260.766C256.479 260.766 255.101 261.494 254.139 262.586V256.32H250.837V274H254.035ZM257.597 271.218C255.647 271.218 254.061 269.632 254.061 267.5C254.061 265.342 255.647 263.782 257.597 263.782C259.547 263.782 261.133 265.394 261.133 267.5C261.133 269.606 259.547 271.218 257.597 271.218ZM269.73 274V256.32H266.454V274H269.73ZM285.183 268.358C285.235 268.098 285.261 267.812 285.261 267.526C285.261 263.626 282.453 260.766 278.579 260.766C274.731 260.766 271.819 263.6 271.819 267.526C271.819 271.452 274.575 274.208 278.501 274.208C281.751 274.208 284.221 272.44 285.001 269.684H281.647C281.023 270.724 279.957 271.374 278.579 271.374C276.837 271.374 275.459 270.282 275.225 268.358H285.183ZM275.251 266.33C275.589 264.614 276.915 263.626 278.527 263.626C280.139 263.626 281.517 264.64 281.751 266.33H275.251ZM304.867 267.5C304.867 263.678 301.903 260.766 298.055 260.766C294.181 260.766 291.243 263.678 291.243 267.5C291.243 271.322 294.181 274.208 298.055 274.208C301.903 274.208 304.867 271.322 304.867 267.5ZM298.055 271.192C296.131 271.192 294.519 269.606 294.519 267.5C294.519 265.394 296.131 263.808 298.055 263.808C299.979 263.808 301.565 265.394 301.565 267.5C301.565 269.606 299.979 271.192 298.055 271.192ZM318.08 274V265.316C318.08 262.534 316.442 260.766 313.66 260.766C311.71 260.766 310.514 261.858 310.046 262.638V261H306.848V274H310.15V265.888C310.15 264.562 311.19 263.704 312.542 263.704C313.842 263.704 314.804 264.484 314.804 265.914V274H318.08ZM324.117 274V256.32H320.841V274H324.117ZM328.598 259.388C329.612 259.388 330.47 258.53 330.47 257.516C330.47 256.528 329.612 255.644 328.598 255.644C327.584 255.644 326.726 256.528 326.726 257.516C326.726 258.53 327.584 259.388 328.598 259.388ZM330.21 274V261H326.934V274H330.21ZM344.182 274V265.316C344.182 262.534 342.544 260.766 339.762 260.766C337.812 260.766 336.616 261.858 336.148 262.638V261H332.95V274H336.252V265.888C336.252 264.562 337.292 263.704 338.644 263.704C339.944 263.704 340.906 264.484 340.906 265.914V274H344.182ZM359.552 268.358C359.604 268.098 359.63 267.812 359.63 267.526C359.63 263.626 356.822 260.766 352.948 260.766C349.1 260.766 346.188 263.6 346.188 267.526C346.188 271.452 348.944 274.208 352.87 274.208C356.12 274.208 358.59 272.44 359.37 269.684H356.016C355.392 270.724 354.326 271.374 352.948 271.374C351.206 271.374 349.828 270.282 349.594 268.358H359.552ZM349.62 266.33C349.958 264.614 351.284 263.626 352.896 263.626C354.508 263.626 355.886 264.64 356.12 266.33H349.62ZM372.554 263.418C371.67 262.456 371.072 261.702 371.072 260.74C371.072 259.778 371.93 258.92 373.23 258.92C374.452 258.92 375.44 259.674 375.44 260.74C375.44 261.91 374.166 262.794 372.554 263.418ZM374.712 270.23C373.854 270.88 372.84 271.348 371.696 271.348C369.928 271.348 368.706 270.412 368.706 269.086C368.706 267.76 369.824 266.928 371.176 266.356L374.712 270.23ZM381.992 274L378.69 270.308C379.808 268.748 380.9 266.954 381.888 264.822H378.716C378.066 266.018 377.416 267.084 376.766 268.098L374.114 265.134C376.402 264.172 378.404 263.054 378.404 260.636C378.404 258.27 376.532 256.112 373.256 256.112C369.902 256.112 367.9 258.348 367.9 260.818C367.9 262.222 368.55 263.314 369.59 264.562C367.302 265.524 365.43 266.85 365.43 269.398C365.43 272.57 368.056 274.208 371.358 274.208C373.074 274.208 374.972 273.506 376.584 272.336L378.066 273.922C378.534 274 379.028 274 379.522 274H381.992ZM389.865 259.388C390.879 259.388 391.737 258.53 391.737 257.516C391.737 256.528 390.879 255.644 389.865 255.644C388.851 255.644 387.993 256.528 387.993 257.516C387.993 258.53 388.851 259.388 389.865 259.388ZM391.477 274V261H388.201V274H391.477ZM405.45 274V265.316C405.45 262.534 403.812 260.766 401.03 260.766C399.08 260.766 397.884 261.858 397.416 262.638V261H394.218V274H397.52V265.888C397.52 264.562 398.56 263.704 399.912 263.704C401.212 263.704 402.174 264.484 402.174 265.914V274H405.45ZM414.502 268.462V265.992H407.664V268.462H414.502ZM427.869 264.926C427.557 262.014 424.957 260.766 422.019 260.766C418.249 260.766 416.039 262.482 416.039 264.978C416.039 270.204 424.879 267.578 424.879 270.204C424.879 271.14 423.813 271.686 422.123 271.686C420.511 271.686 419.497 271.244 419.055 269.944H415.857C416.221 273.09 418.873 274.208 421.967 274.208C425.451 274.208 428.129 272.622 428.129 269.866C428.129 264.588 419.341 267.136 419.341 264.64C419.341 263.73 420.407 263.314 421.811 263.314C423.423 263.314 424.437 263.834 424.775 264.926H427.869ZM436.05 274V271.114H435.4C434.282 271.114 433.97 270.698 433.97 269.606V263.834H436.024V261H433.97V257.828H430.694V261H429.004V263.834H430.694V270.204C430.694 272.856 431.708 274 434.36 274H436.05ZM450.837 267.5C450.837 263.678 447.873 260.766 444.025 260.766C440.151 260.766 437.213 263.678 437.213 267.5C437.213 271.322 440.151 274.208 444.025 274.208C447.873 274.208 450.837 271.322 450.837 267.5ZM444.025 271.192C442.101 271.192 440.489 269.606 440.489 267.5C440.489 265.394 442.101 263.808 444.025 263.808C445.949 263.808 447.535 265.394 447.535 267.5C447.535 269.606 445.949 271.192 444.025 271.192ZM456.121 274V266.304C456.121 264.978 456.771 263.938 458.019 263.938C458.461 263.938 458.825 264.068 459.137 264.25L460.749 261.39C460.307 261.026 459.657 260.766 458.825 260.766C457.473 260.766 456.537 261.468 456.017 262.274V261H452.819V274H456.121ZM473.988 268.358C474.04 268.098 474.066 267.812 474.066 267.526C474.066 263.626 471.258 260.766 467.384 260.766C463.536 260.766 460.624 263.6 460.624 267.526C460.624 271.452 463.38 274.208 467.306 274.208C470.556 274.208 473.026 272.44 473.806 269.684H470.452C469.828 270.724 468.762 271.374 467.384 271.374C465.642 271.374 464.264 270.282 464.03 268.358H473.988ZM464.056 266.33C464.394 264.614 465.72 263.626 467.332 263.626C468.944 263.626 470.322 264.64 470.556 266.33H464.056ZM479.048 272.258C479.048 271.166 478.164 270.282 477.072 270.282C476.006 270.282 475.148 271.166 475.148 272.258C475.148 273.324 476.006 274.182 477.072 274.182C478.164 274.182 479.048 273.324 479.048 272.258Z" fill="white"/>
<path d="M356.794 234.271H243.245C227.092 234.271 214 221.178 214 205.026C214 188.873 227.092 175.78 243.245 175.78H356.794C372.947 175.78 386.039 188.873 386.039 205.026C386.05 221.168 372.947 234.271 356.794 234.271Z" fill="#B2FCE4"/>
<path d="M337.1 198.742L328.482 216.521H324.911L328.131 209.879L323.073 198.742H326.739L329.991 206.202L333.54 198.742H337.1Z" fill="black"/>
<path d="M304.306 205.056C304.306 203.016 302.765 201.443 300.874 201.443C298.982 201.443 297.441 202.962 297.441 205.056C297.441 207.128 298.982 208.669 300.874 208.669C302.765 208.669 304.306 207.096 304.306 205.056ZM294.306 216.522V198.744H297.409V200.38C298.344 199.222 299.737 198.51 301.394 198.51C304.806 198.51 307.484 201.315 307.484 205.024C307.484 208.733 304.752 211.56 301.32 211.56C299.726 211.56 298.419 210.933 297.505 209.87V216.512H294.306V216.522Z" fill="black"/>
<path d="M318.684 205.055C318.684 202.93 317.143 201.442 315.252 201.442C313.36 201.442 311.819 202.962 311.819 205.055C311.819 207.127 313.36 208.668 315.252 208.668C317.143 208.668 318.684 207.17 318.684 205.055ZM318.705 211.367V209.731C317.77 210.868 316.378 211.569 314.72 211.569C311.256 211.569 308.631 208.796 308.631 205.055C308.631 201.346 311.362 198.52 314.795 198.52C316.41 198.52 317.77 199.232 318.705 200.337V198.743H321.808V211.367H318.705Z" fill="black"/>
<path d="M288.705 199.976C288.705 199.976 289.491 198.51 291.436 198.51C292.265 198.51 292.796 198.797 292.796 198.797V202.017C292.796 202.017 291.627 201.294 290.554 201.443C289.481 201.592 288.801 202.569 288.801 203.887V211.368H285.591V198.744H288.694V199.976H288.705Z" fill="black"/>
<path d="M361.202 198.031L357.525 195.926L353.795 193.79C351.33 192.377 348.248 194.152 348.248 197V197.478C348.248 197.744 348.386 197.988 348.62 198.116L350.352 199.104C350.83 199.38 351.425 199.029 351.425 198.477V197.34C351.425 196.777 352.031 196.426 352.52 196.702L355.92 198.658L359.31 200.602C359.799 200.879 359.799 201.591 359.31 201.867L355.92 203.812L352.52 205.767C352.031 206.043 351.425 205.693 351.425 205.129V204.566C351.425 201.718 348.343 199.933 345.878 201.357L342.148 203.493L338.471 205.597C335.995 207.021 335.995 210.602 338.471 212.026L342.148 214.13L345.878 216.266C348.343 217.68 351.425 215.905 351.425 213.057V212.579C351.425 212.313 351.287 212.069 351.053 211.941L349.321 210.953C348.843 210.677 348.248 211.027 348.248 211.58V212.717C348.248 213.28 347.642 213.631 347.153 213.355L343.753 211.399L340.363 209.454C339.874 209.178 339.874 208.466 340.363 208.19L343.753 206.245L347.153 204.29C347.642 204.013 348.248 204.364 348.248 204.927V205.491C348.248 208.339 351.33 210.124 353.795 208.7L357.525 206.564L361.202 204.46C363.678 203.025 363.678 199.455 361.202 198.031Z" fill="black"/>
<path d="M249.919 206.658C249.239 209.56 246.741 211.557 243.511 211.557C239.781 211.557 236.975 208.752 236.975 205.043C236.975 201.334 239.823 198.508 243.564 198.508C246.72 198.508 249.186 200.505 249.898 203.353H246.614C246.029 202.216 244.871 201.462 243.585 201.462C241.715 201.462 240.153 203.003 240.153 205.043C240.153 207.083 241.715 208.624 243.585 208.624C244.924 208.624 246.083 207.87 246.635 206.658H249.919Z" fill="black"/>
<path d="M251.394 211.357V193.546H254.571V211.357H251.394Z" fill="black"/>
<path d="M259.354 205.883C259.578 207.754 260.917 208.806 262.606 208.806C263.945 208.806 264.976 208.179 265.582 207.169H268.834C268.079 209.847 265.677 211.558 262.521 211.558C258.706 211.558 256.039 208.88 256.039 205.076C256.039 201.271 258.866 198.519 262.596 198.519C266.358 198.519 269.078 201.293 269.078 205.076C269.078 205.352 269.057 205.628 269.004 205.883H259.354V205.883ZM265.688 203.907C265.465 202.27 264.126 201.282 262.564 201.282C261.002 201.282 259.716 202.238 259.386 203.907H265.688Z" fill="black"/>
<path d="M280.427 211.356V209.719C279.492 210.856 278.111 211.557 276.442 211.557C272.988 211.557 270.364 208.784 270.364 205.043C270.364 201.334 273.084 198.508 276.517 198.508C278.132 198.508 279.492 199.209 280.427 200.325V198.731H283.53V211.345H280.427V211.356ZM280.395 205.043C280.395 202.928 278.855 201.43 276.963 201.43C275.071 201.43 273.53 202.939 273.53 205.043C273.53 207.115 275.071 208.656 276.963 208.656C278.855 208.656 280.395 207.169 280.395 205.043Z" fill="black"/>
<path d="M152.79 410.32C151.662 412.216 149.622 413.464 147.222 413.464C143.526 413.464 140.718 410.536 140.718 406.84C140.718 403.144 143.526 400.216 147.222 400.216C149.646 400.216 151.59 401.464 152.694 403.336H154.902C153.558 400.432 150.63 398.488 147.222 398.488C142.542 398.488 138.774 402.112 138.774 406.912C138.774 411.616 142.398 415.192 147.222 415.192C150.798 415.192 153.702 413.248 154.974 410.32H152.79ZM159.008 415V398.68H157.184V415H159.008ZM173.643 409.624C173.667 409.456 173.667 409.264 173.667 409.096C173.667 405.472 171.075 403 167.643 403C164.211 403 161.571 405.472 161.571 409.096C161.571 412.72 164.067 415.192 167.619 415.192C170.355 415.192 172.515 413.656 173.427 411.424H171.387C170.619 412.672 169.275 413.488 167.619 413.488C165.315 413.488 163.683 411.976 163.467 409.624H173.643ZM163.515 408.136C163.899 406.048 165.507 404.68 167.619 404.68C169.683 404.68 171.363 406.048 171.675 408.136H163.515ZM181.543 413.488C179.167 413.488 177.271 411.616 177.271 409.096C177.271 406.576 179.167 404.68 181.543 404.68C183.919 404.68 185.839 406.504 185.839 409.096C185.839 411.688 183.919 413.488 181.543 413.488ZM187.639 415V403.192H185.863V405.136C184.855 403.864 183.319 403 181.471 403C178.039 403 175.399 405.664 175.399 409.096C175.399 412.6 177.943 415.192 181.447 415.192C183.295 415.192 184.855 414.328 185.863 413.056V415H187.639ZM192.686 415V407.656C192.686 406.216 193.358 404.824 194.966 404.824C195.47 404.824 195.854 404.992 196.166 405.16L197.15 403.48C196.838 403.24 196.214 403 195.398 403C194.03 403 193.214 403.696 192.662 404.536V403.192H190.862V415H192.686ZM204.856 413.488C202.48 413.488 200.56 411.616 200.56 409.096C200.56 406.576 202.48 404.68 204.856 404.68C207.232 404.68 209.128 406.648 209.128 409.096C209.128 411.544 207.232 413.488 204.856 413.488ZM200.584 419.416V413.152C201.568 414.376 203.056 415.192 204.88 415.192C208.312 415.192 211 412.504 211 409.072C211 405.64 208.384 403 204.952 403C203.08 403 201.544 403.864 200.536 405.16V403.192H198.76V419.416H200.584ZM218.879 413.488C216.503 413.488 214.607 411.616 214.607 409.096C214.607 406.576 216.503 404.68 218.879 404.68C221.255 404.68 223.175 406.504 223.175 409.096C223.175 411.688 221.255 413.488 218.879 413.488ZM224.975 415V403.192H223.199V405.136C222.191 403.864 220.655 403 218.807 403C215.375 403 212.735 405.664 212.735 409.096C212.735 412.6 215.279 415.192 218.783 415.192C220.631 415.192 222.191 414.328 223.199 413.056V415H224.975ZM229.086 419.416C231.342 419.416 231.846 418.336 232.686 416.344L238.278 403.192H236.382L232.494 412.672H232.446L228.486 403.192H226.542L231.342 414.28C231.486 414.616 231.51 414.904 231.366 415.264L231.102 415.888C230.574 417.136 230.262 417.712 228.846 417.712H228.222V419.416H229.086ZM245.19 400.984C245.862 400.984 246.438 400.432 246.438 399.736C246.438 399.064 245.862 398.488 245.19 398.488C244.494 398.488 243.942 399.064 243.942 399.736C243.942 400.432 244.494 400.984 245.19 400.984ZM246.102 415V403.192H244.278V415H246.102ZM259.009 406.576C258.625 403.768 256.129 403 253.777 403C250.801 403 248.809 404.224 248.809 406.528C248.809 411.256 257.281 408.544 257.281 411.664C257.281 412.912 255.889 413.512 253.993 413.512C252.217 413.512 250.849 413.032 250.441 411.424H248.617C249.025 414.184 251.233 415.192 253.849 415.192C256.705 415.192 259.177 413.944 259.177 411.448C259.177 406.768 250.633 409.216 250.633 406.288C250.633 405.136 251.929 404.704 253.609 404.704C255.553 404.704 256.897 405.28 257.137 406.576H259.009ZM275.436 415V403.192H273.612V410.944C273.612 412.24 272.508 413.488 270.564 413.488C268.74 413.488 267.78 412.432 267.78 410.944V403.192H265.956V411.064C265.956 413.464 267.42 415.192 270.18 415.192C272.052 415.192 273.132 414.328 273.636 413.56V415H275.436ZM288.139 415V407.2C288.139 404.8 286.675 403 283.915 403C282.043 403 280.963 403.936 280.459 404.704V403.192H278.659V415H280.483V407.32C280.483 406.024 281.587 404.704 283.531 404.704C285.355 404.704 286.315 405.832 286.315 407.32V415H288.139ZM293.186 415V407.656C293.186 406.216 293.858 404.824 295.466 404.824C295.97 404.824 296.354 404.992 296.666 405.16L297.65 403.48C297.338 403.24 296.714 403 295.898 403C294.53 403 293.714 403.696 293.162 404.536V403.192H291.362V415H293.186ZM310.12 409.624C310.144 409.456 310.144 409.264 310.144 409.096C310.144 405.472 307.552 403 304.12 403C300.688 403 298.048 405.472 298.048 409.096C298.048 412.72 300.544 415.192 304.096 415.192C306.832 415.192 308.992 413.656 309.904 411.424H307.864C307.096 412.672 305.752 413.488 304.096 413.488C301.792 413.488 300.16 411.976 299.944 409.624H310.12ZM299.992 408.136C300.376 406.048 301.984 404.68 304.096 404.68C306.16 404.68 307.84 406.048 308.152 408.136H299.992ZM319.46 419.416C322.412 419.416 324.116 417.784 324.116 414.808V403.192H322.34V405.16C321.332 403.888 319.844 403 317.996 403C314.564 403 311.876 405.664 311.876 409.096C311.876 412.528 314.564 415.192 317.996 415.192C319.796 415.192 321.284 414.328 322.292 413.104V414.712C322.292 416.872 321.188 417.712 319.22 417.712H317.612V419.416H319.46ZM318.02 413.488C315.644 413.488 313.748 411.544 313.748 409.096C313.748 406.648 315.644 404.68 318.02 404.68C320.396 404.68 322.316 406.576 322.316 409.096C322.316 411.616 320.396 413.488 318.02 413.488ZM336.818 415V403.192H334.994V410.944C334.994 412.24 333.89 413.488 331.946 413.488C330.122 413.488 329.162 412.432 329.162 410.944V403.192H327.338V411.064C327.338 413.464 328.802 415.192 331.562 415.192C333.434 415.192 334.514 414.328 335.018 413.56V415H336.818ZM341.938 415V398.68H340.114V415H341.938ZM350.645 413.488C348.269 413.488 346.373 411.616 346.373 409.096C346.373 406.576 348.269 404.68 350.645 404.68C353.021 404.68 354.941 406.504 354.941 409.096C354.941 411.688 353.021 413.488 350.645 413.488ZM356.741 415V403.192H354.965V405.136C353.957 403.864 352.421 403 350.573 403C347.141 403 344.501 405.664 344.501 409.096C344.501 412.6 347.045 415.192 350.549 415.192C352.397 415.192 353.957 414.328 354.965 413.056V415H356.741ZM364.571 415V413.32H363.875C362.531 413.32 362.219 412.792 362.219 411.448V404.824H364.523V403.192H362.219V400.264H360.395V403.192H358.571V404.824H360.395V411.64C360.395 414.016 361.235 415 363.635 415H364.571ZM377.76 409.624C377.784 409.456 377.784 409.264 377.784 409.096C377.784 405.472 375.192 403 371.76 403C368.328 403 365.688 405.472 365.688 409.096C365.688 412.72 368.184 415.192 371.736 415.192C374.472 415.192 376.632 413.656 377.544 411.424H375.504C374.736 412.672 373.392 413.488 371.736 413.488C369.432 413.488 367.8 411.976 367.584 409.624H377.76ZM367.632 408.136C368.016 406.048 369.624 404.68 371.736 404.68C373.8 404.68 375.48 406.048 375.792 408.136H367.632ZM385.66 413.488C383.284 413.488 381.388 411.544 381.388 409.096C381.388 406.648 383.284 404.68 385.66 404.68C388.036 404.68 389.956 406.576 389.956 409.096C389.956 411.616 388.036 413.488 385.66 413.488ZM391.756 415V398.68H389.932V405.088C388.924 403.84 387.436 403 385.636 403C382.204 403 379.516 405.664 379.516 409.096C379.516 412.528 382.204 415.192 385.636 415.192C387.484 415.192 388.972 414.304 389.98 413.032V415H391.756ZM408.58 410.992C407.884 412.48 406.42 413.488 404.692 413.488C402.316 413.488 400.42 411.544 400.42 409.096C400.42 406.648 402.316 404.68 404.692 404.68C406.396 404.68 407.86 405.688 408.556 407.152H410.548C409.756 404.704 407.452 403 404.692 403C401.26 403 398.548 405.664 398.548 409.096C398.548 412.528 401.26 415.192 404.692 415.192C407.476 415.192 409.78 413.488 410.548 410.992H408.58ZM414.662 415V407.656C414.662 406.216 415.334 404.824 416.942 404.824C417.446 404.824 417.83 404.992 418.142 405.16L419.126 403.48C418.814 403.24 418.19 403 417.374 403C416.006 403 415.19 403.696 414.638 404.536V403.192H412.838V415H414.662ZM431.596 409.624C431.62 409.456 431.62 409.264 431.62 409.096C431.62 405.472 429.028 403 425.596 403C422.164 403 419.524 405.472 419.524 409.096C419.524 412.72 422.02 415.192 425.572 415.192C428.308 415.192 430.468 413.656 431.38 411.424H429.34C428.572 412.672 427.228 413.488 425.572 413.488C423.268 413.488 421.636 411.976 421.42 409.624H431.596ZM421.468 408.136C421.852 406.048 423.46 404.68 425.572 404.68C427.636 404.68 429.316 406.048 429.628 408.136H421.468ZM439.496 413.488C437.12 413.488 435.224 411.544 435.224 409.096C435.224 406.648 437.12 404.68 439.496 404.68C441.872 404.68 443.792 406.576 443.792 409.096C443.792 411.616 441.872 413.488 439.496 413.488ZM445.592 415V398.68H443.768V405.088C442.76 403.84 441.272 403 439.472 403C436.04 403 433.352 405.664 433.352 409.096C433.352 412.528 436.04 415.192 439.472 415.192C441.32 415.192 442.808 414.304 443.816 413.032V415H445.592ZM449.799 400.984C450.471 400.984 451.047 400.432 451.047 399.736C451.047 399.064 450.471 398.488 449.799 398.488C449.103 398.488 448.551 399.064 448.551 399.736C448.551 400.432 449.103 400.984 449.799 400.984ZM450.711 415V403.192H448.887V415H450.711ZM458.626 415V413.32H457.93C456.586 413.32 456.274 412.792 456.274 411.448V404.824H458.578V403.192H456.274V400.264H454.45V403.192H452.626V404.824H454.45V411.64C454.45 414.016 455.29 415 457.69 415H458.626ZM462.641 413.848C462.641 413.056 462.017 412.432 461.249 412.432C460.481 412.432 459.881 413.056 459.881 413.848C459.881 414.592 460.481 415.192 461.249 415.192C462.017 415.192 462.641 414.592 462.641 413.848ZM61.1098 439V424.408H66.8938V422.68H53.3818V424.408H59.1658V439H61.1098ZM72.8668 429.688C71.7148 428.464 70.9708 427.648 70.9708 426.448C70.9708 425.248 72.0988 424.24 73.5868 424.24C74.9308 424.24 76.1548 425.08 76.1548 426.424C76.1548 427.888 74.6908 428.92 72.8668 429.688ZM75.9868 435.64C74.9548 436.672 73.6588 437.464 72.1708 437.464C70.2028 437.464 68.7388 436.336 68.7388 434.8C68.7388 433.12 70.2028 432.184 72.0028 431.44L75.9868 435.64ZM81.6268 439L78.3387 435.52L81.5548 430.816H79.5388L77.1628 434.248L73.8508 430.72C76.0828 429.736 78.0508 428.56 78.0508 426.376C78.0508 424.384 76.4428 422.488 73.6108 422.488C70.8748 422.488 69.0028 424.264 69.0028 426.616C69.0028 428.056 69.6988 428.992 70.9948 430.384C68.8348 431.272 66.8668 432.544 66.8668 434.968C66.8668 437.464 69.1228 439.192 71.8348 439.192C73.6828 439.192 75.6748 438.16 77.1148 436.84L79.0348 438.856C79.1308 438.976 79.2748 439 79.4188 439H81.6268ZM97.2551 434.32C96.1271 436.216 94.0871 437.464 91.6871 437.464C87.9911 437.464 85.1831 434.536 85.1831 430.84C85.1831 427.144 87.9911 424.216 91.6871 424.216C94.1111 424.216 96.0551 425.464 97.1591 427.336H99.3671C98.0231 424.432 95.0951 422.488 91.6871 422.488C87.0071 422.488 83.2391 426.112 83.2391 430.912C83.2391 435.616 86.8631 439.192 91.6871 439.192C95.2631 439.192 98.1671 437.248 99.4391 434.32H97.2551ZM111.177 430.576C110.793 427.768 108.297 427 105.945 427C102.969 427 100.977 428.224 100.977 430.528C100.977 435.256 109.449 432.544 109.449 435.664C109.449 436.912 108.057 437.512 106.161 437.512C104.385 437.512 103.017 437.032 102.609 435.424H100.785C101.193 438.184 103.401 439.192 106.017 439.192C108.873 439.192 111.345 437.944 111.345 435.448C111.345 430.768 102.801 433.216 102.801 430.288C102.801 429.136 104.097 428.704 105.777 428.704C107.721 428.704 109.065 429.28 109.305 430.576H111.177ZM123.164 429.688C122.012 428.464 121.268 427.648 121.268 426.448C121.268 425.248 122.396 424.24 123.884 424.24C125.228 424.24 126.452 425.08 126.452 426.424C126.452 427.888 124.988 428.92 123.164 429.688ZM126.284 435.64C125.252 436.672 123.956 437.464 122.468 437.464C120.5 437.464 119.036 436.336 119.036 434.8C119.036 433.12 120.5 432.184 122.3 431.44L126.284 435.64ZM131.924 439L128.636 435.52L131.852 430.816H129.836L127.46 434.248L124.148 430.72C126.38 429.736 128.348 428.56 128.348 426.376C128.348 424.384 126.74 422.488 123.908 422.488C121.172 422.488 119.3 424.264 119.3 426.616C119.3 428.056 119.996 428.992 121.292 430.384C119.132 431.272 117.164 432.544 117.164 434.968C117.164 437.464 119.42 439.192 122.132 439.192C123.98 439.192 125.972 438.16 127.412 436.84L129.332 438.856C129.428 438.976 129.572 439 129.716 439H131.924ZM140.152 439V422.68H138.328V439H140.152ZM148.86 437.488C146.484 437.488 144.588 435.616 144.588 433.096C144.588 430.576 146.484 428.68 148.86 428.68C151.236 428.68 153.156 430.504 153.156 433.096C153.156 435.688 151.236 437.488 148.86 437.488ZM154.956 439V427.192H153.18V429.136C152.172 427.864 150.636 427 148.788 427C145.356 427 142.716 429.664 142.716 433.096C142.716 436.6 145.26 439.192 148.764 439.192C150.612 439.192 152.172 438.328 153.18 437.056V439H154.956ZM162.786 439V437.32H162.09C160.746 437.32 160.434 436.792 160.434 435.448V428.824H162.738V427.192H160.434V424.264H158.61V427.192H156.786V428.824H158.61V435.64C158.61 438.016 159.45 439 161.85 439H162.786ZM175.975 433.624C175.999 433.456 175.999 433.264 175.999 433.096C175.999 429.472 173.407 427 169.975 427C166.543 427 163.903 429.472 163.903 433.096C163.903 436.72 166.399 439.192 169.951 439.192C172.687 439.192 174.847 437.656 175.759 435.424H173.719C172.951 436.672 171.607 437.488 169.951 437.488C167.647 437.488 166.015 435.976 165.799 433.624H175.975ZM165.847 432.136C166.231 430.048 167.839 428.68 169.951 428.68C172.015 428.68 173.695 430.048 174.007 432.136H165.847ZM185.308 439V428.824H188.308V427.192H185.308V426.256C185.308 424.912 185.812 424.36 187.18 424.36H188.38V422.68H187.012C184.54 422.68 183.46 423.688 183.46 426.16V427.192H181.396V428.824H183.46V439H185.308ZM200.819 433.624C200.843 433.456 200.843 433.264 200.843 433.096C200.843 429.472 198.251 427 194.819 427C191.387 427 188.747 429.472 188.747 433.096C188.747 436.72 191.243 439.192 194.795 439.192C197.531 439.192 199.691 437.656 200.603 435.424H198.563C197.795 436.672 196.451 437.488 194.795 437.488C192.491 437.488 190.859 435.976 190.643 433.624H200.819ZM190.691 432.136C191.075 430.048 192.683 428.68 194.795 428.68C196.859 428.68 198.539 430.048 198.851 432.136H190.691ZM214.647 433.624C214.671 433.456 214.671 433.264 214.671 433.096C214.671 429.472 212.079 427 208.647 427C205.215 427 202.575 429.472 202.575 433.096C202.575 436.72 205.071 439.192 208.623 439.192C211.359 439.192 213.519 437.656 214.431 435.424H212.391C211.623 436.672 210.279 437.488 208.623 437.488C206.319 437.488 204.687 435.976 204.471 433.624H214.647ZM204.519 432.136C204.903 430.048 206.511 428.68 208.623 428.68C210.687 428.68 212.367 430.048 212.679 432.136H204.519ZM226.747 430.576C226.363 427.768 223.867 427 221.515 427C218.539 427 216.547 428.224 216.547 430.528C216.547 435.256 225.019 432.544 225.019 435.664C225.019 436.912 223.627 437.512 221.731 437.512C219.955 437.512 218.587 437.032 218.179 435.424H216.355C216.763 438.184 218.971 439.192 221.587 439.192C224.443 439.192 226.915 437.944 226.915 435.448C226.915 430.768 218.371 433.216 218.371 430.288C218.371 429.136 219.667 428.704 221.347 428.704C223.291 428.704 224.635 429.28 224.875 430.576H226.747ZM239.094 437.488C236.718 437.488 234.822 435.616 234.822 433.096C234.822 430.576 236.718 428.68 239.094 428.68C241.47 428.68 243.39 430.504 243.39 433.096C243.39 435.688 241.47 437.488 239.094 437.488ZM245.19 439V427.192H243.414V429.136C242.406 427.864 240.87 427 239.022 427C235.59 427 232.95 429.664 232.95 433.096C232.95 436.6 235.494 439.192 238.998 439.192C240.846 439.192 242.406 438.328 243.414 437.056V439H245.19ZM254.509 437.488C252.133 437.488 250.213 435.616 250.213 433.096C250.213 430.576 252.133 428.68 254.509 428.68C256.885 428.68 258.781 430.648 258.781 433.096C258.781 435.544 256.885 437.488 254.509 437.488ZM250.237 443.416V437.152C251.221 438.376 252.709 439.192 254.533 439.192C257.965 439.192 260.653 436.504 260.653 433.072C260.653 429.64 258.037 427 254.605 427C252.733 427 251.197 427.864 250.189 429.16V427.192H248.413V443.416H250.237ZM269.227 437.488C266.851 437.488 264.931 435.616 264.931 433.096C264.931 430.576 266.851 428.68 269.227 428.68C271.603 428.68 273.499 430.648 273.499 433.096C273.499 435.544 271.603 437.488 269.227 437.488ZM264.955 443.416V437.152C265.939 438.376 267.427 439.192 269.251 439.192C272.683 439.192 275.371 436.504 275.371 433.072C275.371 429.64 272.755 427 269.323 427C267.451 427 265.915 427.864 264.907 429.16V427.192H263.131V443.416H264.955ZM279.746 439V422.68H277.922V439H279.746ZM283.941 443.416C286.197 443.416 286.701 442.336 287.541 440.344L293.133 427.192H291.237L287.349 436.672H287.301L283.341 427.192H281.397L286.197 438.28C286.341 438.616 286.365 438.904 286.221 439.264L285.957 439.888C285.429 441.136 285.117 441.712 283.701 441.712H283.077V443.416H283.941ZM304.461 437.488C302.085 437.488 300.189 435.616 300.189 433.096C300.189 430.576 302.085 428.68 304.461 428.68C306.837 428.68 308.757 430.504 308.757 433.096C308.757 435.688 306.837 437.488 304.461 437.488ZM310.557 439V427.192H308.781V429.136C307.773 427.864 306.237 427 304.389 427C300.957 427 298.317 429.664 298.317 433.096C298.317 436.6 300.861 439.192 304.365 439.192C306.213 439.192 307.773 438.328 308.781 437.056V439H310.557ZM318.388 439V437.32H317.692C316.348 437.32 316.036 436.792 316.036 435.448V428.824H318.34V427.192H316.036V424.264H314.212V427.192H312.388V428.824H314.212V435.64C314.212 438.016 315.052 439 317.452 439H318.388ZM333.849 434.992C333.153 436.48 331.689 437.488 329.961 437.488C327.585 437.488 325.689 435.544 325.689 433.096C325.689 430.648 327.585 428.68 329.961 428.68C331.665 428.68 333.129 429.688 333.825 431.152H335.817C335.025 428.704 332.721 427 329.961 427C326.529 427 323.817 429.664 323.817 433.096C323.817 436.528 326.529 439.192 329.961 439.192C332.745 439.192 335.049 437.488 335.817 434.992H333.849ZM340.004 439V422.68H338.18V439H340.004ZM354.639 433.624C354.663 433.456 354.663 433.264 354.663 433.096C354.663 429.472 352.071 427 348.639 427C345.207 427 342.567 429.472 342.567 433.096C342.567 436.72 345.063 439.192 348.615 439.192C351.351 439.192 353.511 437.656 354.423 435.424H352.383C351.615 436.672 350.271 437.488 348.615 437.488C346.311 437.488 344.679 435.976 344.463 433.624H354.639ZM344.511 432.136C344.895 430.048 346.503 428.68 348.615 428.68C350.679 428.68 352.359 430.048 352.671 432.136H344.511ZM362.539 437.488C360.163 437.488 358.267 435.616 358.267 433.096C358.267 430.576 360.163 428.68 362.539 428.68C364.915 428.68 366.835 430.504 366.835 433.096C366.835 435.688 364.915 437.488 362.539 437.488ZM368.635 439V427.192H366.859V429.136C365.851 427.864 364.315 427 362.467 427C359.035 427 356.395 429.664 356.395 433.096C356.395 436.6 358.939 439.192 362.443 439.192C364.291 439.192 365.851 438.328 366.859 437.056V439H368.635ZM373.682 439V431.656C373.682 430.216 374.354 428.824 375.962 428.824C376.466 428.824 376.85 428.992 377.162 429.16L378.146 427.48C377.834 427.24 377.21 427 376.394 427C375.026 427 374.21 427.696 373.658 428.536V427.192H371.858V439H373.682ZM385.852 437.488C383.476 437.488 381.556 435.616 381.556 433.096C381.556 430.576 383.476 428.68 385.852 428.68C388.228 428.68 390.124 430.648 390.124 433.096C390.124 435.544 388.228 437.488 385.852 437.488ZM381.58 443.416V437.152C382.564 438.376 384.052 439.192 385.876 439.192C389.308 439.192 391.996 436.504 391.996 433.072C391.996 429.64 389.38 427 385.948 427C384.076 427 382.54 427.864 381.532 429.16V427.192H379.756V443.416H381.58ZM399.875 437.488C397.499 437.488 395.603 435.616 395.603 433.096C395.603 430.576 397.499 428.68 399.875 428.68C402.251 428.68 404.171 430.504 404.171 433.096C404.171 435.688 402.251 437.488 399.875 437.488ZM405.971 439V427.192H404.195V429.136C403.187 427.864 401.651 427 399.803 427C396.371 427 393.731 429.664 393.731 433.096C393.731 436.6 396.275 439.192 399.779 439.192C401.627 439.192 403.187 438.328 404.195 437.056V439H405.971ZM410.082 443.416C412.338 443.416 412.842 442.336 413.682 440.344L419.274 427.192H417.378L413.49 436.672H413.442L409.482 427.192H407.538L412.338 438.28C412.482 438.616 412.506 438.904 412.362 439.264L412.098 439.888C411.57 441.136 411.258 441.712 409.842 441.712H409.218V443.416H410.082ZM421.122 437.848C421.122 437.056 420.498 436.432 419.73 436.432C418.962 436.432 418.362 437.056 418.362 437.848C418.362 438.592 418.962 439.192 419.73 439.192C420.498 439.192 421.122 438.592 421.122 437.848ZM432.568 434.992C431.872 436.48 430.408 437.488 428.68 437.488C426.304 437.488 424.408 435.544 424.408 433.096C424.408 430.648 426.304 428.68 428.68 428.68C430.384 428.68 431.848 429.688 432.544 431.152H434.536C433.744 428.704 431.44 427 428.68 427C425.248 427 422.536 429.664 422.536 433.096C422.536 436.528 425.248 439.192 428.68 439.192C431.464 439.192 433.768 437.488 434.536 434.992H432.568ZM448.371 433.096C448.371 429.664 445.659 427 442.227 427C438.795 427 436.083 429.664 436.083 433.096C436.083 436.528 438.795 439.192 442.227 439.192C445.659 439.192 448.371 436.528 448.371 433.096ZM442.227 437.488C439.851 437.488 437.955 435.544 437.955 433.096C437.955 430.648 439.851 428.68 442.227 428.68C444.603 428.68 446.523 430.648 446.523 433.096C446.523 435.544 444.603 437.488 442.227 437.488ZM452.528 437.848C452.528 437.056 451.904 436.432 451.136 436.432C450.368 436.432 449.768 437.056 449.768 437.848C449.768 438.592 450.368 439.192 451.136 439.192C451.904 439.192 452.528 438.592 452.528 437.848ZM464.401 439V427.192H462.577V434.944C462.577 436.24 461.473 437.488 459.529 437.488C457.705 437.488 456.745 436.432 456.745 434.944V427.192H454.921V435.064C454.921 437.464 456.385 439.192 459.145 439.192C461.017 439.192 462.097 438.328 462.601 437.56V439H464.401ZM478.136 439L472.76 431.704L477.704 427.192H475.424L469.52 432.664H469.448V422.68H467.624V439H469.448V434.728L471.392 432.952L475.856 439H478.136ZM479.553 439.144L487.785 422.584H486.201L477.945 439.144H479.553ZM494.005 439V437.32H493.309C491.965 437.32 491.653 436.792 491.653 435.448V428.824H493.957V427.192H491.653V424.264H489.829V427.192H488.005V428.824H489.829V435.64C489.829 438.016 490.669 439 493.069 439H494.005ZM507.194 433.624C507.218 433.456 507.218 433.264 507.218 433.096C507.218 429.472 504.626 427 501.194 427C497.762 427 495.122 429.472 495.122 433.096C495.122 436.72 497.618 439.192 501.17 439.192C503.906 439.192 506.066 437.656 506.978 435.424H504.938C504.17 436.672 502.826 437.488 501.17 437.488C498.866 437.488 497.234 435.976 497.018 433.624H507.194ZM497.066 432.136C497.45 430.048 499.058 428.68 501.17 428.68C503.234 428.68 504.914 430.048 505.226 432.136H497.066ZM511.518 439V431.656C511.518 430.216 512.19 428.824 513.798 428.824C514.302 428.824 514.686 428.992 514.998 429.16L515.982 427.48C515.67 427.24 515.046 427 514.23 427C512.862 427 512.046 427.696 511.494 428.536V427.192H509.694V439H511.518ZM534.056 439V431.128C534.056 428.728 532.76 427 530 427C528.224 427 527.168 427.816 526.328 429.064C525.752 427.792 524.552 427 522.68 427C520.808 427 519.896 427.864 519.392 428.632V427.192H517.592V439H519.416V431.248C519.416 429.952 520.352 428.704 522.296 428.704C524.12 428.704 524.912 429.76 524.912 431.248V439H526.736V431.152C526.736 429.904 527.72 428.704 529.616 428.704C531.44 428.704 532.232 429.76 532.232 431.248V439H534.056ZM546.88 430.576C546.496 427.768 544 427 541.648 427C538.672 427 536.68 428.224 536.68 430.528C536.68 435.256 545.152 432.544 545.152 435.664C545.152 436.912 543.76 437.512 541.864 437.512C540.088 437.512 538.72 437.032 538.312 435.424H536.488C536.896 438.184 539.104 439.192 541.72 439.192C544.576 439.192 547.048 437.944 547.048 435.448C547.048 430.768 538.504 433.216 538.504 430.288C538.504 429.136 539.8 428.704 541.48 428.704C543.424 428.704 544.768 429.28 545.008 430.576H546.88Z" fill="white"/>
</svg>
