<svg width="1920" height="100" viewBox="0 0 1920 100" fill="none" xmlns="http://www.w3.org/2000/svg">
<rect width="1920" height="100" fill="black"/>
<path d="M707.308 79H594.712C578.694 79 565.712 66.0174 565.712 50C565.712 33.9826 578.694 21 594.712 21H707.308C723.326 21 736.308 33.9826 736.308 50C736.319 66.0069 723.326 79 707.308 79Z" fill="#B2FCE4"/>
<path d="M687.78 43.7725L679.234 61.4022H675.693L678.886 54.8161L673.87 43.7725H677.506L680.73 51.17L684.25 43.7725H687.78Z" fill="black"/>
<path d="M655.261 50.0323C655.261 48.009 653.733 46.4494 651.857 46.4494C649.982 46.4494 648.454 47.9564 648.454 50.0323C648.454 52.0872 649.982 53.6151 651.857 53.6151C653.733 53.6151 655.261 52.0556 655.261 50.0323ZM645.345 61.4026V43.7728H648.422V45.3957C649.349 44.247 650.73 43.541 652.374 43.541C655.756 43.541 658.412 46.323 658.412 50.0007C658.412 53.6784 655.704 56.4814 652.3 56.4814C650.719 56.4814 649.423 55.8597 648.517 54.8059V61.392H645.345V61.4026Z" fill="black"/>
<path d="M669.519 50.0325C669.519 47.9249 667.991 46.4496 666.115 46.4496C664.239 46.4496 662.711 47.9566 662.711 50.0325C662.711 52.0874 664.239 53.6153 666.115 53.6153C667.991 53.6153 669.519 52.1295 669.519 50.0325ZM669.54 56.2919V54.6691C668.612 55.7967 667.232 56.4922 665.588 56.4922C662.153 56.4922 659.55 53.7418 659.55 50.0325C659.55 46.3548 662.258 43.5518 665.662 43.5518C667.263 43.5518 668.612 44.2578 669.54 45.3537V43.7731H672.617V56.2919H669.54Z" fill="black"/>
<path d="M639.791 44.9952C639.791 44.9952 640.571 43.541 642.499 43.541C643.321 43.541 643.848 43.8255 643.848 43.8255V47.0185C643.848 47.0185 642.689 46.3019 641.625 46.4494C640.56 46.597 639.886 47.5665 639.886 48.8731V56.2917H636.703V43.7728H639.78V44.9952H639.791Z" fill="black"/>
<path d="M711.68 43.0665L708.034 40.98L704.335 38.8619C701.891 37.4604 698.835 39.2202 698.835 42.0443V42.5185C698.835 42.782 698.972 43.0244 699.203 43.1508L700.921 44.1308C701.395 44.4048 701.985 44.0571 701.985 43.5091V42.3816C701.985 41.8231 702.586 41.4753 703.071 41.7493L706.443 43.6882L709.804 45.6167C710.289 45.8906 710.289 46.5967 709.804 46.8707L706.443 48.7991L703.071 50.738C702.586 51.012 701.985 50.6643 701.985 50.1058V49.5473C701.985 46.7231 698.929 44.9528 696.485 46.3648L692.786 48.4829L689.14 50.5694C686.685 51.9815 686.685 55.5327 689.14 56.9448L692.786 59.0313L696.485 61.1494C698.929 62.5509 701.985 60.7911 701.985 57.9669V57.4927C701.985 57.2293 701.848 56.9869 701.617 56.8605L699.899 55.8805C699.425 55.6065 698.835 55.9542 698.835 56.5022V57.6297C698.835 58.1882 698.234 58.536 697.749 58.262L694.377 56.323L691.016 54.3946C690.531 54.1207 690.531 53.4146 691.016 53.1406L694.377 51.2122L697.749 49.2733C698.234 48.9993 698.835 49.347 698.835 49.9055V50.464C698.835 53.2882 701.891 55.0585 704.335 53.6464L708.034 51.5284L711.68 49.4419C714.135 48.0193 714.135 44.4786 711.68 43.0665Z" fill="black"/>
<path d="M601.329 51.6215C600.655 54.4984 598.178 56.4795 594.975 56.4795C591.276 56.4795 588.494 53.6975 588.494 50.0198C588.494 46.3421 591.318 43.5391 595.027 43.5391C598.157 43.5391 600.602 45.5202 601.308 48.3443H598.052C597.472 47.2168 596.323 46.4686 595.048 46.4686C593.194 46.4686 591.645 47.9965 591.645 50.0198C591.645 52.0431 593.194 53.571 595.048 53.571C596.376 53.571 597.525 52.8229 598.073 51.6215H601.329Z" fill="black"/>
<path d="M602.792 56.2805V38.6191H605.943V56.2805H602.792Z" fill="black"/>
<path d="M610.686 50.8535C610.907 52.7081 612.235 53.7514 613.91 53.7514C615.238 53.7514 616.26 53.1296 616.861 52.1285H620.085C619.337 54.7841 616.956 56.4806 613.826 56.4806C610.043 56.4806 607.398 53.8251 607.398 50.0526C607.398 46.2801 610.201 43.5508 613.9 43.5508C617.63 43.5508 620.328 46.3011 620.328 50.0526C620.328 50.3266 620.307 50.6006 620.254 50.8535H610.686V50.8535ZM616.966 48.8934C616.745 47.2706 615.417 46.2906 613.868 46.2906C612.319 46.2906 611.044 47.239 610.717 48.8934H616.966Z" fill="black"/>
<path d="M631.582 56.2792V54.6564C630.655 55.784 629.285 56.4795 627.63 56.4795C624.206 56.4795 621.603 53.7291 621.603 50.0198C621.603 46.3421 624.3 43.5391 627.704 43.5391C629.306 43.5391 630.655 44.2346 631.582 45.341V43.7604H634.659V56.2687H631.582V56.2792ZM631.55 50.0198C631.55 47.9228 630.022 46.437 628.147 46.437C626.271 46.437 624.743 47.9333 624.743 50.0198C624.743 52.0747 626.271 53.6027 628.147 53.6027C630.022 53.6027 631.55 52.1274 631.55 50.0198Z" fill="black"/>
<path d="M57.224 58.592V50.624H62.632C67.144 50.624 70.568 47.968 70.568 43.616C70.568 39.328 67.528 36.832 62.792 36.832H53V58.592H57.224ZM57.224 47.168V40.384H62.568C64.776 40.384 66.28 41.792 66.28 43.648C66.28 45.632 64.776 47.168 62.536 47.168H57.224Z" fill="white"/>
<path d="M79.8258 55.168C77.4258 55.168 75.4738 53.216 75.4738 50.592C75.4738 47.936 77.4258 46.016 79.8258 46.016C82.2258 46.016 84.1777 47.904 84.1777 50.592C84.1777 53.28 82.2258 55.168 79.8258 55.168ZM88.1458 58.592V42.592H84.2098V44.608C83.0258 43.2 81.2977 42.304 79.2498 42.304C74.8977 42.304 71.4417 45.888 71.4417 50.592C71.4417 55.328 74.7697 58.848 79.1537 58.848C81.2657 58.848 83.0258 57.952 84.2098 56.512V58.592H88.1458Z" fill="white"/>
<path d="M93.1268 64.48C97.7668 64.48 98.3107 62.56 100.263 57.6L106.215 42.592H102.183L98.0547 53.664L93.7988 42.592H89.6387L95.5908 57.504C95.7828 58.016 95.8148 58.272 95.7188 58.752C95.3988 60.416 94.3427 60.96 93.2547 60.96H91.9427V64.48H93.1268Z" fill="white"/>
<path d="M115.636 40.608C116.884 40.608 117.94 39.552 117.94 38.304C117.94 37.088 116.884 36 115.636 36C114.388 36 113.332 37.088 113.332 38.304C113.332 39.552 114.388 40.608 115.636 40.608ZM117.62 58.592V42.592H113.588V58.592H117.62Z" fill="white"/>
<path d="M128.384 58.592V55.04H127.585C126.209 55.04 125.825 54.528 125.825 53.184V46.08H128.353V42.592H125.825V38.688H121.793V42.592H119.713V46.08H121.793V53.92C121.793 57.184 123.04 58.592 126.304 58.592H128.384Z" fill="white"/>
<path d="M138.511 40.608C139.759 40.608 140.815 39.552 140.815 38.304C140.815 37.088 139.759 36 138.511 36C137.263 36 136.207 37.088 136.207 38.304C136.207 39.552 137.263 40.608 138.511 40.608ZM140.495 58.592V42.592H136.463V58.592H140.495Z" fill="white"/>
<path d="M157.691 58.592V47.904C157.691 44.48 155.676 42.304 152.252 42.304C149.852 42.304 148.379 43.648 147.803 44.608V42.592H143.868V58.592H147.932V48.608C147.932 46.976 149.212 45.92 150.876 45.92C152.476 45.92 153.66 46.88 153.66 48.64V58.592H157.691Z" fill="white"/>
<path d="M179.959 58.592V54.432H182.583V51.072H179.959V45.888H176.566L176.054 51.072H170.262L178.903 36.832H174.295L165.91 51.328V54.432H176.087V58.592H179.959Z" fill="white"/>
<path d="M192.98 40.608C194.228 40.608 195.283 39.552 195.283 38.304C195.283 37.088 194.228 36 192.98 36C191.732 36 190.676 37.088 190.676 38.304C190.676 39.552 191.732 40.608 192.98 40.608ZM194.964 58.592V42.592H190.932V58.592H194.964Z" fill="white"/>
<path d="M212.16 58.592V47.904C212.16 44.48 210.144 42.304 206.72 42.304C204.32 42.304 202.848 43.648 202.272 44.608V42.592H198.336V58.592H202.4V48.608C202.4 46.976 203.68 45.92 205.344 45.92C206.944 45.92 208.128 46.88 208.128 48.64V58.592H212.16Z" fill="white"/>
<path d="M222.697 58.592V55.04H221.897C220.521 55.04 220.137 54.528 220.137 53.184V46.08H222.665V42.592H220.137V38.688H216.105V42.592H214.025V46.08H216.105V53.92C216.105 57.184 217.353 58.592 220.617 58.592H222.697Z" fill="white"/>
<path d="M240.577 51.648C240.641 51.328 240.673 50.976 240.673 50.624C240.673 45.824 237.217 42.304 232.449 42.304C227.713 42.304 224.129 45.792 224.129 50.624C224.129 55.456 227.521 58.848 232.353 58.848C236.353 58.848 239.393 56.672 240.353 53.28H236.225C235.457 54.56 234.145 55.36 232.449 55.36C230.305 55.36 228.609 54.016 228.321 51.648H240.577ZM228.353 49.152C228.769 47.04 230.401 45.824 232.385 45.824C234.369 45.824 236.065 47.072 236.353 49.152H228.353Z" fill="white"/>
<path d="M247.182 58.592V49.12C247.182 47.488 247.982 46.208 249.518 46.208C250.062 46.208 250.509 46.368 250.893 46.592L252.878 43.072C252.334 42.624 251.534 42.304 250.51 42.304C248.846 42.304 247.693 43.168 247.053 44.16V42.592H243.117V58.592H247.182Z" fill="white"/>
<path d="M269.171 51.648C269.235 51.328 269.267 50.976 269.267 50.624C269.267 45.824 265.811 42.304 261.043 42.304C256.307 42.304 252.723 45.792 252.723 50.624C252.723 55.456 256.115 58.848 260.947 58.848C264.947 58.848 267.987 56.672 268.947 53.28H264.819C264.051 54.56 262.739 55.36 261.043 55.36C258.899 55.36 257.203 54.016 256.915 51.648H269.171ZM256.947 49.152C257.363 47.04 258.995 45.824 260.979 45.824C262.963 45.824 264.659 47.072 264.947 49.152H256.947Z" fill="white"/>
<path d="M285.503 47.424C285.119 43.84 281.919 42.304 278.303 42.304C273.663 42.304 270.943 44.416 270.943 47.488C270.943 53.92 281.823 50.688 281.823 53.92C281.823 55.072 280.511 55.744 278.431 55.744C276.447 55.744 275.199 55.2 274.655 53.6H270.719C271.167 57.472 274.431 58.848 278.239 58.848C282.527 58.848 285.823 56.896 285.823 53.504C285.823 47.008 275.007 50.144 275.007 47.072C275.007 45.952 276.319 45.44 278.047 45.44C280.031 45.44 281.279 46.08 281.695 47.424H285.503Z" fill="white"/>
<path d="M295.572 58.592V55.04H294.772C293.396 55.04 293.012 54.528 293.012 53.184V46.08H295.54V42.592H293.012V38.688H288.98V42.592H286.9V46.08H288.98V53.92C288.98 57.184 290.228 58.592 293.492 58.592H295.572Z" fill="white"/>
<path d="M305.676 51.776V48.736H297.26V51.776H305.676Z" fill="white"/>
<path d="M313.232 58.592V46.08H316.528V42.592H313.232V41.792C313.232 40.448 313.744 39.936 315.152 39.936H316.56V36.832H314.096C310.768 36.832 309.2 37.92 309.2 41.248V42.592H306.96V46.08H309.2V58.592H313.232Z" fill="white"/>
<path d="M322.244 58.592V49.12C322.244 47.488 323.044 46.208 324.58 46.208C325.124 46.208 325.572 46.368 325.956 46.592L327.94 43.072C327.396 42.624 326.596 42.304 325.572 42.304C323.908 42.304 322.756 43.168 322.116 44.16V42.592H318.18V58.592H322.244Z" fill="white"/>
<path d="M344.233 51.648C344.297 51.328 344.329 50.976 344.329 50.624C344.329 45.824 340.873 42.304 336.105 42.304C331.369 42.304 327.785 45.792 327.785 50.624C327.785 55.456 331.177 58.848 336.009 58.848C340.009 58.848 343.049 56.672 344.009 53.28H339.882C339.113 54.56 337.801 55.36 336.105 55.36C333.961 55.36 332.266 54.016 331.978 51.648H344.233ZM332.009 49.152C332.425 47.04 334.058 45.824 336.042 45.824C338.026 45.824 339.721 47.072 340.009 49.152H332.009Z" fill="white"/>
<path d="M362.39 51.648C362.454 51.328 362.486 50.976 362.486 50.624C362.486 45.824 359.03 42.304 354.262 42.304C349.526 42.304 345.942 45.792 345.942 50.624C345.942 55.456 349.334 58.848 354.166 58.848C358.166 58.848 361.206 56.672 362.166 53.28H358.038C357.27 54.56 355.958 55.36 354.262 55.36C352.118 55.36 350.422 54.016 350.134 51.648H362.39ZM350.166 49.152C350.582 47.04 352.214 45.824 354.198 45.824C356.182 45.824 357.878 47.072 358.166 49.152H350.166Z" fill="white"/>
<path d="M372.792 40.608C374.04 40.608 375.096 39.552 375.096 38.304C375.096 37.088 374.04 36 372.792 36C371.544 36 370.488 37.088 370.488 38.304C370.488 39.552 371.544 40.608 372.792 40.608ZM374.776 58.592V42.592H370.744V58.592H374.776Z" fill="white"/>
<path d="M391.973 58.592V47.904C391.973 44.48 389.957 42.304 386.533 42.304C384.133 42.304 382.661 43.648 382.085 44.608V42.592H378.149V58.592H382.213V48.608C382.213 46.976 383.493 45.92 385.157 45.92C386.757 45.92 387.941 46.88 387.941 48.64V58.592H391.973Z" fill="white"/>
<path d="M409.066 47.424C408.682 43.84 405.482 42.304 401.866 42.304C397.226 42.304 394.506 44.416 394.506 47.488C394.506 53.92 405.386 50.688 405.386 53.92C405.386 55.072 404.074 55.744 401.994 55.744C400.01 55.744 398.762 55.2 398.218 53.6H394.282C394.73 57.472 397.994 58.848 401.802 58.848C406.09 58.848 409.386 56.896 409.386 53.504C409.386 47.008 398.57 50.144 398.57 47.072C398.57 45.952 399.882 45.44 401.61 45.44C403.594 45.44 404.842 46.08 405.258 47.424H409.066Z" fill="white"/>
<path d="M419.134 58.592V55.04H418.335C416.959 55.04 416.574 54.528 416.574 53.184V46.08H419.103V42.592H416.574V38.688H412.543V42.592H410.462V46.08H412.543V53.92C412.543 57.184 413.791 58.592 417.055 58.592H419.134Z" fill="white"/>
<path d="M428.951 55.168C426.551 55.168 424.599 53.216 424.599 50.592C424.599 47.936 426.551 46.016 428.951 46.016C431.351 46.016 433.303 47.904 433.303 50.592C433.303 53.28 431.351 55.168 428.951 55.168ZM437.271 58.592V42.592H433.335V44.608C432.151 43.2 430.423 42.304 428.375 42.304C424.023 42.304 420.567 45.888 420.567 50.592C420.567 55.328 423.895 58.848 428.279 58.848C430.391 58.848 432.151 57.952 433.335 56.512V58.592H437.271Z" fill="white"/>
<path d="M444.652 58.592V36.832H440.62V58.592H444.652Z" fill="white"/>
<path d="M470.903 58.592V47.872C470.903 44.448 468.983 42.304 465.527 42.304C462.775 42.304 461.591 44.064 460.759 44.896C460.023 43.264 458.519 42.304 456.247 42.304C453.847 42.304 452.567 43.584 451.991 44.544V42.592H448.055V58.592H452.119V48.544C452.119 46.944 453.271 45.952 454.871 45.952C456.407 45.952 457.463 46.848 457.463 48.608V58.592H461.495V48.48C461.495 46.912 462.711 45.952 464.279 45.952C465.815 45.952 466.839 46.848 466.839 48.608V58.592H470.903Z" fill="white"/>
<path d="M489.796 51.648C489.86 51.328 489.892 50.976 489.892 50.624C489.892 45.824 486.436 42.304 481.668 42.304C476.932 42.304 473.348 45.792 473.348 50.624C473.348 55.456 476.74 58.848 481.572 58.848C485.572 58.848 488.612 56.672 489.572 53.28H485.444C484.676 54.56 483.364 55.36 481.668 55.36C479.524 55.36 477.828 54.016 477.54 51.648H489.796ZM477.572 49.152C477.988 47.04 479.62 45.824 481.604 45.824C483.588 45.824 485.284 47.072 485.572 49.152H477.572Z" fill="white"/>
<path d="M506.16 58.592V47.904C506.16 44.48 504.144 42.304 500.72 42.304C498.32 42.304 496.848 43.648 496.272 44.608V42.592H492.336V58.592H496.4V48.608C496.4 46.976 497.68 45.92 499.344 45.92C500.944 45.92 502.128 46.88 502.128 48.64V58.592H506.16Z" fill="white"/>
<path d="M516.697 58.592V55.04H515.897C514.521 55.04 514.137 54.528 514.137 53.184V46.08H516.665V42.592H514.137V38.688H510.105V42.592H508.025V46.08H510.105V53.92C510.105 57.184 511.353 58.592 514.617 58.592H516.697Z" fill="white"/>
<path d="M532.753 47.424C532.369 43.84 529.169 42.304 525.553 42.304C520.913 42.304 518.193 44.416 518.193 47.488C518.193 53.92 529.073 50.688 529.073 53.92C529.073 55.072 527.761 55.744 525.681 55.744C523.697 55.744 522.449 55.2 521.905 53.6H517.969C518.417 57.472 521.681 58.848 525.489 58.848C529.777 58.848 533.073 56.896 533.073 53.504C533.073 47.008 522.257 50.144 522.257 47.072C522.257 45.952 523.569 45.44 525.297 45.44C527.281 45.44 528.529 46.08 528.945 47.424H532.753Z" fill="white"/>
<path d="M539.43 56.448C539.43 55.104 538.342 54.016 536.998 54.016C535.686 54.016 534.63 55.104 534.63 56.448C534.63 57.76 535.686 58.816 536.998 58.816C538.342 58.816 539.43 57.76 539.43 56.448Z" fill="white"/>
<path d="M1274.94 22.345C1273.58 24.636 1271.11 26.144 1268.21 26.144C1263.75 26.144 1260.35 22.606 1260.35 18.14C1260.35 13.674 1263.75 10.136 1268.21 10.136C1271.14 10.136 1273.49 11.644 1274.82 13.906H1277.49C1275.87 10.397 1272.33 8.048 1268.21 8.048C1262.56 8.048 1258 12.427 1258 18.227C1258 23.911 1262.38 28.232 1268.21 28.232C1272.53 28.232 1276.04 25.883 1277.58 22.345H1274.94ZM1282.45 28V8.28H1280.25V28H1282.45ZM1300.14 21.504C1300.17 21.301 1300.17 21.069 1300.17 20.866C1300.17 16.487 1297.03 13.5 1292.89 13.5C1288.74 13.5 1285.55 16.487 1285.55 20.866C1285.55 25.245 1288.57 28.232 1292.86 28.232C1296.16 28.232 1298.77 26.376 1299.88 23.679H1297.41C1296.48 25.187 1294.86 26.173 1292.86 26.173C1290.07 26.173 1288.1 24.346 1287.84 21.504H1300.14ZM1287.9 19.706C1288.36 17.183 1290.31 15.53 1292.86 15.53C1295.35 15.53 1297.38 17.183 1297.76 19.706H1287.9ZM1309.68 26.173C1306.81 26.173 1304.52 23.911 1304.52 20.866C1304.52 17.821 1306.81 15.53 1309.68 15.53C1312.55 15.53 1314.87 17.734 1314.87 20.866C1314.87 23.998 1312.55 26.173 1309.68 26.173ZM1317.05 28V13.732H1314.9V16.081C1313.68 14.544 1311.83 13.5 1309.6 13.5C1305.45 13.5 1302.26 16.719 1302.26 20.866C1302.26 25.1 1305.33 28.232 1309.57 28.232C1311.8 28.232 1313.68 27.188 1314.9 25.651V28H1317.05ZM1323.15 28V19.126C1323.15 17.386 1323.96 15.704 1325.9 15.704C1326.51 15.704 1326.98 15.907 1327.35 16.11L1328.54 14.08C1328.16 13.79 1327.41 13.5 1326.42 13.5C1324.77 13.5 1323.79 14.341 1323.12 15.356V13.732H1320.94V28H1323.15ZM1337.85 26.173C1334.98 26.173 1332.66 23.911 1332.66 20.866C1332.66 17.821 1334.98 15.53 1337.85 15.53C1340.72 15.53 1343.01 17.908 1343.01 20.866C1343.01 23.824 1340.72 26.173 1337.85 26.173ZM1332.69 33.336V25.767C1333.88 27.246 1335.68 28.232 1337.88 28.232C1342.03 28.232 1345.28 24.984 1345.28 20.837C1345.28 16.69 1342.12 13.5 1337.97 13.5C1335.71 13.5 1333.85 14.544 1332.63 16.11V13.732H1330.49V33.336H1332.69ZM1354.8 26.173C1351.93 26.173 1349.64 23.911 1349.64 20.866C1349.64 17.821 1351.93 15.53 1354.8 15.53C1357.67 15.53 1359.99 17.734 1359.99 20.866C1359.99 23.998 1357.67 26.173 1354.8 26.173ZM1362.16 28V13.732H1360.02V16.081C1358.8 14.544 1356.94 13.5 1354.71 13.5C1350.56 13.5 1347.37 16.719 1347.37 20.866C1347.37 25.1 1350.45 28.232 1354.68 28.232C1356.91 28.232 1358.8 27.188 1360.02 25.651V28H1362.16ZM1367.13 33.336C1369.86 33.336 1370.47 32.031 1371.48 29.624L1378.24 13.732H1375.95L1371.25 25.187H1371.19L1366.41 13.732H1364.06L1369.86 27.13C1370.03 27.536 1370.06 27.884 1369.89 28.319L1369.57 29.073C1368.93 30.581 1368.55 31.277 1366.84 31.277H1366.09V33.336H1367.13ZM1386.59 11.064C1387.4 11.064 1388.1 10.397 1388.1 9.556C1388.1 8.744 1387.4 8.048 1386.59 8.048C1385.75 8.048 1385.08 8.744 1385.08 9.556C1385.08 10.397 1385.75 11.064 1386.59 11.064ZM1387.69 28V13.732H1385.49V28H1387.69ZM1403.29 17.821C1402.82 14.428 1399.81 13.5 1396.97 13.5C1393.37 13.5 1390.96 14.979 1390.96 17.763C1390.96 23.476 1401.2 20.199 1401.2 23.969C1401.2 25.477 1399.52 26.202 1397.23 26.202C1395.08 26.202 1393.43 25.622 1392.93 23.679H1390.73C1391.22 27.014 1393.89 28.232 1397.05 28.232C1400.5 28.232 1403.49 26.724 1403.49 23.708C1403.49 18.053 1393.17 21.011 1393.17 17.473C1393.17 16.081 1394.73 15.559 1396.76 15.559C1399.11 15.559 1400.74 16.255 1401.03 17.821H1403.29ZM1423.14 28V13.732H1420.93V23.099C1420.93 24.665 1419.6 26.173 1417.25 26.173C1415.05 26.173 1413.89 24.897 1413.89 23.099V13.732H1411.68V23.244C1411.68 26.144 1413.45 28.232 1416.79 28.232C1419.05 28.232 1420.35 27.188 1420.96 26.26V28H1423.14ZM1438.49 28V18.575C1438.49 15.675 1436.72 13.5 1433.38 13.5C1431.12 13.5 1429.81 14.631 1429.21 15.559V13.732H1427.03V28H1429.23V18.72C1429.23 17.154 1430.57 15.559 1432.92 15.559C1435.12 15.559 1436.28 16.922 1436.28 18.72V28H1438.49ZM1444.58 28V19.126C1444.58 17.386 1445.4 15.704 1447.34 15.704C1447.95 15.704 1448.41 15.907 1448.79 16.11L1449.98 14.08C1449.6 13.79 1448.85 13.5 1447.86 13.5C1446.21 13.5 1445.22 14.341 1444.56 15.356V13.732H1442.38V28H1444.58ZM1465.05 21.504C1465.08 21.301 1465.08 21.069 1465.08 20.866C1465.08 16.487 1461.94 13.5 1457.8 13.5C1453.65 13.5 1450.46 16.487 1450.46 20.866C1450.46 25.245 1453.48 28.232 1457.77 28.232C1461.07 28.232 1463.68 26.376 1464.79 23.679H1462.32C1461.39 25.187 1459.77 26.173 1457.77 26.173C1454.98 26.173 1453.01 24.346 1452.75 21.504H1465.05ZM1452.81 19.706C1453.27 17.183 1455.22 15.53 1457.77 15.53C1460.26 15.53 1462.29 17.183 1462.67 19.706H1452.81ZM1476.33 33.336C1479.9 33.336 1481.96 31.364 1481.96 27.768V13.732H1479.81V16.11C1478.59 14.573 1476.8 13.5 1474.56 13.5C1470.42 13.5 1467.17 16.719 1467.17 20.866C1467.17 25.013 1470.42 28.232 1474.56 28.232C1476.74 28.232 1478.54 27.188 1479.75 25.709V27.652C1479.75 30.262 1478.42 31.277 1476.04 31.277H1474.1V33.336H1476.33ZM1474.59 26.173C1471.72 26.173 1469.43 23.824 1469.43 20.866C1469.43 17.908 1471.72 15.53 1474.59 15.53C1477.46 15.53 1479.78 17.821 1479.78 20.866C1479.78 23.911 1477.46 26.173 1474.59 26.173ZM1497.31 28V13.732H1495.1V23.099C1495.1 24.665 1493.77 26.173 1491.42 26.173C1489.22 26.173 1488.06 24.897 1488.06 23.099V13.732H1485.85V23.244C1485.85 26.144 1487.62 28.232 1490.96 28.232C1493.22 28.232 1494.52 27.188 1495.13 26.26V28H1497.31ZM1503.49 28V8.28H1501.29V28H1503.49ZM1514.01 26.173C1511.14 26.173 1508.85 23.911 1508.85 20.866C1508.85 17.821 1511.14 15.53 1514.01 15.53C1516.88 15.53 1519.2 17.734 1519.2 20.866C1519.2 23.998 1516.88 26.173 1514.01 26.173ZM1521.38 28V13.732H1519.23V16.081C1518.02 14.544 1516.16 13.5 1513.93 13.5C1509.78 13.5 1506.59 16.719 1506.59 20.866C1506.59 25.1 1509.66 28.232 1513.9 28.232C1516.13 28.232 1518.02 27.188 1519.23 25.651V28H1521.38ZM1530.84 28V25.97H1530C1528.38 25.97 1528 25.332 1528 23.708V15.704H1530.78V13.732H1528V10.194H1525.8V13.732H1523.59V15.704H1525.8V23.94C1525.8 26.811 1526.81 28 1529.71 28H1530.84ZM1546.78 21.504C1546.81 21.301 1546.81 21.069 1546.81 20.866C1546.81 16.487 1543.68 13.5 1539.53 13.5C1535.38 13.5 1532.19 16.487 1532.19 20.866C1532.19 25.245 1535.21 28.232 1539.5 28.232C1542.81 28.232 1545.42 26.376 1546.52 23.679H1544.05C1543.12 25.187 1541.5 26.173 1539.5 26.173C1536.72 26.173 1534.74 24.346 1534.48 21.504H1546.78ZM1534.54 19.706C1535 17.183 1536.95 15.53 1539.5 15.53C1541.99 15.53 1544.02 17.183 1544.4 19.706H1534.54ZM1556.32 26.173C1553.45 26.173 1551.16 23.824 1551.16 20.866C1551.16 17.908 1553.45 15.53 1556.32 15.53C1559.2 15.53 1561.52 17.821 1561.52 20.866C1561.52 23.911 1559.2 26.173 1556.32 26.173ZM1563.69 28V8.28H1561.49V16.023C1560.27 14.515 1558.47 13.5 1556.3 13.5C1552.15 13.5 1548.9 16.719 1548.9 20.866C1548.9 25.013 1552.15 28.232 1556.3 28.232C1558.53 28.232 1560.33 27.159 1561.54 25.622V28H1563.69ZM1584.02 23.157C1583.18 24.955 1581.41 26.173 1579.32 26.173C1576.45 26.173 1574.16 23.824 1574.16 20.866C1574.16 17.908 1576.45 15.53 1579.32 15.53C1581.38 15.53 1583.15 16.748 1583.99 18.517H1586.4C1585.44 15.559 1582.66 13.5 1579.32 13.5C1575.17 13.5 1571.9 16.719 1571.9 20.866C1571.9 25.013 1575.17 28.232 1579.32 28.232C1582.68 28.232 1585.47 26.173 1586.4 23.157H1584.02ZM1591.37 28V19.126C1591.37 17.386 1592.18 15.704 1594.12 15.704C1594.73 15.704 1595.2 15.907 1595.57 16.11L1596.76 14.08C1596.39 13.79 1595.63 13.5 1594.65 13.5C1592.99 13.5 1592.01 14.341 1591.34 15.356V13.732H1589.16V28H1591.37ZM1611.83 21.504C1611.86 21.301 1611.86 21.069 1611.86 20.866C1611.86 16.487 1608.73 13.5 1604.58 13.5C1600.43 13.5 1597.24 16.487 1597.24 20.866C1597.24 25.245 1600.26 28.232 1604.55 28.232C1607.86 28.232 1610.47 26.376 1611.57 23.679H1609.1C1608.18 25.187 1606.55 26.173 1604.55 26.173C1601.77 26.173 1599.8 24.346 1599.53 21.504H1611.83ZM1599.59 19.706C1600.06 17.183 1602 15.53 1604.55 15.53C1607.05 15.53 1609.08 17.183 1609.45 19.706H1599.59ZM1621.38 26.173C1618.51 26.173 1616.21 23.824 1616.21 20.866C1616.21 17.908 1618.51 15.53 1621.38 15.53C1624.25 15.53 1626.57 17.821 1626.57 20.866C1626.57 23.911 1624.25 26.173 1621.38 26.173ZM1628.74 28V8.28H1626.54V16.023C1625.32 14.515 1623.52 13.5 1621.35 13.5C1617.2 13.5 1613.95 16.719 1613.95 20.866C1613.95 25.013 1617.2 28.232 1621.35 28.232C1623.58 28.232 1625.38 27.159 1626.6 25.622V28H1628.74ZM1633.83 11.064C1634.64 11.064 1635.33 10.397 1635.33 9.556C1635.33 8.744 1634.64 8.048 1633.83 8.048C1632.98 8.048 1632.32 8.744 1632.32 9.556C1632.32 10.397 1632.98 11.064 1633.83 11.064ZM1634.93 28V13.732H1632.72V28H1634.93ZM1644.49 28V25.97H1643.65C1642.03 25.97 1641.65 25.332 1641.65 23.708V15.704H1644.43V13.732H1641.65V10.194H1639.45V13.732H1637.24V15.704H1639.45V23.94C1639.45 26.811 1640.46 28 1643.36 28H1644.49ZM1649.34 26.608C1649.34 25.651 1648.59 24.897 1647.66 24.897C1646.73 24.897 1646.01 25.651 1646.01 26.608C1646.01 27.507 1646.73 28.232 1647.66 28.232C1648.59 28.232 1649.34 27.507 1649.34 26.608ZM1670.7 19.88C1670.7 23.824 1668.41 26.144 1665.3 26.144C1662.2 26.144 1659.91 23.824 1659.91 19.88V8.28H1657.59V20.025C1657.59 25.187 1660.84 28.232 1665.3 28.232C1669.77 28.232 1673.02 25.187 1673.02 20.025V8.28H1670.7V19.88ZM1688.64 17.821C1688.18 14.428 1685.16 13.5 1682.32 13.5C1678.72 13.5 1676.32 14.979 1676.32 17.763C1676.32 23.476 1686.55 20.199 1686.55 23.969C1686.55 25.477 1684.87 26.202 1682.58 26.202C1680.44 26.202 1678.78 25.622 1678.29 23.679H1676.09C1676.58 27.014 1679.25 28.232 1682.41 28.232C1685.86 28.232 1688.85 26.724 1688.85 23.708C1688.85 18.053 1678.52 21.011 1678.52 17.473C1678.52 16.081 1680.09 15.559 1682.12 15.559C1684.47 15.559 1686.09 16.255 1686.38 17.821H1688.64ZM1705.51 21.504C1705.54 21.301 1705.54 21.069 1705.54 20.866C1705.54 16.487 1702.41 13.5 1698.26 13.5C1694.12 13.5 1690.93 16.487 1690.93 20.866C1690.93 25.245 1693.94 28.232 1698.23 28.232C1701.54 28.232 1704.15 26.376 1705.25 23.679H1702.79C1701.86 25.187 1700.24 26.173 1698.23 26.173C1695.45 26.173 1693.48 24.346 1693.22 21.504H1705.51ZM1693.28 19.706C1693.74 17.183 1695.68 15.53 1698.23 15.53C1700.73 15.53 1702.76 17.183 1703.14 19.706H1693.28ZM1715.95 28V19.126C1715.95 17.386 1716.76 15.704 1718.7 15.704C1719.31 15.704 1719.78 15.907 1720.15 16.11L1721.34 14.08C1720.97 13.79 1720.21 13.5 1719.23 13.5C1717.57 13.5 1716.59 14.341 1715.92 15.356V13.732H1713.75V28H1715.95ZM1736.41 21.504C1736.44 21.301 1736.44 21.069 1736.44 20.866C1736.44 16.487 1733.31 13.5 1729.16 13.5C1725.01 13.5 1721.82 16.487 1721.82 20.866C1721.82 25.245 1724.84 28.232 1729.13 28.232C1732.44 28.232 1735.05 26.376 1736.15 23.679H1733.69C1732.76 25.187 1731.13 26.173 1729.13 26.173C1726.35 26.173 1724.38 24.346 1724.12 21.504H1736.41ZM1724.17 19.706C1724.64 17.183 1726.58 15.53 1729.13 15.53C1731.63 15.53 1733.66 17.183 1734.03 19.706H1724.17ZM1751.03 17.821C1750.57 14.428 1747.55 13.5 1744.71 13.5C1741.11 13.5 1738.71 14.979 1738.71 17.763C1738.71 23.476 1748.94 20.199 1748.94 23.969C1748.94 25.477 1747.26 26.202 1744.97 26.202C1742.83 26.202 1741.17 25.622 1740.68 23.679H1738.48C1738.97 27.014 1741.64 28.232 1744.8 28.232C1748.25 28.232 1751.24 26.724 1751.24 23.708C1751.24 18.053 1740.91 21.011 1740.91 17.473C1740.91 16.081 1742.48 15.559 1744.51 15.559C1746.86 15.559 1748.48 16.255 1748.77 17.821H1751.03ZM1761.58 26.173C1758.71 26.173 1756.39 23.911 1756.39 20.866C1756.39 17.821 1758.71 15.53 1761.58 15.53C1764.45 15.53 1766.74 17.908 1766.74 20.866C1766.74 23.824 1764.45 26.173 1761.58 26.173ZM1756.42 33.336V25.767C1757.61 27.246 1759.41 28.232 1761.61 28.232C1765.76 28.232 1769.01 24.984 1769.01 20.837C1769.01 16.69 1765.84 13.5 1761.7 13.5C1759.44 13.5 1757.58 14.544 1756.36 16.11V13.732H1754.22V33.336H1756.42ZM1785.95 20.866C1785.95 16.719 1782.67 13.5 1778.53 13.5C1774.38 13.5 1771.1 16.719 1771.1 20.866C1771.1 25.013 1774.38 28.232 1778.53 28.232C1782.67 28.232 1785.95 25.013 1785.95 20.866ZM1778.53 26.173C1775.65 26.173 1773.36 23.824 1773.36 20.866C1773.36 17.908 1775.65 15.53 1778.53 15.53C1781.4 15.53 1783.72 17.908 1783.72 20.866C1783.72 23.824 1781.4 26.173 1778.53 26.173ZM1800.39 28V18.575C1800.39 15.675 1798.62 13.5 1795.29 13.5C1793.03 13.5 1791.72 14.631 1791.11 15.559V13.732H1788.94V28H1791.14V18.72C1791.14 17.154 1792.47 15.559 1794.82 15.559C1797.03 15.559 1798.19 16.922 1798.19 18.72V28H1800.39ZM1815.89 17.821C1815.42 14.428 1812.41 13.5 1809.56 13.5C1805.97 13.5 1803.56 14.979 1803.56 17.763C1803.56 23.476 1813.8 20.199 1813.8 23.969C1813.8 25.477 1812.12 26.202 1809.82 26.202C1807.68 26.202 1806.03 25.622 1805.53 23.679H1803.33C1803.82 27.014 1806.49 28.232 1809.65 28.232C1813.1 28.232 1816.09 26.724 1816.09 23.708C1816.09 18.053 1805.76 21.011 1805.76 17.473C1805.76 16.081 1807.33 15.559 1809.36 15.559C1811.71 15.559 1813.33 16.255 1813.62 17.821H1815.89ZM1820.26 11.064C1821.07 11.064 1821.77 10.397 1821.77 9.556C1821.77 8.744 1821.07 8.048 1820.26 8.048C1819.42 8.048 1818.75 8.744 1818.75 9.556C1818.75 10.397 1819.42 11.064 1820.26 11.064ZM1821.36 28V13.732H1819.16V28H1821.36ZM1827.5 28V25.622C1828.69 27.159 1830.52 28.232 1832.75 28.232C1836.9 28.232 1840.15 24.984 1840.15 20.837C1840.15 16.69 1837.01 13.5 1832.87 13.5C1830.63 13.5 1828.78 14.573 1827.56 16.081V8.28H1825.36V28H1827.5ZM1832.72 26.173C1829.85 26.173 1827.53 23.911 1827.53 20.866C1827.53 17.821 1829.85 15.53 1832.72 15.53C1835.59 15.53 1837.88 17.908 1837.88 20.866C1837.88 23.824 1835.59 26.173 1832.72 26.173ZM1845.43 28V8.28H1843.23V28H1845.43ZM1850.5 33.336C1853.23 33.336 1853.84 32.031 1854.85 29.624L1861.61 13.732H1859.32L1854.62 25.187H1854.56L1849.78 13.732H1847.43L1853.23 27.13C1853.4 27.536 1853.43 27.884 1853.26 28.319L1852.94 29.073C1852.3 30.581 1851.92 31.277 1850.21 31.277H1849.46V33.336H1850.5ZM1863.84 26.608C1863.84 25.651 1863.09 24.897 1862.16 24.897C1861.23 24.897 1860.51 25.651 1860.51 26.608C1860.51 27.507 1861.23 28.232 1862.16 28.232C1863.09 28.232 1863.84 27.507 1863.84 26.608ZM1368.62 57V39.368H1375.61V37.28H1359.28V39.368H1366.27V57H1368.62ZM1382.82 45.748C1381.43 44.269 1380.53 43.283 1380.53 41.833C1380.53 40.383 1381.9 39.165 1383.69 39.165C1385.32 39.165 1386.8 40.18 1386.8 41.804C1386.8 43.573 1385.03 44.82 1382.82 45.748ZM1386.59 52.94C1385.35 54.187 1383.78 55.144 1381.98 55.144C1379.61 55.144 1377.84 53.781 1377.84 51.925C1377.84 49.895 1379.61 48.764 1381.78 47.865L1386.59 52.94ZM1393.41 57L1389.44 52.795L1393.32 47.111H1390.89L1388.02 51.258L1384.01 46.995C1386.71 45.806 1389.09 44.385 1389.09 41.746C1389.09 39.339 1387.15 37.048 1383.72 37.048C1380.42 37.048 1378.16 39.194 1378.16 42.036C1378.16 43.776 1379 44.907 1380.56 46.589C1377.95 47.662 1375.57 49.199 1375.57 52.128C1375.57 55.144 1378.3 57.232 1381.58 57.232C1383.81 57.232 1386.22 55.985 1387.96 54.39L1390.28 56.826C1390.39 56.971 1390.57 57 1390.74 57H1393.41ZM1412.29 51.345C1410.93 53.636 1408.47 55.144 1405.57 55.144C1401.1 55.144 1397.71 51.606 1397.71 47.14C1397.71 42.674 1401.1 39.136 1405.57 39.136C1408.49 39.136 1410.84 40.644 1412.18 42.906H1414.85C1413.22 39.397 1409.68 37.048 1405.57 37.048C1399.91 37.048 1395.36 41.427 1395.36 47.227C1395.36 52.911 1399.74 57.232 1405.57 57.232C1409.89 57.232 1413.4 54.883 1414.93 51.345H1412.29ZM1429.12 46.821C1428.65 43.428 1425.64 42.5 1422.79 42.5C1419.2 42.5 1416.79 43.979 1416.79 46.763C1416.79 52.476 1427.03 49.199 1427.03 52.969C1427.03 54.477 1425.35 55.202 1423.05 55.202C1420.91 55.202 1419.26 54.622 1418.76 52.679H1416.56C1417.05 56.014 1419.72 57.232 1422.88 57.232C1426.33 57.232 1429.32 55.724 1429.32 52.708C1429.32 47.053 1418.99 50.011 1418.99 46.473C1418.99 45.081 1420.56 44.559 1422.59 44.559C1424.94 44.559 1426.56 45.255 1426.85 46.821H1429.12ZM1443.6 45.748C1442.21 44.269 1441.31 43.283 1441.31 41.833C1441.31 40.383 1442.67 39.165 1444.47 39.165C1446.09 39.165 1447.57 40.18 1447.57 41.804C1447.57 43.573 1445.8 44.82 1443.6 45.748ZM1447.37 52.94C1446.12 54.187 1444.56 55.144 1442.76 55.144C1440.38 55.144 1438.61 53.781 1438.61 51.925C1438.61 49.895 1440.38 48.764 1442.56 47.865L1447.37 52.94ZM1454.18 57L1450.21 52.795L1454.1 47.111H1451.66L1448.79 51.258L1444.79 46.995C1447.49 45.806 1449.86 44.385 1449.86 41.746C1449.86 39.339 1447.92 37.048 1444.5 37.048C1441.19 37.048 1438.93 39.194 1438.93 42.036C1438.93 43.776 1439.77 44.907 1441.34 46.589C1438.73 47.662 1436.35 49.199 1436.35 52.128C1436.35 55.144 1439.08 57.232 1442.35 57.232C1444.59 57.232 1446.99 55.985 1448.73 54.39L1451.05 56.826C1451.17 56.971 1451.34 57 1451.52 57H1454.18ZM1464.13 57V37.28H1461.92V57H1464.13ZM1474.65 55.173C1471.78 55.173 1469.49 52.911 1469.49 49.866C1469.49 46.821 1471.78 44.53 1474.65 44.53C1477.52 44.53 1479.84 46.734 1479.84 49.866C1479.84 52.998 1477.52 55.173 1474.65 55.173ZM1482.01 57V42.732H1479.87V45.081C1478.65 43.544 1476.79 42.5 1474.56 42.5C1470.41 42.5 1467.22 45.719 1467.22 49.866C1467.22 54.1 1470.3 57.232 1474.53 57.232C1476.77 57.232 1478.65 56.188 1479.87 54.651V57H1482.01ZM1491.48 57V54.97H1490.64C1489.01 54.97 1488.63 54.332 1488.63 52.708V44.704H1491.42V42.732H1488.63V39.194H1486.43V42.732H1484.23V44.704H1486.43V52.94C1486.43 55.811 1487.45 57 1490.35 57H1491.48ZM1507.41 50.504C1507.44 50.301 1507.44 50.069 1507.44 49.866C1507.44 45.487 1504.31 42.5 1500.16 42.5C1496.02 42.5 1492.83 45.487 1492.83 49.866C1492.83 54.245 1495.84 57.232 1500.13 57.232C1503.44 57.232 1506.05 55.376 1507.15 52.679H1504.69C1503.76 54.187 1502.14 55.173 1500.13 55.173C1497.35 55.173 1495.38 53.346 1495.12 50.504H1507.41ZM1495.18 48.706C1495.64 46.183 1497.58 44.53 1500.13 44.53C1502.63 44.53 1504.66 46.183 1505.04 48.706H1495.18ZM1518.69 57V44.704H1522.32V42.732H1518.69V41.601C1518.69 39.977 1519.3 39.31 1520.95 39.31H1522.4V37.28H1520.75C1517.76 37.28 1516.46 38.498 1516.46 41.485V42.732H1513.96V44.704H1516.46V57H1518.69ZM1537.43 50.504C1537.46 50.301 1537.46 50.069 1537.46 49.866C1537.46 45.487 1534.33 42.5 1530.18 42.5C1526.04 42.5 1522.85 45.487 1522.85 49.866C1522.85 54.245 1525.86 57.232 1530.15 57.232C1533.46 57.232 1536.07 55.376 1537.17 52.679H1534.71C1533.78 54.187 1532.15 55.173 1530.15 55.173C1527.37 55.173 1525.4 53.346 1525.14 50.504H1537.43ZM1525.19 48.706C1525.66 46.183 1527.6 44.53 1530.15 44.53C1532.65 44.53 1534.68 46.183 1535.05 48.706H1525.19ZM1554.14 50.504C1554.17 50.301 1554.17 50.069 1554.17 49.866C1554.17 45.487 1551.04 42.5 1546.89 42.5C1542.74 42.5 1539.55 45.487 1539.55 49.866C1539.55 54.245 1542.57 57.232 1546.86 57.232C1550.17 57.232 1552.78 55.376 1553.88 52.679H1551.42C1550.49 54.187 1548.86 55.173 1546.86 55.173C1544.08 55.173 1542.11 53.346 1541.85 50.504H1554.14ZM1541.9 48.706C1542.37 46.183 1544.31 44.53 1546.86 44.53C1549.36 44.53 1551.39 46.183 1551.76 48.706H1541.9ZM1568.76 46.821C1568.3 43.428 1565.28 42.5 1562.44 42.5C1558.84 42.5 1556.44 43.979 1556.44 46.763C1556.44 52.476 1566.67 49.199 1566.67 52.969C1566.67 54.477 1564.99 55.202 1562.7 55.202C1560.56 55.202 1558.9 54.622 1558.41 52.679H1556.21C1556.7 56.014 1559.37 57.232 1562.53 57.232C1565.98 57.232 1568.97 55.724 1568.97 52.708C1568.97 47.053 1558.64 50.011 1558.64 46.473C1558.64 45.081 1560.21 44.559 1562.24 44.559C1564.59 44.559 1566.21 45.255 1566.5 46.821H1568.76ZM1588.61 57V42.732H1586.41V52.099C1586.41 53.665 1585.07 55.173 1582.72 55.173C1580.52 55.173 1579.36 53.897 1579.36 52.099V42.732H1577.16V52.244C1577.16 55.144 1578.93 57.232 1582.26 57.232C1584.52 57.232 1585.83 56.188 1586.44 55.26V57H1588.61ZM1599.87 55.173C1597 55.173 1594.68 52.911 1594.68 49.866C1594.68 46.821 1597 44.53 1599.87 44.53C1602.74 44.53 1605.03 46.908 1605.03 49.866C1605.03 52.824 1602.74 55.173 1599.87 55.173ZM1594.71 62.336V54.767C1595.9 56.246 1597.7 57.232 1599.9 57.232C1604.05 57.232 1607.3 53.984 1607.3 49.837C1607.3 45.69 1604.14 42.5 1599.99 42.5C1597.73 42.5 1595.87 43.544 1594.65 45.11V42.732H1592.51V62.336H1594.71ZM1621.07 57V54.97H1620.23C1618.61 54.97 1618.23 54.332 1618.23 52.708V44.704H1621.01V42.732H1618.23V39.194H1616.02V42.732H1613.82V44.704H1616.02V52.94C1616.02 55.811 1617.04 57 1619.94 57H1621.07ZM1637.27 49.866C1637.27 45.719 1633.99 42.5 1629.84 42.5C1625.7 42.5 1622.42 45.719 1622.42 49.866C1622.42 54.013 1625.7 57.232 1629.84 57.232C1633.99 57.232 1637.27 54.013 1637.27 49.866ZM1629.84 55.173C1626.97 55.173 1624.68 52.824 1624.68 49.866C1624.68 46.908 1626.97 44.53 1629.84 44.53C1632.71 44.53 1635.03 46.908 1635.03 49.866C1635.03 52.824 1632.71 55.173 1629.84 55.173ZM1658.49 57V54.941H1648.19C1648.86 54.419 1649.61 53.346 1649.61 50.852V47.923H1657.15V45.922H1649.61V42.703C1649.61 40.963 1650.48 39.223 1653.09 39.223C1655.12 39.223 1656.54 40.151 1657.18 40.76L1658.66 39.107C1657.62 38.034 1655.88 37.048 1653.38 37.048C1649.24 37.048 1647.44 39.339 1647.44 42.732V45.922H1644.77V47.923H1647.44V50.533C1647.44 53.375 1646.83 54.854 1644.77 55.057V57H1658.49ZM1674.58 57V54.912H1664.05L1671.51 48.242C1673.62 46.328 1674.35 44.646 1674.35 42.819C1674.35 39.281 1671.45 37.048 1667.62 37.048C1663.04 37.048 1660.78 40.093 1660.78 43.515H1663.04C1663.04 41.311 1664.32 39.223 1667.42 39.223C1669.97 39.223 1671.86 40.702 1671.86 42.877C1671.86 44.066 1671.33 45.458 1669.56 47.053L1660.75 54.999V57H1674.58ZM1688.36 57V53.085H1691.44V51.113H1688.36V46.328H1686.33L1686.13 51.113H1679.37L1688.19 37.28H1685.55L1676.88 51.345V53.085H1686.16V57H1688.36ZM1706.95 55.173C1704.08 55.173 1701.76 52.911 1701.76 49.866C1701.76 46.821 1704.08 44.53 1706.95 44.53C1709.82 44.53 1712.11 46.908 1712.11 49.866C1712.11 52.824 1709.82 55.173 1706.95 55.173ZM1701.79 62.336V54.767C1702.98 56.246 1704.78 57.232 1706.98 57.232C1711.13 57.232 1714.38 53.984 1714.38 49.837C1714.38 45.69 1711.21 42.5 1707.07 42.5C1704.81 42.5 1702.95 43.544 1701.73 45.11V42.732H1699.59V62.336H1701.79ZM1731.06 50.504C1731.09 50.301 1731.09 50.069 1731.09 49.866C1731.09 45.487 1727.96 42.5 1723.81 42.5C1719.66 42.5 1716.47 45.487 1716.47 49.866C1716.47 54.245 1719.49 57.232 1723.78 57.232C1727.09 57.232 1729.7 55.376 1730.8 52.679H1728.33C1727.4 54.187 1725.78 55.173 1723.78 55.173C1721 55.173 1719.02 53.346 1718.76 50.504H1731.06ZM1718.82 48.706C1719.28 46.183 1721.23 44.53 1723.78 44.53C1726.27 44.53 1728.3 46.183 1728.68 48.706H1718.82ZM1736.28 57V48.126C1736.28 46.386 1737.1 44.704 1739.04 44.704C1739.65 44.704 1740.11 44.907 1740.49 45.11L1741.68 43.08C1741.3 42.79 1740.55 42.5 1739.56 42.5C1737.91 42.5 1736.92 43.341 1736.25 44.356V42.732H1734.08V57H1736.28ZM1756.2 55.173C1753.33 55.173 1751.01 52.911 1751.01 49.866C1751.01 46.821 1753.33 44.53 1756.2 44.53C1759.07 44.53 1761.36 46.908 1761.36 49.866C1761.36 52.824 1759.07 55.173 1756.2 55.173ZM1751.04 62.336V54.767C1752.23 56.246 1754.03 57.232 1756.23 57.232C1760.38 57.232 1763.62 53.984 1763.62 49.837C1763.62 45.69 1760.46 42.5 1756.32 42.5C1754.05 42.5 1752.2 43.544 1750.98 45.11V42.732H1748.83V62.336H1751.04ZM1778.07 57V42.732H1775.87V52.099C1775.87 53.665 1774.54 55.173 1772.19 55.173C1769.98 55.173 1768.82 53.897 1768.82 52.099V42.732H1766.62V52.244C1766.62 55.144 1768.39 57.232 1771.72 57.232C1773.99 57.232 1775.29 56.188 1775.9 55.26V57H1778.07ZM1784.17 57V48.126C1784.17 46.386 1784.99 44.704 1786.93 44.704C1787.54 44.704 1788 44.907 1788.38 45.11L1789.57 43.08C1789.19 42.79 1788.44 42.5 1787.45 42.5C1785.8 42.5 1784.81 43.341 1784.14 44.356V42.732H1781.97V57H1784.17ZM1802.17 52.157C1801.33 53.955 1799.56 55.173 1797.47 55.173C1794.6 55.173 1792.31 52.824 1792.31 49.866C1792.31 46.908 1794.6 44.53 1797.47 44.53C1799.53 44.53 1801.3 45.748 1802.14 47.517H1804.55C1803.59 44.559 1800.81 42.5 1797.47 42.5C1793.32 42.5 1790.05 45.719 1790.05 49.866C1790.05 54.013 1793.32 57.232 1797.47 57.232C1800.84 57.232 1803.62 55.173 1804.55 52.157H1802.17ZM1818.77 57V47.575C1818.77 44.675 1817 42.5 1813.67 42.5C1811.43 42.5 1810.13 43.602 1809.52 44.53V37.28H1807.32V57H1809.52V47.72C1809.52 46.154 1810.85 44.559 1813.2 44.559C1815.41 44.559 1816.57 45.922 1816.57 47.72V57H1818.77ZM1829.19 55.173C1826.32 55.173 1824.03 52.911 1824.03 49.866C1824.03 46.821 1826.32 44.53 1829.19 44.53C1832.06 44.53 1834.38 46.734 1834.38 49.866C1834.38 52.998 1832.06 55.173 1829.19 55.173ZM1836.56 57V42.732H1834.41V45.081C1833.19 43.544 1831.34 42.5 1829.1 42.5C1824.96 42.5 1821.77 45.719 1821.77 49.866C1821.77 54.1 1824.84 57.232 1829.07 57.232C1831.31 57.232 1833.19 56.188 1834.41 54.651V57H1836.56ZM1852.05 46.821C1851.59 43.428 1848.57 42.5 1845.73 42.5C1842.13 42.5 1839.73 43.979 1839.73 46.763C1839.73 52.476 1849.96 49.199 1849.96 52.969C1849.96 54.477 1848.28 55.202 1845.99 55.202C1843.84 55.202 1842.19 54.622 1841.7 52.679H1839.49C1839.99 56.014 1842.65 57.232 1845.82 57.232C1849.27 57.232 1852.25 55.724 1852.25 52.708C1852.25 47.053 1841.93 50.011 1841.93 46.473C1841.93 45.081 1843.5 44.559 1845.53 44.559C1847.87 44.559 1849.5 45.255 1849.79 46.821H1852.05ZM1868.92 50.504C1868.95 50.301 1868.95 50.069 1868.95 49.866C1868.95 45.487 1865.82 42.5 1861.67 42.5C1857.53 42.5 1854.34 45.487 1854.34 49.866C1854.34 54.245 1857.35 57.232 1861.64 57.232C1864.95 57.232 1867.56 55.376 1868.66 52.679H1866.2C1865.27 54.187 1863.64 55.173 1861.64 55.173C1858.86 55.173 1856.89 53.346 1856.63 50.504H1868.92ZM1856.68 48.706C1857.15 46.183 1859.09 44.53 1861.64 44.53C1864.14 44.53 1866.17 46.183 1866.54 48.706H1856.68ZM1496.85 84.173C1493.98 84.173 1491.69 81.911 1491.69 78.866C1491.69 75.821 1493.98 73.53 1496.85 73.53C1499.72 73.53 1502.04 75.734 1502.04 78.866C1502.04 81.998 1499.72 84.173 1496.85 84.173ZM1504.22 86V71.732H1502.07V74.081C1500.85 72.544 1499 71.5 1496.76 71.5C1492.62 71.5 1489.43 74.719 1489.43 78.866C1489.43 83.1 1492.5 86.232 1496.74 86.232C1498.97 86.232 1500.85 85.188 1502.07 83.651V86H1504.22ZM1515.48 84.173C1512.61 84.173 1510.29 81.911 1510.29 78.866C1510.29 75.821 1512.61 73.53 1515.48 73.53C1518.35 73.53 1520.64 75.908 1520.64 78.866C1520.64 81.824 1518.35 84.173 1515.48 84.173ZM1510.32 91.336V83.767C1511.5 85.246 1513.3 86.232 1515.51 86.232C1519.65 86.232 1522.9 82.984 1522.9 78.837C1522.9 74.69 1519.74 71.5 1515.59 71.5C1513.33 71.5 1511.48 72.544 1510.26 74.11V71.732H1508.11V91.336H1510.32ZM1533.26 84.173C1530.39 84.173 1528.07 81.911 1528.07 78.866C1528.07 75.821 1530.39 73.53 1533.26 73.53C1536.13 73.53 1538.43 75.908 1538.43 78.866C1538.43 81.824 1536.13 84.173 1533.26 84.173ZM1528.1 91.336V83.767C1529.29 85.246 1531.09 86.232 1533.29 86.232C1537.44 86.232 1540.69 82.984 1540.69 78.837C1540.69 74.69 1537.53 71.5 1533.38 71.5C1531.12 71.5 1529.26 72.544 1528.04 74.11V71.732H1525.9V91.336H1528.1ZM1545.97 86V66.28H1543.77V86H1545.97ZM1551.04 91.336C1553.77 91.336 1554.38 90.031 1555.39 87.624L1562.15 71.732H1559.86L1555.16 83.187H1555.1L1550.32 71.732H1547.97L1553.77 85.13C1553.94 85.536 1553.97 85.884 1553.8 86.319L1553.48 87.073C1552.84 88.581 1552.46 89.277 1550.75 89.277H1550V91.336H1551.04ZM1575.84 84.173C1572.97 84.173 1570.68 81.911 1570.68 78.866C1570.68 75.821 1572.97 73.53 1575.84 73.53C1578.71 73.53 1581.03 75.734 1581.03 78.866C1581.03 81.998 1578.71 84.173 1575.84 84.173ZM1583.2 86V71.732H1581.06V74.081C1579.84 72.544 1577.98 71.5 1575.75 71.5C1571.6 71.5 1568.41 74.719 1568.41 78.866C1568.41 83.1 1571.49 86.232 1575.72 86.232C1577.95 86.232 1579.84 85.188 1581.06 83.651V86H1583.2ZM1592.67 86V83.97H1591.82C1590.2 83.97 1589.82 83.332 1589.82 81.708V73.704H1592.61V71.732H1589.82V68.194H1587.62V71.732H1585.42V73.704H1587.62V81.94C1587.62 84.811 1588.63 86 1591.53 86H1592.67ZM1611.35 81.157C1610.51 82.955 1608.74 84.173 1606.65 84.173C1603.78 84.173 1601.49 81.824 1601.49 78.866C1601.49 75.908 1603.78 73.53 1606.65 73.53C1608.71 73.53 1610.48 74.748 1611.32 76.517H1613.73C1612.77 73.559 1609.98 71.5 1606.65 71.5C1602.5 71.5 1599.23 74.719 1599.23 78.866C1599.23 83.013 1602.5 86.232 1606.65 86.232C1610.01 86.232 1612.8 84.173 1613.73 81.157H1611.35ZM1618.78 86V66.28H1616.58V86H1618.78ZM1636.47 79.504C1636.5 79.301 1636.5 79.069 1636.5 78.866C1636.5 74.487 1633.37 71.5 1629.22 71.5C1625.07 71.5 1621.88 74.487 1621.88 78.866C1621.88 83.245 1624.9 86.232 1629.19 86.232C1632.5 86.232 1635.11 84.376 1636.21 81.679H1633.74C1632.81 83.187 1631.19 84.173 1629.19 84.173C1626.41 84.173 1624.43 82.346 1624.17 79.504H1636.47ZM1624.23 77.706C1624.69 75.183 1626.64 73.53 1629.19 73.53C1631.68 73.53 1633.71 75.183 1634.09 77.706H1624.23ZM1646.01 84.173C1643.14 84.173 1640.85 81.911 1640.85 78.866C1640.85 75.821 1643.14 73.53 1646.01 73.53C1648.89 73.53 1651.21 75.734 1651.21 78.866C1651.21 81.998 1648.89 84.173 1646.01 84.173ZM1653.38 86V71.732H1651.23V74.081C1650.02 72.544 1648.16 71.5 1645.93 71.5C1641.78 71.5 1638.59 74.719 1638.59 78.866C1638.59 83.1 1641.66 86.232 1645.9 86.232C1648.13 86.232 1650.02 85.188 1651.23 83.651V86H1653.38ZM1659.48 86V77.126C1659.48 75.386 1660.29 73.704 1662.23 73.704C1662.84 73.704 1663.31 73.907 1663.68 74.11L1664.87 72.08C1664.5 71.79 1663.74 71.5 1662.76 71.5C1661.1 71.5 1660.12 72.341 1659.45 73.356V71.732H1657.28V86H1659.48ZM1674.18 84.173C1671.31 84.173 1668.99 81.911 1668.99 78.866C1668.99 75.821 1671.31 73.53 1674.18 73.53C1677.06 73.53 1679.35 75.908 1679.35 78.866C1679.35 81.824 1677.06 84.173 1674.18 84.173ZM1669.02 91.336V83.767C1670.21 85.246 1672.01 86.232 1674.21 86.232C1678.36 86.232 1681.61 82.984 1681.61 78.837C1681.61 74.69 1678.45 71.5 1674.3 71.5C1672.04 71.5 1670.18 72.544 1668.96 74.11V71.732H1666.82V91.336H1669.02ZM1691.13 84.173C1688.26 84.173 1685.97 81.911 1685.97 78.866C1685.97 75.821 1688.26 73.53 1691.13 73.53C1694 73.53 1696.32 75.734 1696.32 78.866C1696.32 81.998 1694 84.173 1691.13 84.173ZM1698.5 86V71.732H1696.35V74.081C1695.13 72.544 1693.28 71.5 1691.04 71.5C1686.9 71.5 1683.71 74.719 1683.71 78.866C1683.71 83.1 1686.78 86.232 1691.01 86.232C1693.25 86.232 1695.13 85.188 1696.35 83.651V86H1698.5ZM1703.46 91.336C1706.19 91.336 1706.8 90.031 1707.81 87.624L1714.57 71.732H1712.28L1707.58 83.187H1707.52L1702.74 71.732H1700.39L1706.19 85.13C1706.36 85.536 1706.39 85.884 1706.22 86.319L1705.9 87.073C1705.26 88.581 1704.88 89.277 1703.17 89.277H1702.42V91.336H1703.46ZM1716.8 84.608C1716.8 83.651 1716.05 82.897 1715.12 82.897C1714.19 82.897 1713.47 83.651 1713.47 84.608C1713.47 85.507 1714.19 86.232 1715.12 86.232C1716.05 86.232 1716.8 85.507 1716.8 84.608ZM1730.63 81.157C1729.79 82.955 1728.02 84.173 1725.93 84.173C1723.06 84.173 1720.77 81.824 1720.77 78.866C1720.77 75.908 1723.06 73.53 1725.93 73.53C1727.99 73.53 1729.76 74.748 1730.6 76.517H1733.01C1732.05 73.559 1729.27 71.5 1725.93 71.5C1721.79 71.5 1718.51 74.719 1718.51 78.866C1718.51 83.013 1721.79 86.232 1725.93 86.232C1729.3 86.232 1732.08 84.173 1733.01 81.157H1730.63ZM1749.73 78.866C1749.73 74.719 1746.45 71.5 1742.3 71.5C1738.16 71.5 1734.88 74.719 1734.88 78.866C1734.88 83.013 1738.16 86.232 1742.3 86.232C1746.45 86.232 1749.73 83.013 1749.73 78.866ZM1742.3 84.173C1739.43 84.173 1737.14 81.824 1737.14 78.866C1737.14 75.908 1739.43 73.53 1742.3 73.53C1745.17 73.53 1747.49 75.908 1747.49 78.866C1747.49 81.824 1745.17 84.173 1742.3 84.173ZM1754.75 84.608C1754.75 83.651 1754 82.897 1753.07 82.897C1752.14 82.897 1751.42 83.651 1751.42 84.608C1751.42 85.507 1752.14 86.232 1753.07 86.232C1754 86.232 1754.75 85.507 1754.75 84.608ZM1769.1 86V71.732H1766.89V81.099C1766.89 82.665 1765.56 84.173 1763.21 84.173C1761.01 84.173 1759.85 82.897 1759.85 81.099V71.732H1757.64V81.244C1757.64 84.144 1759.41 86.232 1762.75 86.232C1765.01 86.232 1766.31 85.188 1766.92 84.26V86H1769.1ZM1785.69 86L1779.2 77.184L1785.17 71.732H1782.42L1775.28 78.344H1775.2V66.28H1772.99V86H1775.2V80.838L1777.54 78.692L1782.94 86H1785.69ZM1787.41 86.174L1797.35 66.164H1795.44L1785.46 86.174H1787.41ZM1804.87 86V83.97H1804.03C1802.4 83.97 1802.03 83.332 1802.03 81.708V73.704H1804.81V71.732H1802.03V68.194H1799.82V71.732H1797.62V73.704H1799.82V81.94C1799.82 84.811 1800.84 86 1803.74 86H1804.87ZM1820.81 79.504C1820.83 79.301 1820.83 79.069 1820.83 78.866C1820.83 74.487 1817.7 71.5 1813.56 71.5C1809.41 71.5 1806.22 74.487 1806.22 78.866C1806.22 83.245 1809.23 86.232 1813.53 86.232C1816.83 86.232 1819.44 84.376 1820.54 81.679H1818.08C1817.15 83.187 1815.53 84.173 1813.53 84.173C1810.74 84.173 1808.77 82.346 1808.51 79.504H1820.81ZM1808.57 77.706C1809.03 75.183 1810.97 73.53 1813.53 73.53C1816.02 73.53 1818.05 75.183 1818.43 77.706H1808.57ZM1826.03 86V77.126C1826.03 75.386 1826.84 73.704 1828.79 73.704C1829.39 73.704 1829.86 73.907 1830.24 74.11L1831.42 72.08C1831.05 71.79 1830.29 71.5 1829.31 71.5C1827.65 71.5 1826.67 72.341 1826 73.356V71.732H1823.83V86H1826.03ZM1853.26 86V76.488C1853.26 73.588 1851.7 71.5 1848.36 71.5C1846.22 71.5 1844.94 72.486 1843.93 73.994C1843.23 72.457 1841.78 71.5 1839.52 71.5C1837.26 71.5 1836.15 72.544 1835.55 73.472V71.732H1833.37V86H1835.57V76.633C1835.57 75.067 1836.71 73.559 1839.05 73.559C1841.26 73.559 1842.22 74.835 1842.22 76.633V86H1844.42V76.517C1844.42 75.009 1845.61 73.559 1847.9 73.559C1850.1 73.559 1851.06 74.835 1851.06 76.633V86H1853.26ZM1868.76 75.821C1868.3 72.428 1865.28 71.5 1862.44 71.5C1858.84 71.5 1856.43 72.979 1856.43 75.763C1856.43 81.476 1866.67 78.199 1866.67 81.969C1866.67 83.477 1864.99 84.202 1862.7 84.202C1860.55 84.202 1858.9 83.622 1858.41 81.679H1856.2C1856.7 85.014 1859.36 86.232 1862.52 86.232C1865.98 86.232 1868.96 84.724 1868.96 81.708C1868.96 76.053 1858.64 79.011 1858.64 75.473C1858.64 74.081 1860.2 73.559 1862.23 73.559C1864.58 73.559 1866.21 74.255 1866.5 75.821H1868.76Z" fill="white"/>
</svg>
