<svg width="600" height="449" viewBox="0 0 600 449" fill="none" xmlns="http://www.w3.org/2000/svg">
<rect width="600" height="449" fill="white"/>
<path d="M63.5324 386.32C62.4044 388.216 60.3644 389.464 57.9644 389.464C54.2684 389.464 51.4604 386.536 51.4604 382.84C51.4604 379.144 54.2684 376.216 57.9644 376.216C60.3884 376.216 62.3324 377.464 63.4364 379.336H65.6444C64.3004 376.432 61.3724 374.488 57.9644 374.488C53.2844 374.488 49.5164 378.112 49.5164 382.912C49.5164 387.616 53.1404 391.192 57.9644 391.192C61.5404 391.192 64.4444 389.248 65.7164 386.32H63.5324ZM69.7501 391V374.68H67.9261V391H69.7501ZM84.3852 385.624C84.4092 385.456 84.4092 385.264 84.4092 385.096C84.4092 381.472 81.8172 379 78.3852 379C74.9532 379 72.3132 381.472 72.3132 385.096C72.3132 388.72 74.8092 391.192 78.3612 391.192C81.0972 391.192 83.2572 389.656 84.1692 387.424H82.1292C81.3612 388.672 80.0172 389.488 78.3612 389.488C76.0572 389.488 74.4252 387.976 74.2092 385.624H84.3852ZM74.2572 384.136C74.6412 382.048 76.2492 380.68 78.3612 380.68C80.4252 380.68 82.1052 382.048 82.4172 384.136H74.2572ZM92.2853 389.488C89.9093 389.488 88.0133 387.616 88.0133 385.096C88.0133 382.576 89.9093 380.68 92.2853 380.68C94.6613 380.68 96.5813 382.504 96.5813 385.096C96.5813 387.688 94.6613 389.488 92.2853 389.488ZM98.3813 391V379.192H96.6053V381.136C95.5973 379.864 94.0613 379 92.2133 379C88.7813 379 86.1413 381.664 86.1413 385.096C86.1413 388.6 88.6853 391.192 92.1893 391.192C94.0373 391.192 95.5973 390.328 96.6053 389.056V391H98.3813ZM103.428 391V383.656C103.428 382.216 104.1 380.824 105.708 380.824C106.212 380.824 106.596 380.992 106.908 381.16L107.892 379.48C107.58 379.24 106.956 379 106.14 379C104.772 379 103.956 379.696 103.404 380.536V379.192H101.604V391H103.428ZM115.599 389.488C113.223 389.488 111.303 387.616 111.303 385.096C111.303 382.576 113.223 380.68 115.599 380.68C117.975 380.68 119.871 382.648 119.871 385.096C119.871 387.544 117.975 389.488 115.599 389.488ZM111.327 395.416V389.152C112.311 390.376 113.799 391.192 115.623 391.192C119.055 391.192 121.743 388.504 121.743 385.072C121.743 381.64 119.127 379 115.695 379C113.823 379 112.287 379.864 111.279 381.16V379.192H109.503V395.416H111.327ZM129.621 389.488C127.245 389.488 125.349 387.616 125.349 385.096C125.349 382.576 127.245 380.68 129.621 380.68C131.997 380.68 133.917 382.504 133.917 385.096C133.917 387.688 131.997 389.488 129.621 389.488ZM135.717 391V379.192H133.941V381.136C132.933 379.864 131.397 379 129.549 379C126.117 379 123.477 381.664 123.477 385.096C123.477 388.6 126.021 391.192 129.525 391.192C131.373 391.192 132.933 390.328 133.941 389.056V391H135.717ZM139.828 395.416C142.084 395.416 142.588 394.336 143.428 392.344L149.02 379.192H147.124L143.236 388.672H143.188L139.228 379.192H137.284L142.084 390.28C142.228 390.616 142.252 390.904 142.108 391.264L141.844 391.888C141.316 393.136 141.004 393.712 139.588 393.712H138.964V395.416H139.828ZM155.932 376.984C156.604 376.984 157.18 376.432 157.18 375.736C157.18 375.064 156.604 374.488 155.932 374.488C155.236 374.488 154.684 375.064 154.684 375.736C154.684 376.432 155.236 376.984 155.932 376.984ZM156.844 391V379.192H155.02V391H156.844ZM169.751 382.576C169.367 379.768 166.871 379 164.519 379C161.543 379 159.551 380.224 159.551 382.528C159.551 387.256 168.023 384.544 168.023 387.664C168.023 388.912 166.631 389.512 164.735 389.512C162.959 389.512 161.591 389.032 161.183 387.424H159.359C159.767 390.184 161.975 391.192 164.591 391.192C167.447 391.192 169.919 389.944 169.919 387.448C169.919 382.768 161.375 385.216 161.375 382.288C161.375 381.136 162.671 380.704 164.351 380.704C166.295 380.704 167.639 381.28 167.879 382.576H169.751ZM186.178 391V379.192H184.354V386.944C184.354 388.24 183.25 389.488 181.306 389.488C179.482 389.488 178.522 388.432 178.522 386.944V379.192H176.698V387.064C176.698 389.464 178.162 391.192 180.922 391.192C182.794 391.192 183.874 390.328 184.378 389.56V391H186.178ZM198.881 391V383.2C198.881 380.8 197.417 379 194.657 379C192.785 379 191.705 379.936 191.201 380.704V379.192H189.401V391H191.225V383.32C191.225 382.024 192.329 380.704 194.273 380.704C196.097 380.704 197.057 381.832 197.057 383.32V391H198.881ZM203.928 391V383.656C203.928 382.216 204.6 380.824 206.208 380.824C206.712 380.824 207.096 380.992 207.408 381.16L208.392 379.48C208.08 379.24 207.456 379 206.64 379C205.272 379 204.456 379.696 203.904 380.536V379.192H202.104V391H203.928ZM220.862 385.624C220.886 385.456 220.886 385.264 220.886 385.096C220.886 381.472 218.294 379 214.862 379C211.43 379 208.79 381.472 208.79 385.096C208.79 388.72 211.286 391.192 214.838 391.192C217.574 391.192 219.734 389.656 220.646 387.424H218.606C217.838 388.672 216.494 389.488 214.838 389.488C212.534 389.488 210.902 387.976 210.686 385.624H220.862ZM210.734 384.136C211.118 382.048 212.726 380.68 214.838 380.68C216.902 380.68 218.582 382.048 218.894 384.136H210.734ZM230.202 395.416C233.154 395.416 234.858 393.784 234.858 390.808V379.192H233.082V381.16C232.074 379.888 230.586 379 228.738 379C225.306 379 222.618 381.664 222.618 385.096C222.618 388.528 225.306 391.192 228.738 391.192C230.538 391.192 232.026 390.328 233.034 389.104V390.712C233.034 392.872 231.93 393.712 229.962 393.712H228.354V395.416H230.202ZM228.762 389.488C226.386 389.488 224.49 387.544 224.49 385.096C224.49 382.648 226.386 380.68 228.762 380.68C231.138 380.68 233.058 382.576 233.058 385.096C233.058 387.616 231.138 389.488 228.762 389.488ZM247.561 391V379.192H245.737V386.944C245.737 388.24 244.633 389.488 242.689 389.488C240.865 389.488 239.905 388.432 239.905 386.944V379.192H238.081V387.064C238.081 389.464 239.545 391.192 242.305 391.192C244.177 391.192 245.257 390.328 245.761 389.56V391H247.561ZM252.68 391V374.68H250.856V391H252.68ZM261.387 389.488C259.011 389.488 257.115 387.616 257.115 385.096C257.115 382.576 259.011 380.68 261.387 380.68C263.763 380.68 265.683 382.504 265.683 385.096C265.683 387.688 263.763 389.488 261.387 389.488ZM267.483 391V379.192H265.707V381.136C264.699 379.864 263.163 379 261.315 379C257.883 379 255.243 381.664 255.243 385.096C255.243 388.6 257.787 391.192 261.291 391.192C263.139 391.192 264.699 390.328 265.707 389.056V391H267.483ZM275.314 391V389.32H274.618C273.274 389.32 272.962 388.792 272.962 387.448V380.824H275.266V379.192H272.962V376.264H271.138V379.192H269.314V380.824H271.138V387.64C271.138 390.016 271.978 391 274.378 391H275.314ZM288.502 385.624C288.526 385.456 288.526 385.264 288.526 385.096C288.526 381.472 285.934 379 282.502 379C279.07 379 276.43 381.472 276.43 385.096C276.43 388.72 278.926 391.192 282.478 391.192C285.214 391.192 287.374 389.656 288.286 387.424H286.246C285.478 388.672 284.134 389.488 282.478 389.488C280.174 389.488 278.542 387.976 278.326 385.624H288.502ZM278.374 384.136C278.758 382.048 280.366 380.68 282.478 380.68C284.542 380.68 286.222 382.048 286.534 384.136H278.374ZM296.403 389.488C294.027 389.488 292.131 387.544 292.131 385.096C292.131 382.648 294.027 380.68 296.403 380.68C298.779 380.68 300.699 382.576 300.699 385.096C300.699 387.616 298.779 389.488 296.403 389.488ZM302.499 391V374.68H300.675V381.088C299.667 379.84 298.179 379 296.379 379C292.947 379 290.259 381.664 290.259 385.096C290.259 388.528 292.947 391.192 296.379 391.192C298.227 391.192 299.715 390.304 300.723 389.032V391H302.499ZM319.322 386.992C318.626 388.48 317.162 389.488 315.434 389.488C313.058 389.488 311.162 387.544 311.162 385.096C311.162 382.648 313.058 380.68 315.434 380.68C317.138 380.68 318.602 381.688 319.298 383.152H321.29C320.498 380.704 318.194 379 315.434 379C312.002 379 309.29 381.664 309.29 385.096C309.29 388.528 312.002 391.192 315.434 391.192C318.218 391.192 320.522 389.488 321.29 386.992H319.322ZM325.405 391V383.656C325.405 382.216 326.077 380.824 327.685 380.824C328.189 380.824 328.573 380.992 328.885 381.16L329.869 379.48C329.557 379.24 328.933 379 328.117 379C326.749 379 325.933 379.696 325.381 380.536V379.192H323.581V391H325.405ZM342.338 385.624C342.362 385.456 342.362 385.264 342.362 385.096C342.362 381.472 339.77 379 336.338 379C332.906 379 330.266 381.472 330.266 385.096C330.266 388.72 332.762 391.192 336.314 391.192C339.05 391.192 341.21 389.656 342.122 387.424H340.082C339.314 388.672 337.97 389.488 336.314 389.488C334.01 389.488 332.378 387.976 332.162 385.624H342.338ZM332.21 384.136C332.594 382.048 334.202 380.68 336.314 380.68C338.378 380.68 340.058 382.048 340.37 384.136H332.21ZM350.238 389.488C347.862 389.488 345.966 387.544 345.966 385.096C345.966 382.648 347.862 380.68 350.238 380.68C352.614 380.68 354.534 382.576 354.534 385.096C354.534 387.616 352.614 389.488 350.238 389.488ZM356.334 391V374.68H354.51V381.088C353.502 379.84 352.014 379 350.214 379C346.782 379 344.094 381.664 344.094 385.096C344.094 388.528 346.782 391.192 350.214 391.192C352.062 391.192 353.55 390.304 354.558 389.032V391H356.334ZM360.541 376.984C361.213 376.984 361.789 376.432 361.789 375.736C361.789 375.064 361.213 374.488 360.541 374.488C359.845 374.488 359.293 375.064 359.293 375.736C359.293 376.432 359.845 376.984 360.541 376.984ZM361.453 391V379.192H359.629V391H361.453ZM369.368 391V389.32H368.672C367.328 389.32 367.016 388.792 367.016 387.448V380.824H369.32V379.192H367.016V376.264H365.192V379.192H363.368V380.824H365.192V387.64C365.192 390.016 366.032 391 368.432 391H369.368ZM373.383 389.848C373.383 389.056 372.759 388.432 371.991 388.432C371.223 388.432 370.623 389.056 370.623 389.848C370.623 390.592 371.223 391.192 371.991 391.192C372.759 391.192 373.383 390.592 373.383 389.848ZM391.056 384.28C391.056 387.544 389.16 389.464 386.592 389.464C384.024 389.464 382.128 387.544 382.128 384.28V374.68H380.208V384.4C380.208 388.672 382.896 391.192 386.592 391.192C390.288 391.192 392.976 388.672 392.976 384.4V374.68H391.056V384.28ZM405.907 382.576C405.523 379.768 403.027 379 400.675 379C397.699 379 395.707 380.224 395.707 382.528C395.707 387.256 404.179 384.544 404.179 387.664C404.179 388.912 402.787 389.512 400.891 389.512C399.115 389.512 397.747 389.032 397.339 387.424H395.515C395.923 390.184 398.131 391.192 400.747 391.192C403.603 391.192 406.075 389.944 406.075 387.448C406.075 382.768 397.531 385.216 397.531 382.288C397.531 381.136 398.827 380.704 400.507 380.704C402.451 380.704 403.795 381.28 404.035 382.576H405.907ZM419.87 385.624C419.894 385.456 419.894 385.264 419.894 385.096C419.894 381.472 417.302 379 413.87 379C410.438 379 407.798 381.472 407.798 385.096C407.798 388.72 410.294 391.192 413.846 391.192C416.582 391.192 418.742 389.656 419.654 387.424H417.614C416.846 388.672 415.502 389.488 413.846 389.488C411.542 389.488 409.91 387.976 409.694 385.624H419.87ZM409.742 384.136C410.126 382.048 411.734 380.68 413.846 380.68C415.91 380.68 417.59 382.048 417.902 384.136H409.742ZM428.506 391V383.656C428.506 382.216 429.178 380.824 430.786 380.824C431.29 380.824 431.674 380.992 431.986 381.16L432.97 379.48C432.658 379.24 432.034 379 431.218 379C429.85 379 429.034 379.696 428.482 380.536V379.192H426.682V391H428.506ZM445.44 385.624C445.464 385.456 445.464 385.264 445.464 385.096C445.464 381.472 442.872 379 439.44 379C436.008 379 433.368 381.472 433.368 385.096C433.368 388.72 435.864 391.192 439.416 391.192C442.152 391.192 444.312 389.656 445.224 387.424H443.184C442.416 388.672 441.072 389.488 439.416 389.488C437.112 389.488 435.48 387.976 435.264 385.624H445.44ZM435.312 384.136C435.696 382.048 437.304 380.68 439.416 380.68C441.48 380.68 443.16 382.048 443.472 384.136H435.312ZM457.54 382.576C457.156 379.768 454.66 379 452.308 379C449.332 379 447.34 380.224 447.34 382.528C447.34 387.256 455.812 384.544 455.812 387.664C455.812 388.912 454.42 389.512 452.524 389.512C450.748 389.512 449.38 389.032 448.972 387.424H447.148C447.556 390.184 449.764 391.192 452.38 391.192C455.236 391.192 457.708 389.944 457.708 387.448C457.708 382.768 449.164 385.216 449.164 382.288C449.164 381.136 450.46 380.704 452.14 380.704C454.084 380.704 455.428 381.28 455.668 382.576H457.54ZM466.27 389.488C463.894 389.488 461.974 387.616 461.974 385.096C461.974 382.576 463.894 380.68 466.27 380.68C468.646 380.68 470.542 382.648 470.542 385.096C470.542 387.544 468.646 389.488 466.27 389.488ZM461.998 395.416V389.152C462.982 390.376 464.47 391.192 466.294 391.192C469.726 391.192 472.414 388.504 472.414 385.072C472.414 381.64 469.798 379 466.366 379C464.494 379 462.958 379.864 461.95 381.16V379.192H460.174V395.416H461.998ZM486.437 385.096C486.437 381.664 483.725 379 480.293 379C476.861 379 474.149 381.664 474.149 385.096C474.149 388.528 476.861 391.192 480.293 391.192C483.725 391.192 486.437 388.528 486.437 385.096ZM480.293 389.488C477.917 389.488 476.021 387.544 476.021 385.096C476.021 382.648 477.917 380.68 480.293 380.68C482.669 380.68 484.589 382.648 484.589 385.096C484.589 387.544 482.669 389.488 480.293 389.488ZM498.389 391V383.2C498.389 380.8 496.925 379 494.165 379C492.293 379 491.213 379.936 490.709 380.704V379.192H488.909V391H490.733V383.32C490.733 382.024 491.837 380.704 493.781 380.704C495.605 380.704 496.565 381.832 496.565 383.32V391H498.389ZM511.212 382.576C510.828 379.768 508.332 379 505.98 379C503.004 379 501.012 380.224 501.012 382.528C501.012 387.256 509.484 384.544 509.484 387.664C509.484 388.912 508.092 389.512 506.196 389.512C504.42 389.512 503.052 389.032 502.644 387.424H500.82C501.228 390.184 503.436 391.192 506.052 391.192C508.908 391.192 511.38 389.944 511.38 387.448C511.38 382.768 502.836 385.216 502.836 382.288C502.836 381.136 504.132 380.704 505.812 380.704C507.756 380.704 509.1 381.28 509.34 382.576H511.212ZM514.83 376.984C515.502 376.984 516.078 376.432 516.078 375.736C516.078 375.064 515.502 374.488 514.83 374.488C514.134 374.488 513.582 375.064 513.582 375.736C513.582 376.432 514.134 376.984 514.83 376.984ZM515.742 391V379.192H513.918V391H515.742ZM520.825 391V389.032C521.809 390.304 523.321 391.192 525.169 391.192C528.601 391.192 531.289 388.504 531.289 385.072C531.289 381.64 528.697 379 525.265 379C523.417 379 521.881 379.888 520.873 381.136V374.68H519.049V391H520.825ZM525.145 389.488C522.769 389.488 520.849 387.616 520.849 385.096C520.849 382.576 522.769 380.68 525.145 380.68C527.521 380.68 529.417 382.648 529.417 385.096C529.417 387.544 527.521 389.488 525.145 389.488ZM535.664 391V374.68H533.84V391H535.664ZM539.859 395.416C542.115 395.416 542.619 394.336 543.459 392.344L549.051 379.192H547.155L543.267 388.672H543.219L539.259 379.192H537.315L542.115 390.28C542.259 390.616 542.283 390.904 542.139 391.264L541.875 391.888C541.347 393.136 541.035 393.712 539.619 393.712H538.995V395.416H539.859ZM550.899 389.848C550.899 389.056 550.275 388.432 549.507 388.432C548.739 388.432 548.139 389.056 548.139 389.848C548.139 390.592 548.739 391.192 549.507 391.192C550.275 391.192 550.899 390.592 550.899 389.848ZM96.5394 415V400.408H102.323V398.68H88.8114V400.408H94.5954V415H96.5394ZM108.296 405.688C107.144 404.464 106.4 403.648 106.4 402.448C106.4 401.248 107.528 400.24 109.016 400.24C110.36 400.24 111.584 401.08 111.584 402.424C111.584 403.888 110.12 404.92 108.296 405.688ZM111.416 411.64C110.384 412.672 109.088 413.464 107.6 413.464C105.632 413.464 104.168 412.336 104.168 410.8C104.168 409.12 105.632 408.184 107.432 407.44L111.416 411.64ZM117.056 415L113.768 411.52L116.984 406.816H114.968L112.592 410.248L109.28 406.72C111.512 405.736 113.48 404.56 113.48 402.376C113.48 400.384 111.872 398.488 109.04 398.488C106.304 398.488 104.432 400.264 104.432 402.616C104.432 404.056 105.128 404.992 106.424 406.384C104.264 407.272 102.296 408.544 102.296 410.968C102.296 413.464 104.552 415.192 107.264 415.192C109.112 415.192 111.104 414.16 112.544 412.84L114.464 414.856C114.56 414.976 114.704 415 114.848 415H117.056ZM132.685 410.32C131.557 412.216 129.517 413.464 127.117 413.464C123.421 413.464 120.613 410.536 120.613 406.84C120.613 403.144 123.421 400.216 127.117 400.216C129.541 400.216 131.485 401.464 132.589 403.336H134.797C133.453 400.432 130.525 398.488 127.117 398.488C122.437 398.488 118.669 402.112 118.669 406.912C118.669 411.616 122.293 415.192 127.117 415.192C130.693 415.192 133.597 413.248 134.869 410.32H132.685ZM146.606 406.576C146.222 403.768 143.726 403 141.374 403C138.398 403 136.406 404.224 136.406 406.528C136.406 411.256 144.878 408.544 144.878 411.664C144.878 412.912 143.486 413.512 141.59 413.512C139.814 413.512 138.446 413.032 138.038 411.424H136.214C136.622 414.184 138.83 415.192 141.446 415.192C144.302 415.192 146.774 413.944 146.774 411.448C146.774 406.768 138.23 409.216 138.23 406.288C138.23 405.136 139.526 404.704 141.206 404.704C143.15 404.704 144.494 405.28 144.734 406.576H146.606ZM158.593 405.688C157.441 404.464 156.697 403.648 156.697 402.448C156.697 401.248 157.825 400.24 159.313 400.24C160.657 400.24 161.881 401.08 161.881 402.424C161.881 403.888 160.417 404.92 158.593 405.688ZM161.713 411.64C160.681 412.672 159.385 413.464 157.897 413.464C155.929 413.464 154.465 412.336 154.465 410.8C154.465 409.12 155.929 408.184 157.729 407.44L161.713 411.64ZM167.353 415L164.065 411.52L167.281 406.816H165.265L162.889 410.248L159.577 406.72C161.809 405.736 163.777 404.56 163.777 402.376C163.777 400.384 162.169 398.488 159.337 398.488C156.601 398.488 154.729 400.264 154.729 402.616C154.729 404.056 155.425 404.992 156.721 406.384C154.561 407.272 152.593 408.544 152.593 410.968C152.593 413.464 154.849 415.192 157.561 415.192C159.409 415.192 161.401 414.16 162.841 412.84L164.761 414.856C164.857 414.976 165.001 415 165.145 415H167.353ZM175.582 415V398.68H173.758V415H175.582ZM184.289 413.488C181.913 413.488 180.017 411.616 180.017 409.096C180.017 406.576 181.913 404.68 184.289 404.68C186.665 404.68 188.585 406.504 188.585 409.096C188.585 411.688 186.665 413.488 184.289 413.488ZM190.385 415V403.192H188.609V405.136C187.601 403.864 186.065 403 184.217 403C180.785 403 178.145 405.664 178.145 409.096C178.145 412.6 180.689 415.192 184.193 415.192C186.041 415.192 187.601 414.328 188.609 413.056V415H190.385ZM198.216 415V413.32H197.52C196.176 413.32 195.864 412.792 195.864 411.448V404.824H198.168V403.192H195.864V400.264H194.04V403.192H192.216V404.824H194.04V411.64C194.04 414.016 194.88 415 197.28 415H198.216ZM211.405 409.624C211.429 409.456 211.429 409.264 211.429 409.096C211.429 405.472 208.837 403 205.405 403C201.973 403 199.333 405.472 199.333 409.096C199.333 412.72 201.829 415.192 205.381 415.192C208.117 415.192 210.277 413.656 211.189 411.424H209.149C208.381 412.672 207.037 413.488 205.381 413.488C203.077 413.488 201.445 411.976 201.229 409.624H211.405ZM201.277 408.136C201.661 406.048 203.269 404.68 205.381 404.68C207.445 404.68 209.125 406.048 209.437 408.136H201.277ZM220.737 415V404.824H223.737V403.192H220.737V402.256C220.737 400.912 221.241 400.36 222.609 400.36H223.809V398.68H222.441C219.969 398.68 218.889 399.688 218.889 402.16V403.192H216.825V404.824H218.889V415H220.737ZM236.249 409.624C236.273 409.456 236.273 409.264 236.273 409.096C236.273 405.472 233.681 403 230.249 403C226.817 403 224.177 405.472 224.177 409.096C224.177 412.72 226.673 415.192 230.225 415.192C232.961 415.192 235.121 413.656 236.033 411.424H233.993C233.225 412.672 231.881 413.488 230.225 413.488C227.921 413.488 226.289 411.976 226.073 409.624H236.249ZM226.121 408.136C226.505 406.048 228.113 404.68 230.225 404.68C232.289 404.68 233.969 406.048 234.281 408.136H226.121ZM250.077 409.624C250.101 409.456 250.101 409.264 250.101 409.096C250.101 405.472 247.509 403 244.077 403C240.645 403 238.005 405.472 238.005 409.096C238.005 412.72 240.501 415.192 244.053 415.192C246.789 415.192 248.949 413.656 249.861 411.424H247.821C247.053 412.672 245.709 413.488 244.053 413.488C241.749 413.488 240.117 411.976 239.901 409.624H250.077ZM239.949 408.136C240.333 406.048 241.941 404.68 244.053 404.68C246.117 404.68 247.797 406.048 248.109 408.136H239.949ZM262.177 406.576C261.793 403.768 259.297 403 256.945 403C253.969 403 251.977 404.224 251.977 406.528C251.977 411.256 260.449 408.544 260.449 411.664C260.449 412.912 259.057 413.512 257.161 413.512C255.385 413.512 254.017 413.032 253.609 411.424H251.785C252.193 414.184 254.401 415.192 257.017 415.192C259.873 415.192 262.345 413.944 262.345 411.448C262.345 406.768 253.801 409.216 253.801 406.288C253.801 405.136 255.097 404.704 256.777 404.704C258.721 404.704 260.065 405.28 260.305 406.576H262.177ZM278.604 415V403.192H276.78V410.944C276.78 412.24 275.676 413.488 273.732 413.488C271.908 413.488 270.948 412.432 270.948 410.944V403.192H269.124V411.064C269.124 413.464 270.588 415.192 273.348 415.192C275.22 415.192 276.3 414.328 276.804 413.56V415H278.604ZM287.923 413.488C285.547 413.488 283.627 411.616 283.627 409.096C283.627 406.576 285.547 404.68 287.923 404.68C290.299 404.68 292.195 406.648 292.195 409.096C292.195 411.544 290.299 413.488 287.923 413.488ZM283.651 419.416V413.152C284.635 414.376 286.123 415.192 287.947 415.192C291.379 415.192 294.067 412.504 294.067 409.072C294.067 405.64 291.451 403 288.019 403C286.147 403 284.611 403.864 283.603 405.16V403.192H281.827V419.416H283.651ZM305.466 415V413.32H304.77C303.426 413.32 303.114 412.792 303.114 411.448V404.824H305.418V403.192H303.114V400.264H301.29V403.192H299.466V404.824H301.29V411.64C301.29 414.016 302.13 415 304.53 415H305.466ZM318.871 409.096C318.871 405.664 316.159 403 312.727 403C309.295 403 306.583 405.664 306.583 409.096C306.583 412.528 309.295 415.192 312.727 415.192C316.159 415.192 318.871 412.528 318.871 409.096ZM312.727 413.488C310.351 413.488 308.455 411.544 308.455 409.096C308.455 406.648 310.351 404.68 312.727 404.68C315.103 404.68 317.023 406.648 317.023 409.096C317.023 411.544 315.103 413.488 312.727 413.488ZM336.431 415V413.296H327.911C328.463 412.864 329.087 411.976 329.087 409.912V407.488H335.327V405.832H329.087V403.168C329.087 401.728 329.807 400.288 331.967 400.288C333.647 400.288 334.823 401.056 335.351 401.56L336.575 400.192C335.711 399.304 334.271 398.488 332.207 398.488C328.775 398.488 327.287 400.384 327.287 403.192V405.832H325.079V407.488H327.287V409.648C327.287 412 326.783 413.224 325.079 413.392V415H336.431ZM349.751 415V413.272H341.039L347.207 407.752C348.959 406.168 349.559 404.776 349.559 403.264C349.559 400.336 347.159 398.488 343.991 398.488C340.199 398.488 338.327 401.008 338.327 403.84H340.199C340.199 402.016 341.255 400.288 343.823 400.288C345.935 400.288 347.495 401.512 347.495 403.312C347.495 404.296 347.063 405.448 345.599 406.768L338.303 413.344V415H349.751ZM361.157 415V411.76H363.701V410.128H361.157V406.168H359.477L359.309 410.128H353.717L361.013 398.68H358.829L351.653 410.32V411.76H359.333V415H361.157ZM376.54 413.488C374.164 413.488 372.244 411.616 372.244 409.096C372.244 406.576 374.164 404.68 376.54 404.68C378.916 404.68 380.812 406.648 380.812 409.096C380.812 411.544 378.916 413.488 376.54 413.488ZM372.268 419.416V413.152C373.252 414.376 374.74 415.192 376.564 415.192C379.996 415.192 382.684 412.504 382.684 409.072C382.684 405.64 380.068 403 376.636 403C374.764 403 373.228 403.864 372.22 405.16V403.192H370.444V419.416H372.268ZM396.491 409.624C396.515 409.456 396.515 409.264 396.515 409.096C396.515 405.472 393.923 403 390.491 403C387.059 403 384.419 405.472 384.419 409.096C384.419 412.72 386.915 415.192 390.467 415.192C393.203 415.192 395.363 413.656 396.275 411.424H394.235C393.467 412.672 392.123 413.488 390.467 413.488C388.163 413.488 386.531 411.976 386.315 409.624H396.491ZM386.363 408.136C386.747 406.048 388.355 404.68 390.467 404.68C392.531 404.68 394.211 406.048 394.523 408.136H386.363ZM400.815 415V407.656C400.815 406.216 401.487 404.824 403.095 404.824C403.599 404.824 403.983 404.992 404.295 405.16L405.279 403.48C404.967 403.24 404.343 403 403.527 403C402.159 403 401.343 403.696 400.791 404.536V403.192H398.991V415H400.815ZM417.298 413.488C414.922 413.488 413.002 411.616 413.002 409.096C413.002 406.576 414.922 404.68 417.298 404.68C419.674 404.68 421.57 406.648 421.57 409.096C421.57 411.544 419.674 413.488 417.298 413.488ZM413.026 419.416V413.152C414.01 414.376 415.498 415.192 417.322 415.192C420.754 415.192 423.442 412.504 423.442 409.072C423.442 405.64 420.826 403 417.394 403C415.522 403 413.986 403.864 412.978 405.16V403.192H411.202V419.416H413.026ZM435.401 415V403.192H433.577V410.944C433.577 412.24 432.473 413.488 430.529 413.488C428.705 413.488 427.745 412.432 427.745 410.944V403.192H425.921V411.064C425.921 413.464 427.385 415.192 430.145 415.192C432.017 415.192 433.097 414.328 433.601 413.56V415H435.401ZM440.448 415V407.656C440.448 406.216 441.12 404.824 442.728 404.824C443.232 404.824 443.616 404.992 443.928 405.16L444.912 403.48C444.6 403.24 443.976 403 443.16 403C441.792 403 440.976 403.696 440.424 404.536V403.192H438.624V415H440.448ZM455.341 410.992C454.645 412.48 453.181 413.488 451.453 413.488C449.077 413.488 447.181 411.544 447.181 409.096C447.181 406.648 449.077 404.68 451.453 404.68C453.157 404.68 454.621 405.688 455.317 407.152H457.309C456.517 404.704 454.213 403 451.453 403C448.021 403 445.309 405.664 445.309 409.096C445.309 412.528 448.021 415.192 451.453 415.192C454.237 415.192 456.541 413.488 457.309 410.992H455.341ZM469.08 415V407.2C469.08 404.8 467.616 403 464.856 403C463.008 403 461.928 403.912 461.424 404.68V398.68H459.6V415H461.424V407.32C461.424 406.024 462.528 404.704 464.472 404.704C466.296 404.704 467.256 405.832 467.256 407.32V415H469.08ZM477.703 413.488C475.327 413.488 473.431 411.616 473.431 409.096C473.431 406.576 475.327 404.68 477.703 404.68C480.079 404.68 481.999 406.504 481.999 409.096C481.999 411.688 480.079 413.488 477.703 413.488ZM483.799 415V403.192H482.023V405.136C481.015 403.864 479.479 403 477.631 403C474.199 403 471.559 405.664 471.559 409.096C471.559 412.6 474.103 415.192 477.607 415.192C479.455 415.192 481.015 414.328 482.023 413.056V415H483.799ZM496.622 406.576C496.238 403.768 493.742 403 491.39 403C488.414 403 486.422 404.224 486.422 406.528C486.422 411.256 494.894 408.544 494.894 411.664C494.894 412.912 493.502 413.512 491.606 413.512C489.83 413.512 488.462 413.032 488.054 411.424H486.23C486.638 414.184 488.846 415.192 491.462 415.192C494.318 415.192 496.79 413.944 496.79 411.448C496.79 406.768 488.246 409.216 488.246 406.288C488.246 405.136 489.542 404.704 491.222 404.704C493.166 404.704 494.51 405.28 494.75 406.576H496.622ZM510.584 409.624C510.608 409.456 510.608 409.264 510.608 409.096C510.608 405.472 508.016 403 504.584 403C501.152 403 498.512 405.472 498.512 409.096C498.512 412.72 501.008 415.192 504.56 415.192C507.296 415.192 509.456 413.656 510.368 411.424H508.328C507.56 412.672 506.216 413.488 504.56 413.488C502.256 413.488 500.624 411.976 500.408 409.624H510.584ZM500.456 408.136C500.84 406.048 502.448 404.68 504.56 404.68C506.624 404.68 508.304 406.048 508.616 408.136H500.456ZM149.098 437.488C146.722 437.488 144.826 435.616 144.826 433.096C144.826 430.576 146.722 428.68 149.098 428.68C151.474 428.68 153.394 430.504 153.394 433.096C153.394 435.688 151.474 437.488 149.098 437.488ZM155.194 439V427.192H153.418V429.136C152.41 427.864 150.874 427 149.026 427C145.594 427 142.954 429.664 142.954 433.096C142.954 436.6 145.498 439.192 149.002 439.192C150.85 439.192 152.41 438.328 153.418 437.056V439H155.194ZM164.513 437.488C162.137 437.488 160.217 435.616 160.217 433.096C160.217 430.576 162.137 428.68 164.513 428.68C166.889 428.68 168.785 430.648 168.785 433.096C168.785 435.544 166.889 437.488 164.513 437.488ZM160.241 443.416V437.152C161.225 438.376 162.713 439.192 164.537 439.192C167.969 439.192 170.657 436.504 170.657 433.072C170.657 429.64 168.041 427 164.609 427C162.737 427 161.201 427.864 160.193 429.16V427.192H158.417V443.416H160.241ZM179.231 437.488C176.855 437.488 174.935 435.616 174.935 433.096C174.935 430.576 176.855 428.68 179.231 428.68C181.607 428.68 183.503 430.648 183.503 433.096C183.503 435.544 181.607 437.488 179.231 437.488ZM174.959 443.416V437.152C175.943 438.376 177.431 439.192 179.255 439.192C182.687 439.192 185.375 436.504 185.375 433.072C185.375 429.64 182.759 427 179.327 427C177.455 427 175.919 427.864 174.911 429.16V427.192H173.135V443.416H174.959ZM189.75 439V422.68H187.926V439H189.75ZM193.945 443.416C196.201 443.416 196.705 442.336 197.545 440.344L203.137 427.192H201.241L197.353 436.672H197.305L193.345 427.192H191.401L196.201 438.28C196.345 438.616 196.369 438.904 196.225 439.264L195.961 439.888C195.433 441.136 195.121 441.712 193.705 441.712H193.081V443.416H193.945ZM214.465 437.488C212.089 437.488 210.193 435.616 210.193 433.096C210.193 430.576 212.089 428.68 214.465 428.68C216.841 428.68 218.761 430.504 218.761 433.096C218.761 435.688 216.841 437.488 214.465 437.488ZM220.561 439V427.192H218.785V429.136C217.777 427.864 216.241 427 214.393 427C210.961 427 208.321 429.664 208.321 433.096C208.321 436.6 210.865 439.192 214.369 439.192C216.217 439.192 217.777 438.328 218.785 437.056V439H220.561ZM228.392 439V437.32H227.696C226.352 437.32 226.04 436.792 226.04 435.448V428.824H228.344V427.192H226.04V424.264H224.216V427.192H222.392V428.824H224.216V435.64C224.216 438.016 225.056 439 227.456 439H228.392ZM243.853 434.992C243.157 436.48 241.693 437.488 239.965 437.488C237.589 437.488 235.693 435.544 235.693 433.096C235.693 430.648 237.589 428.68 239.965 428.68C241.669 428.68 243.133 429.688 243.829 431.152H245.821C245.029 428.704 242.725 427 239.965 427C236.533 427 233.821 429.664 233.821 433.096C233.821 436.528 236.533 439.192 239.965 439.192C242.749 439.192 245.053 437.488 245.821 434.992H243.853ZM250.008 439V422.68H248.184V439H250.008ZM264.643 433.624C264.667 433.456 264.667 433.264 264.667 433.096C264.667 429.472 262.075 427 258.643 427C255.211 427 252.571 429.472 252.571 433.096C252.571 436.72 255.067 439.192 258.619 439.192C261.355 439.192 263.515 437.656 264.427 435.424H262.387C261.619 436.672 260.275 437.488 258.619 437.488C256.315 437.488 254.683 435.976 254.467 433.624H264.643ZM254.515 432.136C254.899 430.048 256.507 428.68 258.619 428.68C260.683 428.68 262.363 430.048 262.675 432.136H254.515ZM272.543 437.488C270.167 437.488 268.271 435.616 268.271 433.096C268.271 430.576 270.167 428.68 272.543 428.68C274.919 428.68 276.839 430.504 276.839 433.096C276.839 435.688 274.919 437.488 272.543 437.488ZM278.639 439V427.192H276.863V429.136C275.855 427.864 274.319 427 272.471 427C269.039 427 266.399 429.664 266.399 433.096C266.399 436.6 268.943 439.192 272.447 439.192C274.295 439.192 275.855 438.328 276.863 437.056V439H278.639ZM283.686 439V431.656C283.686 430.216 284.358 428.824 285.966 428.824C286.47 428.824 286.854 428.992 287.166 429.16L288.15 427.48C287.838 427.24 287.214 427 286.398 427C285.03 427 284.214 427.696 283.662 428.536V427.192H281.862V439H283.686ZM295.856 437.488C293.48 437.488 291.56 435.616 291.56 433.096C291.56 430.576 293.48 428.68 295.856 428.68C298.232 428.68 300.128 430.648 300.128 433.096C300.128 435.544 298.232 437.488 295.856 437.488ZM291.584 443.416V437.152C292.568 438.376 294.056 439.192 295.88 439.192C299.312 439.192 302 436.504 302 433.072C302 429.64 299.384 427 295.952 427C294.08 427 292.544 427.864 291.536 429.16V427.192H289.76V443.416H291.584ZM309.879 437.488C307.503 437.488 305.607 435.616 305.607 433.096C305.607 430.576 307.503 428.68 309.879 428.68C312.255 428.68 314.175 430.504 314.175 433.096C314.175 435.688 312.255 437.488 309.879 437.488ZM315.975 439V427.192H314.199V429.136C313.191 427.864 311.655 427 309.807 427C306.375 427 303.735 429.664 303.735 433.096C303.735 436.6 306.279 439.192 309.783 439.192C311.631 439.192 313.191 438.328 314.199 437.056V439H315.975ZM320.086 443.416C322.342 443.416 322.846 442.336 323.686 440.344L329.278 427.192H327.382L323.494 436.672H323.446L319.486 427.192H317.542L322.342 438.28C322.486 438.616 322.51 438.904 322.366 439.264L322.102 439.888C321.574 441.136 321.262 441.712 319.846 441.712H319.222V443.416H320.086ZM331.126 437.848C331.126 437.056 330.502 436.432 329.734 436.432C328.966 436.432 328.366 437.056 328.366 437.848C328.366 438.592 328.966 439.192 329.734 439.192C330.502 439.192 331.126 438.592 331.126 437.848ZM342.572 434.992C341.876 436.48 340.412 437.488 338.684 437.488C336.308 437.488 334.412 435.544 334.412 433.096C334.412 430.648 336.308 428.68 338.684 428.68C340.388 428.68 341.852 429.688 342.548 431.152H344.54C343.748 428.704 341.444 427 338.684 427C335.252 427 332.54 429.664 332.54 433.096C332.54 436.528 335.252 439.192 338.684 439.192C341.468 439.192 343.772 437.488 344.54 434.992H342.572ZM358.375 433.096C358.375 429.664 355.663 427 352.231 427C348.799 427 346.087 429.664 346.087 433.096C346.087 436.528 348.799 439.192 352.231 439.192C355.663 439.192 358.375 436.528 358.375 433.096ZM352.231 437.488C349.855 437.488 347.959 435.544 347.959 433.096C347.959 430.648 349.855 428.68 352.231 428.68C354.607 428.68 356.527 430.648 356.527 433.096C356.527 435.544 354.607 437.488 352.231 437.488ZM362.532 437.848C362.532 437.056 361.908 436.432 361.14 436.432C360.372 436.432 359.772 437.056 359.772 437.848C359.772 438.592 360.372 439.192 361.14 439.192C361.908 439.192 362.532 438.592 362.532 437.848ZM374.404 439V427.192H372.58V434.944C372.58 436.24 371.476 437.488 369.532 437.488C367.708 437.488 366.748 436.432 366.748 434.944V427.192H364.924V435.064C364.924 437.464 366.388 439.192 369.148 439.192C371.02 439.192 372.1 438.328 372.604 437.56V439H374.404ZM388.14 439L382.764 431.704L387.708 427.192H385.428L379.524 432.664H379.452V422.68H377.628V439H379.452V434.728L381.396 432.952L385.86 439H388.14ZM389.557 439.144L397.789 422.584H396.205L387.949 439.144H389.557ZM404.009 439V437.32H403.313C401.969 437.32 401.657 436.792 401.657 435.448V428.824H403.961V427.192H401.657V424.264H399.833V427.192H398.009V428.824H399.833V435.64C399.833 438.016 400.673 439 403.073 439H404.009ZM417.198 433.624C417.222 433.456 417.222 433.264 417.222 433.096C417.222 429.472 414.63 427 411.198 427C407.766 427 405.126 429.472 405.126 433.096C405.126 436.72 407.622 439.192 411.174 439.192C413.91 439.192 416.07 437.656 416.982 435.424H414.942C414.174 436.672 412.83 437.488 411.174 437.488C408.87 437.488 407.238 435.976 407.022 433.624H417.198ZM407.07 432.136C407.454 430.048 409.062 428.68 411.174 428.68C413.238 428.68 414.918 430.048 415.23 432.136H407.07ZM421.522 439V431.656C421.522 430.216 422.194 428.824 423.802 428.824C424.306 428.824 424.69 428.992 425.002 429.16L425.986 427.48C425.674 427.24 425.05 427 424.234 427C422.866 427 422.05 427.696 421.498 428.536V427.192H419.698V439H421.522ZM444.06 439V431.128C444.06 428.728 442.764 427 440.004 427C438.228 427 437.172 427.816 436.332 429.064C435.756 427.792 434.556 427 432.684 427C430.812 427 429.9 427.864 429.396 428.632V427.192H427.596V439H429.42V431.248C429.42 429.952 430.356 428.704 432.3 428.704C434.124 428.704 434.916 429.76 434.916 431.248V439H436.74V431.152C436.74 429.904 437.724 428.704 439.62 428.704C441.444 428.704 442.236 429.76 442.236 431.248V439H444.06ZM456.884 430.576C456.5 427.768 454.004 427 451.652 427C448.676 427 446.684 428.224 446.684 430.528C446.684 435.256 455.156 432.544 455.156 435.664C455.156 436.912 453.764 437.512 451.868 437.512C450.092 437.512 448.724 437.032 448.316 435.424H446.492C446.9 438.184 449.108 439.192 451.724 439.192C454.58 439.192 457.052 437.944 457.052 435.448C457.052 430.768 448.508 433.216 448.508 430.288C448.508 429.136 449.804 428.704 451.484 428.704C453.428 428.704 454.772 429.28 455.012 430.576H456.884Z" fill="black"/>
<path d="M251.215 260V253.526H255.609C259.275 253.526 262.057 251.368 262.057 247.832C262.057 244.348 259.587 242.32 255.739 242.32H247.783V260H251.215ZM251.215 250.718V245.206H255.557C257.351 245.206 258.573 246.35 258.573 247.858C258.573 249.47 257.351 250.718 255.531 250.718H251.215ZM269.579 257.218C267.629 257.218 266.043 255.632 266.043 253.5C266.043 251.342 267.629 249.782 269.579 249.782C271.529 249.782 273.115 251.316 273.115 253.5C273.115 255.684 271.529 257.218 269.579 257.218ZM276.339 260V247H273.141V248.638C272.179 247.494 270.775 246.766 269.111 246.766C265.575 246.766 262.767 249.678 262.767 253.5C262.767 257.348 265.471 260.208 269.033 260.208C270.749 260.208 272.179 259.48 273.141 258.31V260H276.339ZM280.386 264.784C284.156 264.784 284.598 263.224 286.184 259.194L291.02 247H287.744L284.39 255.996L280.932 247H277.552L282.388 259.116C282.544 259.532 282.57 259.74 282.492 260.13C282.232 261.482 281.374 261.924 280.49 261.924H279.424V264.784H280.386ZM298.675 245.388C299.689 245.388 300.547 244.53 300.547 243.516C300.547 242.528 299.689 241.644 298.675 241.644C297.661 241.644 296.803 242.528 296.803 243.516C296.803 244.53 297.661 245.388 298.675 245.388ZM300.287 260V247H297.011V260H300.287ZM309.033 260V257.114H308.383C307.265 257.114 306.953 256.698 306.953 255.606V249.834H309.007V247H306.953V243.828H303.677V247H301.987V249.834H303.677V256.204C303.677 258.856 304.691 260 307.343 260H309.033ZM317.261 245.388C318.275 245.388 319.133 244.53 319.133 243.516C319.133 242.528 318.275 241.644 317.261 241.644C316.247 241.644 315.389 242.528 315.389 243.516C315.389 244.53 316.247 245.388 317.261 245.388ZM318.873 260V247H315.597V260H318.873ZM332.845 260V251.316C332.845 248.534 331.207 246.766 328.425 246.766C326.475 246.766 325.279 247.858 324.811 248.638V247H321.613V260H324.915V251.888C324.915 250.562 325.955 249.704 327.307 249.704C328.607 249.704 329.569 250.484 329.569 251.914V260H332.845ZM350.937 260V256.62H353.069V253.89H350.937V249.678H348.181L347.765 253.89H343.059L350.079 242.32H346.335L339.523 254.098V256.62H347.791V260H350.937ZM163.071 270.816C163.799 270.816 164.423 270.218 164.423 269.464C164.423 268.736 163.799 268.112 163.071 268.112C162.317 268.112 161.719 268.736 161.719 269.464C161.719 270.218 162.317 270.816 163.071 270.816ZM164.059 286V273.208H162.083V286H164.059ZM177.911 286V277.55C177.911 274.95 176.325 273 173.335 273C171.307 273 170.137 274.014 169.591 274.846V273.208H167.641V286H169.617V277.68C169.617 276.276 170.813 274.846 172.919 274.846C174.895 274.846 175.935 276.068 175.935 277.68V286H177.911ZM186.268 286V284.18H185.514C184.058 284.18 183.72 283.608 183.72 282.152V274.976H186.216V273.208H183.72V270.036H181.744V273.208H179.768V274.976H181.744V282.36C181.744 284.934 182.654 286 185.254 286H186.268ZM200.556 280.176C200.582 279.994 200.582 279.786 200.582 279.604C200.582 275.678 197.774 273 194.056 273C190.338 273 187.478 275.678 187.478 279.604C187.478 283.53 190.182 286.208 194.03 286.208C196.994 286.208 199.334 284.544 200.322 282.126H198.112C197.28 283.478 195.824 284.362 194.03 284.362C191.534 284.362 189.766 282.724 189.532 280.176H200.556ZM189.584 278.564C190 276.302 191.742 274.82 194.03 274.82C196.266 274.82 198.086 276.302 198.424 278.564H189.584ZM205.24 286V278.044C205.24 276.484 205.968 274.976 207.71 274.976C208.256 274.976 208.672 275.158 209.01 275.34L210.076 273.52C209.738 273.26 209.062 273 208.178 273C206.696 273 205.812 273.754 205.214 274.664V273.208H203.264V286H205.24ZM223.585 280.176C223.611 279.994 223.611 279.786 223.611 279.604C223.611 275.678 220.803 273 217.085 273C213.367 273 210.507 275.678 210.507 279.604C210.507 283.53 213.211 286.208 217.059 286.208C220.023 286.208 222.363 284.544 223.351 282.126H221.141C220.309 283.478 218.853 284.362 217.059 284.362C214.563 284.362 212.795 282.724 212.561 280.176H223.585ZM212.613 278.564C213.029 276.302 214.771 274.82 217.059 274.82C219.295 274.82 221.115 276.302 221.453 278.564H212.613ZM236.694 276.874C236.278 273.832 233.574 273 231.026 273C227.802 273 225.644 274.326 225.644 276.822C225.644 281.944 234.822 279.006 234.822 282.386C234.822 283.738 233.314 284.388 231.26 284.388C229.336 284.388 227.854 283.868 227.412 282.126H225.436C225.878 285.116 228.27 286.208 231.104 286.208C234.198 286.208 236.876 284.856 236.876 282.152C236.876 277.082 227.62 279.734 227.62 276.562C227.62 275.314 229.024 274.846 230.844 274.846C232.95 274.846 234.406 275.47 234.666 276.874H236.694ZM244.54 286V284.18H243.786C242.33 284.18 241.992 283.608 241.992 282.152V274.976H244.488V273.208H241.992V270.036H240.016V273.208H238.04V274.976H240.016V282.36C240.016 284.934 240.926 286 243.526 286H244.54ZM252.275 280.176V278.46H245.697V280.176H252.275ZM257.614 286V274.976H260.864V273.208H257.614V272.194C257.614 270.738 258.16 270.14 259.642 270.14H260.942V268.32H259.46C256.782 268.32 255.612 269.412 255.612 272.09V273.208H253.376V274.976H255.612V286H257.614ZM264.655 286V278.044C264.655 276.484 265.383 274.976 267.125 274.976C267.671 274.976 268.087 275.158 268.425 275.34L269.491 273.52C269.153 273.26 268.477 273 267.593 273C266.111 273 265.227 273.754 264.629 274.664V273.208H262.679V286H264.655ZM282.999 280.176C283.025 279.994 283.025 279.786 283.025 279.604C283.025 275.678 280.217 273 276.499 273C272.781 273 269.921 275.678 269.921 279.604C269.921 283.53 272.625 286.208 276.473 286.208C279.437 286.208 281.777 284.544 282.765 282.126H280.555C279.723 283.478 278.267 284.362 276.473 284.362C273.977 284.362 272.209 282.724 271.975 280.176H282.999ZM272.027 278.564C272.443 276.302 274.185 274.82 276.473 274.82C278.709 274.82 280.529 276.302 280.867 278.564H272.027ZM297.98 280.176C298.006 279.994 298.006 279.786 298.006 279.604C298.006 275.678 295.198 273 291.48 273C287.762 273 284.902 275.678 284.902 279.604C284.902 283.53 287.606 286.208 291.454 286.208C294.418 286.208 296.758 284.544 297.746 282.126H295.536C294.704 283.478 293.248 284.362 291.454 284.362C288.958 284.362 287.19 282.724 286.956 280.176H297.98ZM287.008 278.564C287.424 276.302 289.166 274.82 291.454 274.82C293.69 274.82 295.51 276.302 295.848 278.564H287.008ZM306.426 270.816C307.154 270.816 307.778 270.218 307.778 269.464C307.778 268.736 307.154 268.112 306.426 268.112C305.672 268.112 305.074 268.736 305.074 269.464C305.074 270.218 305.672 270.816 306.426 270.816ZM307.414 286V273.208H305.438V286H307.414ZM321.267 286V277.55C321.267 274.95 319.681 273 316.691 273C314.663 273 313.493 274.014 312.947 274.846V273.208H310.997V286H312.973V277.68C312.973 276.276 314.169 274.846 316.275 274.846C318.251 274.846 319.291 276.068 319.291 277.68V286H321.267ZM335.159 276.874C334.743 273.832 332.039 273 329.491 273C326.267 273 324.109 274.326 324.109 276.822C324.109 281.944 333.287 279.006 333.287 282.386C333.287 283.738 331.779 284.388 329.725 284.388C327.801 284.388 326.319 283.868 325.877 282.126H323.901C324.343 285.116 326.735 286.208 329.569 286.208C332.663 286.208 335.341 284.856 335.341 282.152C335.341 277.082 326.085 279.734 326.085 276.562C326.085 275.314 327.489 274.846 329.309 274.846C331.415 274.846 332.871 275.47 333.131 276.874H335.159ZM343.005 286V284.18H342.251C340.795 284.18 340.457 283.608 340.457 282.152V274.976H342.953V273.208H340.457V270.036H338.481V273.208H336.505V274.976H338.481V282.36C338.481 284.934 339.391 286 341.991 286H343.005ZM350.87 284.362C348.296 284.362 346.242 282.334 346.242 279.604C346.242 276.874 348.296 274.82 350.87 274.82C353.444 274.82 355.524 276.796 355.524 279.604C355.524 282.412 353.444 284.362 350.87 284.362ZM357.474 286V273.208H355.55V275.314C354.458 273.936 352.794 273 350.792 273C347.074 273 344.214 275.886 344.214 279.604C344.214 283.4 346.97 286.208 350.766 286.208C352.768 286.208 354.458 285.272 355.55 283.894V286H357.474ZM363.02 286V268.32H361.044V286H363.02ZM384.438 286V277.472C384.438 274.872 383.034 273 380.044 273C378.12 273 376.976 273.884 376.066 275.236C375.442 273.858 374.142 273 372.114 273C370.086 273 369.098 273.936 368.552 274.768V273.208H366.602V286H368.578V277.602C368.578 276.198 369.592 274.846 371.698 274.846C373.674 274.846 374.532 275.99 374.532 277.602V286H376.508V277.498C376.508 276.146 377.574 274.846 379.628 274.846C381.604 274.846 382.462 275.99 382.462 277.602V286H384.438ZM400.202 280.176C400.228 279.994 400.228 279.786 400.228 279.604C400.228 275.678 397.42 273 393.702 273C389.984 273 387.124 275.678 387.124 279.604C387.124 283.53 389.828 286.208 393.676 286.208C396.64 286.208 398.98 284.544 399.968 282.126H397.758C396.926 283.478 395.47 284.362 393.676 284.362C391.18 284.362 389.412 282.724 389.178 280.176H400.202ZM389.23 278.564C389.646 276.302 391.388 274.82 393.676 274.82C395.912 274.82 397.732 276.302 398.07 278.564H389.23ZM413.181 286V277.55C413.181 274.95 411.595 273 408.605 273C406.577 273 405.407 274.014 404.861 274.846V273.208H402.911V286H404.887V277.68C404.887 276.276 406.083 274.846 408.189 274.846C410.165 274.846 411.205 276.068 411.205 277.68V286H413.181ZM421.538 286V284.18H420.784C419.328 284.18 418.99 283.608 418.99 282.152V274.976H421.486V273.208H418.99V270.036H417.014V273.208H415.038V274.976H417.014V282.36C417.014 284.934 417.924 286 420.524 286H421.538ZM433.954 276.874C433.538 273.832 430.834 273 428.286 273C425.062 273 422.904 274.326 422.904 276.822C422.904 281.944 432.082 279.006 432.082 282.386C432.082 283.738 430.574 284.388 428.52 284.388C426.596 284.388 425.114 283.868 424.672 282.126H422.696C423.138 285.116 425.53 286.208 428.364 286.208C431.458 286.208 434.136 284.856 434.136 282.152C434.136 277.082 424.88 279.734 424.88 276.562C424.88 275.314 426.284 274.846 428.104 274.846C430.21 274.846 431.666 275.47 431.926 276.874H433.954ZM438.887 284.752C438.887 283.894 438.211 283.218 437.379 283.218C436.547 283.218 435.897 283.894 435.897 284.752C435.897 285.558 436.547 286.208 437.379 286.208C438.211 286.208 438.887 285.558 438.887 284.752Z" fill="black"/>
<path d="M356.794 220.271H243.245C227.092 220.271 214 207.178 214 191.026C214 174.873 227.092 161.78 243.245 161.78H356.794C372.947 161.78 386.039 174.873 386.039 191.026C386.05 207.168 372.947 220.271 356.794 220.271Z" fill="#B2FCE4"/>
<path d="M337.1 184.743L328.482 202.522H324.911L328.131 195.88L323.073 184.743H326.739L329.991 192.203L333.54 184.743H337.1Z" fill="black"/>
<path d="M304.306 191.057C304.306 189.017 302.765 187.444 300.874 187.444C298.982 187.444 297.441 188.963 297.441 191.057C297.441 193.129 298.982 194.67 300.874 194.67C302.765 194.67 304.306 193.097 304.306 191.057ZM294.306 202.523V184.745H297.409V186.381C298.344 185.223 299.737 184.511 301.394 184.511C304.806 184.511 307.484 187.316 307.484 191.025C307.484 194.734 304.752 197.561 301.32 197.561C299.726 197.561 298.419 196.934 297.505 195.871V202.513H294.306V202.523Z" fill="black"/>
<path d="M318.684 191.056C318.684 188.931 317.143 187.443 315.252 187.443C313.36 187.443 311.819 188.963 311.819 191.056C311.819 193.128 313.36 194.669 315.252 194.669C317.143 194.669 318.684 193.171 318.684 191.056ZM318.705 197.368V195.732C317.77 196.869 316.378 197.57 314.72 197.57C311.256 197.57 308.631 194.797 308.631 191.056C308.631 187.347 311.362 184.521 314.795 184.521C316.41 184.521 317.77 185.233 318.705 186.338V184.744H321.808V197.368H318.705Z" fill="black"/>
<path d="M288.705 185.977C288.705 185.977 289.491 184.511 291.436 184.511C292.265 184.511 292.796 184.798 292.796 184.798V188.018C292.796 188.018 291.627 187.295 290.554 187.444C289.481 187.593 288.801 188.57 288.801 189.888V197.369H285.591V184.745H288.694V185.977H288.705Z" fill="black"/>
<path d="M361.202 184.031L357.525 181.927L353.795 179.791C351.33 178.378 348.248 180.152 348.248 183V183.478C348.248 183.744 348.386 183.989 348.62 184.116L350.352 185.104C350.83 185.381 351.425 185.03 351.425 184.477V183.34C351.425 182.777 352.031 182.426 352.52 182.703L355.92 184.658L359.31 186.603C359.799 186.879 359.799 187.591 359.31 187.867L355.92 189.812L352.52 191.767C352.031 192.044 351.425 191.693 351.425 191.13V190.567C351.425 187.719 348.343 185.933 345.878 187.357L342.148 189.493L338.471 191.597C335.995 193.021 335.995 196.603 338.471 198.027L342.148 200.131L345.878 202.267C348.343 203.68 351.425 201.906 351.425 199.057V198.579C351.425 198.314 351.287 198.069 351.053 197.942L349.321 196.953C348.843 196.677 348.248 197.028 348.248 197.58V198.717C348.248 199.281 347.642 199.631 347.153 199.355L343.753 197.4L340.363 195.455C339.874 195.179 339.874 194.467 340.363 194.19L343.753 192.246L347.153 190.29C347.642 190.014 348.248 190.365 348.248 190.928V191.491C348.248 194.339 351.33 196.124 353.795 194.7L357.525 192.564L361.202 190.46C363.678 189.026 363.678 185.455 361.202 184.031Z" fill="black"/>
<path d="M249.919 192.659C249.239 195.56 246.741 197.558 243.511 197.558C239.781 197.558 236.975 194.752 236.975 191.043C236.975 187.335 239.823 184.508 243.564 184.508C246.72 184.508 249.186 186.506 249.898 189.354H246.614C246.029 188.217 244.871 187.462 243.585 187.462C241.715 187.462 240.153 189.003 240.153 191.043C240.153 193.084 241.715 194.625 243.585 194.625C244.924 194.625 246.083 193.87 246.635 192.659H249.919Z" fill="black"/>
<path d="M251.394 197.357V179.546H254.571V197.357H251.394Z" fill="black"/>
<path d="M259.354 191.883C259.578 193.753 260.917 194.805 262.606 194.805C263.945 194.805 264.976 194.178 265.582 193.169H268.834C268.079 195.847 265.677 197.558 262.521 197.558C258.706 197.558 256.039 194.88 256.039 191.075C256.039 187.271 258.866 184.519 262.596 184.519C266.358 184.519 269.078 187.292 269.078 191.075C269.078 191.352 269.057 191.628 269.004 191.883H259.354V191.883ZM265.688 189.906C265.465 188.27 264.126 187.282 262.564 187.282C261.002 187.282 259.716 188.238 259.386 189.906H265.688Z" fill="black"/>
<path d="M280.427 197.356V195.719C279.492 196.856 278.111 197.558 276.442 197.558C272.988 197.558 270.364 194.784 270.364 191.043C270.364 187.335 273.084 184.508 276.517 184.508C278.132 184.508 279.492 185.209 280.427 186.325V184.731H283.53V197.345H280.427V197.356ZM280.395 191.043C280.395 188.929 278.855 187.43 276.963 187.43C275.071 187.43 273.53 188.939 273.53 191.043C273.53 193.116 275.071 194.657 276.963 194.657C278.855 194.657 280.395 193.169 280.395 191.043Z" fill="black"/>
</svg>
