<svg width="600" height="449" viewBox="0 0 600 449" fill="none" xmlns="http://www.w3.org/2000/svg">
<rect width="600" height="449" fill="white"/>
<path d="M209.965 274V271.036H200.319V266.538H207.313V263.6H200.319V259.284H209.965V256.32H196.887V274H209.965ZM217.186 271.218C215.236 271.218 213.65 269.632 213.65 267.5C213.65 265.342 215.236 263.782 217.186 263.782C219.136 263.782 220.722 265.316 220.722 267.5C220.722 269.684 219.136 271.218 217.186 271.218ZM223.946 274V261H220.748V262.638C219.786 261.494 218.382 260.766 216.718 260.766C213.182 260.766 210.374 263.678 210.374 267.5C210.374 271.348 213.078 274.208 216.64 274.208C218.356 274.208 219.786 273.48 220.748 272.31V274H223.946ZM232.595 274V271.114H231.945C230.827 271.114 230.515 270.698 230.515 269.606V263.834H232.569V261H230.515V257.828H227.239V261H225.549V263.834H227.239V270.204C227.239 272.856 228.253 274 230.905 274H232.595ZM250.338 274V265.316C250.338 262.534 248.7 260.766 245.918 260.766C243.968 260.766 242.772 261.858 242.304 262.638V261H239.106V274H242.408V265.888C242.408 264.562 243.448 263.704 244.8 263.704C246.1 263.704 247.062 264.484 247.062 265.914V274H250.338ZM265.968 267.5C265.968 263.678 263.004 260.766 259.156 260.766C255.282 260.766 252.344 263.678 252.344 267.5C252.344 271.322 255.282 274.208 259.156 274.208C263.004 274.208 265.968 271.322 265.968 267.5ZM259.156 271.192C257.232 271.192 255.62 269.606 255.62 267.5C255.62 265.394 257.232 263.808 259.156 263.808C261.08 263.808 262.666 265.394 262.666 267.5C262.666 269.606 261.08 271.192 259.156 271.192ZM281.869 274L285.925 261H282.597L280.075 269.502H280.049L277.423 261H275.109L272.353 269.424H272.301L269.883 261H266.477L270.325 274H273.315L276.097 265.94H276.175L278.853 274H281.869ZM289.43 272.258C289.43 271.166 288.546 270.282 287.454 270.282C286.388 270.282 285.53 271.166 285.53 272.258C285.53 273.324 286.388 274.182 287.454 274.182C288.546 274.182 289.43 273.324 289.43 272.258ZM298.864 274V266.928H304.454C307.834 266.928 310.226 264.64 310.226 261.494C310.226 258.582 308.068 256.32 304.428 256.32H296.784V274H298.864ZM298.864 265.082V258.192H304.35C306.456 258.192 308.042 259.7 308.042 261.546C308.042 263.652 306.43 265.082 304.298 265.082H298.864ZM318.04 272.362C315.466 272.362 313.412 270.334 313.412 267.604C313.412 264.874 315.466 262.82 318.04 262.82C320.614 262.82 322.694 264.796 322.694 267.604C322.694 270.412 320.614 272.362 318.04 272.362ZM324.644 274V261.208H322.72V263.314C321.628 261.936 319.964 261 317.962 261C314.244 261 311.384 263.886 311.384 267.604C311.384 271.4 314.14 274.208 317.936 274.208C319.938 274.208 321.628 273.272 322.72 271.894V274H324.644ZM329.098 278.784C331.542 278.784 332.088 277.614 332.998 275.456L339.056 261.208H337.002L332.79 271.478H332.738L328.448 261.208H326.342L331.542 273.22C331.698 273.584 331.724 273.896 331.568 274.286L331.282 274.962C330.71 276.314 330.372 276.938 328.838 276.938H328.162V278.784H329.098ZM346.543 258.816C347.271 258.816 347.895 258.218 347.895 257.464C347.895 256.736 347.271 256.112 346.543 256.112C345.789 256.112 345.191 256.736 345.191 257.464C345.191 258.218 345.789 258.816 346.543 258.816ZM347.531 274V261.208H345.555V274H347.531ZM356.106 274V272.18H355.352C353.896 272.18 353.558 271.608 353.558 270.152V262.976H356.054V261.208H353.558V258.036H351.582V261.208H349.606V262.976H351.582V270.36C351.582 272.934 352.492 274 355.092 274H356.106ZM363.86 258.816C364.588 258.816 365.212 258.218 365.212 257.464C365.212 256.736 364.588 256.112 363.86 256.112C363.106 256.112 362.508 256.736 362.508 257.464C362.508 258.218 363.106 258.816 363.86 258.816ZM364.848 274V261.208H362.872V274H364.848ZM378.7 274V265.55C378.7 262.95 377.114 261 374.124 261C372.096 261 370.926 262.014 370.38 262.846V261.208H368.43V274H370.406V265.68C370.406 264.276 371.602 262.846 373.708 262.846C375.684 262.846 376.724 264.068 376.724 265.68V274H378.7ZM396.354 274V270.49H399.11V268.722H396.354V264.432H394.534L394.352 268.722H388.294L396.198 256.32H393.832L386.058 268.93V270.49H394.378V274H396.354ZM403.823 272.752C403.823 271.894 403.147 271.218 402.315 271.218C401.483 271.218 400.833 271.894 400.833 272.752C400.833 273.558 401.483 274.208 402.315 274.208C403.147 274.208 403.823 273.558 403.823 272.752Z" fill="black"/>
<path d="M356.794 234.271H243.245C227.092 234.271 214 221.178 214 205.026C214 188.873 227.092 175.78 243.245 175.78H356.794C372.947 175.78 386.039 188.873 386.039 205.026C386.05 221.168 372.947 234.271 356.794 234.271Z" fill="#B2FCE4"/>
<path d="M337.1 198.743L328.482 216.522H324.911L328.131 209.88L323.073 198.743H326.739L329.991 206.203L333.54 198.743H337.1Z" fill="black"/>
<path d="M304.306 205.057C304.306 203.017 302.765 201.444 300.874 201.444C298.982 201.444 297.441 202.963 297.441 205.057C297.441 207.129 298.982 208.67 300.874 208.67C302.765 208.67 304.306 207.097 304.306 205.057ZM294.306 216.523V198.745H297.409V200.381C298.344 199.223 299.737 198.511 301.394 198.511C304.806 198.511 307.484 201.316 307.484 205.025C307.484 208.734 304.752 211.561 301.32 211.561C299.726 211.561 298.419 210.934 297.505 209.871V216.513H294.306V216.523Z" fill="black"/>
<path d="M318.684 205.056C318.684 202.931 317.143 201.443 315.252 201.443C313.36 201.443 311.819 202.963 311.819 205.056C311.819 207.128 313.36 208.669 315.252 208.669C317.143 208.669 318.684 207.171 318.684 205.056ZM318.705 211.368V209.732C317.77 210.869 316.378 211.57 314.72 211.57C311.256 211.57 308.631 208.797 308.631 205.056C308.631 201.347 311.362 198.521 314.795 198.521C316.41 198.521 317.77 199.233 318.705 200.338V198.744H321.808V211.368H318.705Z" fill="black"/>
<path d="M288.705 199.977C288.705 199.977 289.491 198.511 291.436 198.511C292.265 198.511 292.796 198.798 292.796 198.798V202.018C292.796 202.018 291.627 201.295 290.554 201.444C289.481 201.593 288.801 202.57 288.801 203.888V211.369H285.591V198.745H288.694V199.977H288.705Z" fill="black"/>
<path d="M361.202 198.031L357.525 195.927L353.795 193.791C351.33 192.378 348.248 194.152 348.248 197V197.478C348.248 197.744 348.386 197.989 348.62 198.116L350.352 199.104C350.83 199.381 351.425 199.03 351.425 198.477V197.34C351.425 196.777 352.031 196.426 352.52 196.703L355.92 198.658L359.31 200.603C359.799 200.879 359.799 201.591 359.31 201.867L355.92 203.812L352.52 205.767C352.031 206.044 351.425 205.693 351.425 205.13V204.567C351.425 201.719 348.343 199.933 345.878 201.357L342.148 203.493L338.471 205.597C335.995 207.021 335.995 210.603 338.471 212.027L342.148 214.131L345.878 216.267C348.343 217.68 351.425 215.906 351.425 213.057V212.579C351.425 212.314 351.287 212.069 351.053 211.942L349.321 210.953C348.843 210.677 348.248 211.028 348.248 211.58V212.717C348.248 213.281 347.642 213.631 347.153 213.355L343.753 211.4L340.363 209.455C339.874 209.179 339.874 208.467 340.363 208.19L343.753 206.246L347.153 204.29C347.642 204.014 348.248 204.365 348.248 204.928V205.491C348.248 208.339 351.33 210.124 353.795 208.7L357.525 206.564L361.202 204.46C363.678 203.026 363.678 199.455 361.202 198.031Z" fill="black"/>
<path d="M249.919 206.659C249.239 209.56 246.741 211.558 243.511 211.558C239.781 211.558 236.975 208.752 236.975 205.043C236.975 201.335 239.823 198.508 243.564 198.508C246.72 198.508 249.186 200.506 249.898 203.354H246.614C246.029 202.217 244.871 201.462 243.585 201.462C241.715 201.462 240.153 203.003 240.153 205.043C240.153 207.084 241.715 208.625 243.585 208.625C244.924 208.625 246.083 207.87 246.635 206.659H249.919Z" fill="black"/>
<path d="M251.394 211.357V193.546H254.571V211.357H251.394Z" fill="black"/>
<path d="M259.354 205.883C259.578 207.753 260.917 208.805 262.606 208.805C263.945 208.805 264.976 208.178 265.582 207.169H268.834C268.079 209.847 265.677 211.558 262.521 211.558C258.706 211.558 256.039 208.88 256.039 205.075C256.039 201.271 258.866 198.519 262.596 198.519C266.358 198.519 269.078 201.292 269.078 205.075C269.078 205.352 269.057 205.628 269.004 205.883H259.354V205.883ZM265.688 203.906C265.465 202.27 264.126 201.282 262.564 201.282C261.002 201.282 259.716 202.238 259.386 203.906H265.688Z" fill="black"/>
<path d="M280.427 211.356V209.719C279.492 210.856 278.111 211.558 276.442 211.558C272.988 211.558 270.364 208.784 270.364 205.043C270.364 201.335 273.084 198.508 276.517 198.508C278.132 198.508 279.492 199.209 280.427 200.325V198.731H283.53V211.345H280.427V211.356ZM280.395 205.043C280.395 202.929 278.855 201.43 276.963 201.43C275.071 201.43 273.53 202.939 273.53 205.043C273.53 207.116 275.071 208.657 276.963 208.657C278.855 208.657 280.395 207.169 280.395 205.043Z" fill="black"/>
<path d="M64.0324 410.32C62.9044 412.216 60.8644 413.464 58.4644 413.464C54.7684 413.464 51.9604 410.536 51.9604 406.84C51.9604 403.144 54.7684 400.216 58.4644 400.216C60.8884 400.216 62.8324 401.464 63.9364 403.336H66.1444C64.8004 400.432 61.8724 398.488 58.4644 398.488C53.7844 398.488 50.0164 402.112 50.0164 406.912C50.0164 411.616 53.6404 415.192 58.4644 415.192C62.0404 415.192 64.9444 413.248 66.2164 410.32H64.0324ZM70.2501 415V398.68H68.4261V415H70.2501ZM84.8852 409.624C84.9092 409.456 84.9092 409.264 84.9092 409.096C84.9092 405.472 82.3172 403 78.8852 403C75.4532 403 72.8132 405.472 72.8132 409.096C72.8132 412.72 75.3092 415.192 78.8612 415.192C81.5972 415.192 83.7572 413.656 84.6692 411.424H82.6292C81.8612 412.672 80.5172 413.488 78.8612 413.488C76.5572 413.488 74.9252 411.976 74.7092 409.624H84.8852ZM74.7572 408.136C75.1412 406.048 76.7492 404.68 78.8612 404.68C80.9252 404.68 82.6052 406.048 82.9172 408.136H74.7572ZM92.7853 413.488C90.4093 413.488 88.5133 411.616 88.5133 409.096C88.5133 406.576 90.4093 404.68 92.7853 404.68C95.1613 404.68 97.0813 406.504 97.0813 409.096C97.0813 411.688 95.1613 413.488 92.7853 413.488ZM98.8813 415V403.192H97.1053V405.136C96.0973 403.864 94.5613 403 92.7133 403C89.2813 403 86.6413 405.664 86.6413 409.096C86.6413 412.6 89.1853 415.192 92.6893 415.192C94.5373 415.192 96.0973 414.328 97.1053 413.056V415H98.8813ZM103.928 415V407.656C103.928 406.216 104.6 404.824 106.208 404.824C106.712 404.824 107.096 404.992 107.408 405.16L108.392 403.48C108.08 403.24 107.456 403 106.64 403C105.272 403 104.456 403.696 103.904 404.536V403.192H102.104V415H103.928ZM116.099 413.488C113.723 413.488 111.803 411.616 111.803 409.096C111.803 406.576 113.723 404.68 116.099 404.68C118.475 404.68 120.371 406.648 120.371 409.096C120.371 411.544 118.475 413.488 116.099 413.488ZM111.827 419.416V413.152C112.811 414.376 114.299 415.192 116.123 415.192C119.555 415.192 122.243 412.504 122.243 409.072C122.243 405.64 119.627 403 116.195 403C114.323 403 112.787 403.864 111.779 405.16V403.192H110.003V419.416H111.827ZM130.121 413.488C127.745 413.488 125.849 411.616 125.849 409.096C125.849 406.576 127.745 404.68 130.121 404.68C132.497 404.68 134.417 406.504 134.417 409.096C134.417 411.688 132.497 413.488 130.121 413.488ZM136.217 415V403.192H134.441V405.136C133.433 403.864 131.897 403 130.049 403C126.617 403 123.977 405.664 123.977 409.096C123.977 412.6 126.521 415.192 130.025 415.192C131.873 415.192 133.433 414.328 134.441 413.056V415H136.217ZM140.328 419.416C142.584 419.416 143.088 418.336 143.928 416.344L149.52 403.192H147.624L143.736 412.672H143.688L139.728 403.192H137.784L142.584 414.28C142.728 414.616 142.752 414.904 142.608 415.264L142.344 415.888C141.816 417.136 141.504 417.712 140.088 417.712H139.464V419.416H140.328ZM156.432 400.984C157.104 400.984 157.68 400.432 157.68 399.736C157.68 399.064 157.104 398.488 156.432 398.488C155.736 398.488 155.184 399.064 155.184 399.736C155.184 400.432 155.736 400.984 156.432 400.984ZM157.344 415V403.192H155.52V415H157.344ZM170.251 406.576C169.867 403.768 167.371 403 165.019 403C162.043 403 160.051 404.224 160.051 406.528C160.051 411.256 168.523 408.544 168.523 411.664C168.523 412.912 167.131 413.512 165.235 413.512C163.459 413.512 162.091 413.032 161.683 411.424H159.859C160.267 414.184 162.475 415.192 165.091 415.192C167.947 415.192 170.419 413.944 170.419 411.448C170.419 406.768 161.875 409.216 161.875 406.288C161.875 405.136 163.171 404.704 164.851 404.704C166.795 404.704 168.139 405.28 168.379 406.576H170.251ZM186.678 415V403.192H184.854V410.944C184.854 412.24 183.75 413.488 181.806 413.488C179.982 413.488 179.022 412.432 179.022 410.944V403.192H177.198V411.064C177.198 413.464 178.662 415.192 181.422 415.192C183.294 415.192 184.374 414.328 184.878 413.56V415H186.678ZM199.381 415V407.2C199.381 404.8 197.917 403 195.157 403C193.285 403 192.205 403.936 191.701 404.704V403.192H189.901V415H191.725V407.32C191.725 406.024 192.829 404.704 194.773 404.704C196.597 404.704 197.557 405.832 197.557 407.32V415H199.381ZM204.428 415V407.656C204.428 406.216 205.1 404.824 206.708 404.824C207.212 404.824 207.596 404.992 207.908 405.16L208.892 403.48C208.58 403.24 207.956 403 207.14 403C205.772 403 204.956 403.696 204.404 404.536V403.192H202.604V415H204.428ZM221.362 409.624C221.386 409.456 221.386 409.264 221.386 409.096C221.386 405.472 218.794 403 215.362 403C211.93 403 209.29 405.472 209.29 409.096C209.29 412.72 211.786 415.192 215.338 415.192C218.074 415.192 220.234 413.656 221.146 411.424H219.106C218.338 412.672 216.994 413.488 215.338 413.488C213.034 413.488 211.402 411.976 211.186 409.624H221.362ZM211.234 408.136C211.618 406.048 213.226 404.68 215.338 404.68C217.402 404.68 219.082 406.048 219.394 408.136H211.234ZM230.702 419.416C233.654 419.416 235.358 417.784 235.358 414.808V403.192H233.582V405.16C232.574 403.888 231.086 403 229.238 403C225.806 403 223.118 405.664 223.118 409.096C223.118 412.528 225.806 415.192 229.238 415.192C231.038 415.192 232.526 414.328 233.534 413.104V414.712C233.534 416.872 232.43 417.712 230.462 417.712H228.854V419.416H230.702ZM229.262 413.488C226.886 413.488 224.99 411.544 224.99 409.096C224.99 406.648 226.886 404.68 229.262 404.68C231.638 404.68 233.558 406.576 233.558 409.096C233.558 411.616 231.638 413.488 229.262 413.488ZM248.061 415V403.192H246.237V410.944C246.237 412.24 245.133 413.488 243.189 413.488C241.365 413.488 240.405 412.432 240.405 410.944V403.192H238.581V411.064C238.581 413.464 240.045 415.192 242.805 415.192C244.677 415.192 245.757 414.328 246.261 413.56V415H248.061ZM253.18 415V398.68H251.356V415H253.18ZM261.887 413.488C259.511 413.488 257.615 411.616 257.615 409.096C257.615 406.576 259.511 404.68 261.887 404.68C264.263 404.68 266.183 406.504 266.183 409.096C266.183 411.688 264.263 413.488 261.887 413.488ZM267.983 415V403.192H266.207V405.136C265.199 403.864 263.663 403 261.815 403C258.383 403 255.743 405.664 255.743 409.096C255.743 412.6 258.287 415.192 261.791 415.192C263.639 415.192 265.199 414.328 266.207 413.056V415H267.983ZM275.814 415V413.32H275.118C273.774 413.32 273.462 412.792 273.462 411.448V404.824H275.766V403.192H273.462V400.264H271.638V403.192H269.814V404.824H271.638V411.64C271.638 414.016 272.478 415 274.878 415H275.814ZM289.002 409.624C289.026 409.456 289.026 409.264 289.026 409.096C289.026 405.472 286.434 403 283.002 403C279.57 403 276.93 405.472 276.93 409.096C276.93 412.72 279.426 415.192 282.978 415.192C285.714 415.192 287.874 413.656 288.786 411.424H286.746C285.978 412.672 284.634 413.488 282.978 413.488C280.674 413.488 279.042 411.976 278.826 409.624H289.002ZM278.874 408.136C279.258 406.048 280.866 404.68 282.978 404.68C285.042 404.68 286.722 406.048 287.034 408.136H278.874ZM296.903 413.488C294.527 413.488 292.631 411.544 292.631 409.096C292.631 406.648 294.527 404.68 296.903 404.68C299.279 404.68 301.199 406.576 301.199 409.096C301.199 411.616 299.279 413.488 296.903 413.488ZM302.999 415V398.68H301.175V405.088C300.167 403.84 298.679 403 296.879 403C293.447 403 290.759 405.664 290.759 409.096C290.759 412.528 293.447 415.192 296.879 415.192C298.727 415.192 300.215 414.304 301.223 413.032V415H302.999ZM319.822 410.992C319.126 412.48 317.662 413.488 315.934 413.488C313.558 413.488 311.662 411.544 311.662 409.096C311.662 406.648 313.558 404.68 315.934 404.68C317.638 404.68 319.102 405.688 319.798 407.152H321.79C320.998 404.704 318.694 403 315.934 403C312.502 403 309.79 405.664 309.79 409.096C309.79 412.528 312.502 415.192 315.934 415.192C318.718 415.192 321.022 413.488 321.79 410.992H319.822ZM325.905 415V407.656C325.905 406.216 326.577 404.824 328.185 404.824C328.689 404.824 329.073 404.992 329.385 405.16L330.369 403.48C330.057 403.24 329.433 403 328.617 403C327.249 403 326.433 403.696 325.881 404.536V403.192H324.081V415H325.905ZM342.838 409.624C342.862 409.456 342.862 409.264 342.862 409.096C342.862 405.472 340.27 403 336.838 403C333.406 403 330.766 405.472 330.766 409.096C330.766 412.72 333.262 415.192 336.814 415.192C339.55 415.192 341.71 413.656 342.622 411.424H340.582C339.814 412.672 338.47 413.488 336.814 413.488C334.51 413.488 332.878 411.976 332.662 409.624H342.838ZM332.71 408.136C333.094 406.048 334.702 404.68 336.814 404.68C338.878 404.68 340.558 406.048 340.87 408.136H332.71ZM350.738 413.488C348.362 413.488 346.466 411.544 346.466 409.096C346.466 406.648 348.362 404.68 350.738 404.68C353.114 404.68 355.034 406.576 355.034 409.096C355.034 411.616 353.114 413.488 350.738 413.488ZM356.834 415V398.68H355.01V405.088C354.002 403.84 352.514 403 350.714 403C347.282 403 344.594 405.664 344.594 409.096C344.594 412.528 347.282 415.192 350.714 415.192C352.562 415.192 354.05 414.304 355.058 413.032V415H356.834ZM361.041 400.984C361.713 400.984 362.289 400.432 362.289 399.736C362.289 399.064 361.713 398.488 361.041 398.488C360.345 398.488 359.793 399.064 359.793 399.736C359.793 400.432 360.345 400.984 361.041 400.984ZM361.953 415V403.192H360.129V415H361.953ZM369.868 415V413.32H369.172C367.828 413.32 367.516 412.792 367.516 411.448V404.824H369.82V403.192H367.516V400.264H365.692V403.192H363.868V404.824H365.692V411.64C365.692 414.016 366.532 415 368.932 415H369.868ZM373.883 413.848C373.883 413.056 373.259 412.432 372.491 412.432C371.723 412.432 371.123 413.056 371.123 413.848C371.123 414.592 371.723 415.192 372.491 415.192C373.259 415.192 373.883 414.592 373.883 413.848ZM391.556 408.28C391.556 411.544 389.66 413.464 387.092 413.464C384.524 413.464 382.628 411.544 382.628 408.28V398.68H380.708V408.4C380.708 412.672 383.396 415.192 387.092 415.192C390.788 415.192 393.476 412.672 393.476 408.4V398.68H391.556V408.28ZM406.407 406.576C406.023 403.768 403.527 403 401.175 403C398.199 403 396.207 404.224 396.207 406.528C396.207 411.256 404.679 408.544 404.679 411.664C404.679 412.912 403.287 413.512 401.391 413.512C399.615 413.512 398.247 413.032 397.839 411.424H396.015C396.423 414.184 398.631 415.192 401.247 415.192C404.103 415.192 406.575 413.944 406.575 411.448C406.575 406.768 398.031 409.216 398.031 406.288C398.031 405.136 399.327 404.704 401.007 404.704C402.951 404.704 404.295 405.28 404.535 406.576H406.407ZM420.37 409.624C420.394 409.456 420.394 409.264 420.394 409.096C420.394 405.472 417.802 403 414.37 403C410.938 403 408.298 405.472 408.298 409.096C408.298 412.72 410.794 415.192 414.346 415.192C417.082 415.192 419.242 413.656 420.154 411.424H418.114C417.346 412.672 416.002 413.488 414.346 413.488C412.042 413.488 410.41 411.976 410.194 409.624H420.37ZM410.242 408.136C410.626 406.048 412.234 404.68 414.346 404.68C416.41 404.68 418.09 406.048 418.402 408.136H410.242ZM429.006 415V407.656C429.006 406.216 429.678 404.824 431.286 404.824C431.79 404.824 432.174 404.992 432.486 405.16L433.47 403.48C433.158 403.24 432.534 403 431.718 403C430.35 403 429.534 403.696 428.982 404.536V403.192H427.182V415H429.006ZM445.94 409.624C445.964 409.456 445.964 409.264 445.964 409.096C445.964 405.472 443.372 403 439.94 403C436.508 403 433.868 405.472 433.868 409.096C433.868 412.72 436.364 415.192 439.916 415.192C442.652 415.192 444.812 413.656 445.724 411.424H443.684C442.916 412.672 441.572 413.488 439.916 413.488C437.612 413.488 435.98 411.976 435.764 409.624H445.94ZM435.812 408.136C436.196 406.048 437.804 404.68 439.916 404.68C441.98 404.68 443.66 406.048 443.972 408.136H435.812ZM458.04 406.576C457.656 403.768 455.16 403 452.808 403C449.832 403 447.84 404.224 447.84 406.528C447.84 411.256 456.312 408.544 456.312 411.664C456.312 412.912 454.92 413.512 453.024 413.512C451.248 413.512 449.88 413.032 449.472 411.424H447.648C448.056 414.184 450.264 415.192 452.88 415.192C455.736 415.192 458.208 413.944 458.208 411.448C458.208 406.768 449.664 409.216 449.664 406.288C449.664 405.136 450.96 404.704 452.64 404.704C454.584 404.704 455.928 405.28 456.168 406.576H458.04ZM466.77 413.488C464.394 413.488 462.474 411.616 462.474 409.096C462.474 406.576 464.394 404.68 466.77 404.68C469.146 404.68 471.042 406.648 471.042 409.096C471.042 411.544 469.146 413.488 466.77 413.488ZM462.498 419.416V413.152C463.482 414.376 464.97 415.192 466.794 415.192C470.226 415.192 472.914 412.504 472.914 409.072C472.914 405.64 470.298 403 466.866 403C464.994 403 463.458 403.864 462.45 405.16V403.192H460.674V419.416H462.498ZM486.937 409.096C486.937 405.664 484.225 403 480.793 403C477.361 403 474.649 405.664 474.649 409.096C474.649 412.528 477.361 415.192 480.793 415.192C484.225 415.192 486.937 412.528 486.937 409.096ZM480.793 413.488C478.417 413.488 476.521 411.544 476.521 409.096C476.521 406.648 478.417 404.68 480.793 404.68C483.169 404.68 485.089 406.648 485.089 409.096C485.089 411.544 483.169 413.488 480.793 413.488ZM498.889 415V407.2C498.889 404.8 497.425 403 494.665 403C492.793 403 491.713 403.936 491.209 404.704V403.192H489.409V415H491.233V407.32C491.233 406.024 492.337 404.704 494.281 404.704C496.105 404.704 497.065 405.832 497.065 407.32V415H498.889ZM511.712 406.576C511.328 403.768 508.832 403 506.48 403C503.504 403 501.512 404.224 501.512 406.528C501.512 411.256 509.984 408.544 509.984 411.664C509.984 412.912 508.592 413.512 506.696 413.512C504.92 413.512 503.552 413.032 503.144 411.424H501.32C501.728 414.184 503.936 415.192 506.552 415.192C509.408 415.192 511.88 413.944 511.88 411.448C511.88 406.768 503.336 409.216 503.336 406.288C503.336 405.136 504.632 404.704 506.312 404.704C508.256 404.704 509.6 405.28 509.84 406.576H511.712ZM515.33 400.984C516.002 400.984 516.578 400.432 516.578 399.736C516.578 399.064 516.002 398.488 515.33 398.488C514.634 398.488 514.082 399.064 514.082 399.736C514.082 400.432 514.634 400.984 515.33 400.984ZM516.242 415V403.192H514.418V415H516.242ZM521.325 415V413.032C522.309 414.304 523.821 415.192 525.669 415.192C529.101 415.192 531.789 412.504 531.789 409.072C531.789 405.64 529.197 403 525.765 403C523.917 403 522.381 403.888 521.373 405.136V398.68H519.549V415H521.325ZM525.645 413.488C523.269 413.488 521.349 411.616 521.349 409.096C521.349 406.576 523.269 404.68 525.645 404.68C528.021 404.68 529.917 406.648 529.917 409.096C529.917 411.544 528.021 413.488 525.645 413.488ZM536.164 415V398.68H534.34V415H536.164ZM540.359 419.416C542.615 419.416 543.119 418.336 543.959 416.344L549.551 403.192H547.655L543.767 412.672H543.719L539.759 403.192H537.815L542.615 414.28C542.759 414.616 542.783 414.904 542.639 415.264L542.375 415.888C541.847 417.136 541.535 417.712 540.119 417.712H539.495V419.416H540.359ZM551.399 413.848C551.399 413.056 550.775 412.432 550.007 412.432C549.239 412.432 548.639 413.056 548.639 413.848C548.639 414.592 549.239 415.192 550.007 415.192C550.775 415.192 551.399 414.592 551.399 413.848ZM61.1098 439V424.408H66.8938V422.68H53.3818V424.408H59.1658V439H61.1098ZM72.8668 429.688C71.7148 428.464 70.9708 427.648 70.9708 426.448C70.9708 425.248 72.0988 424.24 73.5868 424.24C74.9308 424.24 76.1548 425.08 76.1548 426.424C76.1548 427.888 74.6908 428.92 72.8668 429.688ZM75.9868 435.64C74.9548 436.672 73.6588 437.464 72.1708 437.464C70.2028 437.464 68.7388 436.336 68.7388 434.8C68.7388 433.12 70.2028 432.184 72.0028 431.44L75.9868 435.64ZM81.6268 439L78.3387 435.52L81.5548 430.816H79.5388L77.1628 434.248L73.8508 430.72C76.0828 429.736 78.0508 428.56 78.0508 426.376C78.0508 424.384 76.4428 422.488 73.6108 422.488C70.8748 422.488 69.0028 424.264 69.0028 426.616C69.0028 428.056 69.6988 428.992 70.9948 430.384C68.8348 431.272 66.8668 432.544 66.8668 434.968C66.8668 437.464 69.1228 439.192 71.8348 439.192C73.6828 439.192 75.6748 438.16 77.1148 436.84L79.0348 438.856C79.1308 438.976 79.2748 439 79.4188 439H81.6268ZM97.2551 434.32C96.1271 436.216 94.0871 437.464 91.6871 437.464C87.9911 437.464 85.1831 434.536 85.1831 430.84C85.1831 427.144 87.9911 424.216 91.6871 424.216C94.1111 424.216 96.0551 425.464 97.1591 427.336H99.3671C98.0231 424.432 95.0951 422.488 91.6871 422.488C87.0071 422.488 83.2391 426.112 83.2391 430.912C83.2391 435.616 86.8631 439.192 91.6871 439.192C95.2631 439.192 98.1671 437.248 99.4391 434.32H97.2551ZM111.177 430.576C110.793 427.768 108.297 427 105.945 427C102.969 427 100.977 428.224 100.977 430.528C100.977 435.256 109.449 432.544 109.449 435.664C109.449 436.912 108.057 437.512 106.161 437.512C104.385 437.512 103.017 437.032 102.609 435.424H100.785C101.193 438.184 103.401 439.192 106.017 439.192C108.873 439.192 111.345 437.944 111.345 435.448C111.345 430.768 102.801 433.216 102.801 430.288C102.801 429.136 104.097 428.704 105.777 428.704C107.721 428.704 109.065 429.28 109.305 430.576H111.177ZM123.164 429.688C122.012 428.464 121.268 427.648 121.268 426.448C121.268 425.248 122.396 424.24 123.884 424.24C125.228 424.24 126.452 425.08 126.452 426.424C126.452 427.888 124.988 428.92 123.164 429.688ZM126.284 435.64C125.252 436.672 123.956 437.464 122.468 437.464C120.5 437.464 119.036 436.336 119.036 434.8C119.036 433.12 120.5 432.184 122.3 431.44L126.284 435.64ZM131.924 439L128.636 435.52L131.852 430.816H129.836L127.46 434.248L124.148 430.72C126.38 429.736 128.348 428.56 128.348 426.376C128.348 424.384 126.74 422.488 123.908 422.488C121.172 422.488 119.3 424.264 119.3 426.616C119.3 428.056 119.996 428.992 121.292 430.384C119.132 431.272 117.164 432.544 117.164 434.968C117.164 437.464 119.42 439.192 122.132 439.192C123.98 439.192 125.972 438.16 127.412 436.84L129.332 438.856C129.428 438.976 129.572 439 129.716 439H131.924ZM140.152 439V422.68H138.328V439H140.152ZM148.86 437.488C146.484 437.488 144.588 435.616 144.588 433.096C144.588 430.576 146.484 428.68 148.86 428.68C151.236 428.68 153.156 430.504 153.156 433.096C153.156 435.688 151.236 437.488 148.86 437.488ZM154.956 439V427.192H153.18V429.136C152.172 427.864 150.636 427 148.788 427C145.356 427 142.716 429.664 142.716 433.096C142.716 436.6 145.26 439.192 148.764 439.192C150.612 439.192 152.172 438.328 153.18 437.056V439H154.956ZM162.786 439V437.32H162.09C160.746 437.32 160.434 436.792 160.434 435.448V428.824H162.738V427.192H160.434V424.264H158.61V427.192H156.786V428.824H158.61V435.64C158.61 438.016 159.45 439 161.85 439H162.786ZM175.975 433.624C175.999 433.456 175.999 433.264 175.999 433.096C175.999 429.472 173.407 427 169.975 427C166.543 427 163.903 429.472 163.903 433.096C163.903 436.72 166.399 439.192 169.951 439.192C172.687 439.192 174.847 437.656 175.759 435.424H173.719C172.951 436.672 171.607 437.488 169.951 437.488C167.647 437.488 166.015 435.976 165.799 433.624H175.975ZM165.847 432.136C166.231 430.048 167.839 428.68 169.951 428.68C172.015 428.68 173.695 430.048 174.007 432.136H165.847ZM185.308 439V428.824H188.308V427.192H185.308V426.256C185.308 424.912 185.812 424.36 187.18 424.36H188.38V422.68H187.012C184.54 422.68 183.46 423.688 183.46 426.16V427.192H181.396V428.824H183.46V439H185.308ZM200.819 433.624C200.843 433.456 200.843 433.264 200.843 433.096C200.843 429.472 198.251 427 194.819 427C191.387 427 188.747 429.472 188.747 433.096C188.747 436.72 191.243 439.192 194.795 439.192C197.531 439.192 199.691 437.656 200.603 435.424H198.563C197.795 436.672 196.451 437.488 194.795 437.488C192.491 437.488 190.859 435.976 190.643 433.624H200.819ZM190.691 432.136C191.075 430.048 192.683 428.68 194.795 428.68C196.859 428.68 198.539 430.048 198.851 432.136H190.691ZM214.647 433.624C214.671 433.456 214.671 433.264 214.671 433.096C214.671 429.472 212.079 427 208.647 427C205.215 427 202.575 429.472 202.575 433.096C202.575 436.72 205.071 439.192 208.623 439.192C211.359 439.192 213.519 437.656 214.431 435.424H212.391C211.623 436.672 210.279 437.488 208.623 437.488C206.319 437.488 204.687 435.976 204.471 433.624H214.647ZM204.519 432.136C204.903 430.048 206.511 428.68 208.623 428.68C210.687 428.68 212.367 430.048 212.679 432.136H204.519ZM226.747 430.576C226.363 427.768 223.867 427 221.515 427C218.539 427 216.547 428.224 216.547 430.528C216.547 435.256 225.019 432.544 225.019 435.664C225.019 436.912 223.627 437.512 221.731 437.512C219.955 437.512 218.587 437.032 218.179 435.424H216.355C216.763 438.184 218.971 439.192 221.587 439.192C224.443 439.192 226.915 437.944 226.915 435.448C226.915 430.768 218.371 433.216 218.371 430.288C218.371 429.136 219.667 428.704 221.347 428.704C223.291 428.704 224.635 429.28 224.875 430.576H226.747ZM239.094 437.488C236.718 437.488 234.822 435.616 234.822 433.096C234.822 430.576 236.718 428.68 239.094 428.68C241.47 428.68 243.39 430.504 243.39 433.096C243.39 435.688 241.47 437.488 239.094 437.488ZM245.19 439V427.192H243.414V429.136C242.406 427.864 240.87 427 239.022 427C235.59 427 232.95 429.664 232.95 433.096C232.95 436.6 235.494 439.192 238.998 439.192C240.846 439.192 242.406 438.328 243.414 437.056V439H245.19ZM254.509 437.488C252.133 437.488 250.213 435.616 250.213 433.096C250.213 430.576 252.133 428.68 254.509 428.68C256.885 428.68 258.781 430.648 258.781 433.096C258.781 435.544 256.885 437.488 254.509 437.488ZM250.237 443.416V437.152C251.221 438.376 252.709 439.192 254.533 439.192C257.965 439.192 260.653 436.504 260.653 433.072C260.653 429.64 258.037 427 254.605 427C252.733 427 251.197 427.864 250.189 429.16V427.192H248.413V443.416H250.237ZM269.227 437.488C266.851 437.488 264.931 435.616 264.931 433.096C264.931 430.576 266.851 428.68 269.227 428.68C271.603 428.68 273.499 430.648 273.499 433.096C273.499 435.544 271.603 437.488 269.227 437.488ZM264.955 443.416V437.152C265.939 438.376 267.427 439.192 269.251 439.192C272.683 439.192 275.371 436.504 275.371 433.072C275.371 429.64 272.755 427 269.323 427C267.451 427 265.915 427.864 264.907 429.16V427.192H263.131V443.416H264.955ZM279.746 439V422.68H277.922V439H279.746ZM283.941 443.416C286.197 443.416 286.701 442.336 287.541 440.344L293.133 427.192H291.237L287.349 436.672H287.301L283.341 427.192H281.397L286.197 438.28C286.341 438.616 286.365 438.904 286.221 439.264L285.957 439.888C285.429 441.136 285.117 441.712 283.701 441.712H283.077V443.416H283.941ZM304.461 437.488C302.085 437.488 300.189 435.616 300.189 433.096C300.189 430.576 302.085 428.68 304.461 428.68C306.837 428.68 308.757 430.504 308.757 433.096C308.757 435.688 306.837 437.488 304.461 437.488ZM310.557 439V427.192H308.781V429.136C307.773 427.864 306.237 427 304.389 427C300.957 427 298.317 429.664 298.317 433.096C298.317 436.6 300.861 439.192 304.365 439.192C306.213 439.192 307.773 438.328 308.781 437.056V439H310.557ZM318.388 439V437.32H317.692C316.348 437.32 316.036 436.792 316.036 435.448V428.824H318.34V427.192H316.036V424.264H314.212V427.192H312.388V428.824H314.212V435.64C314.212 438.016 315.052 439 317.452 439H318.388ZM333.849 434.992C333.153 436.48 331.689 437.488 329.961 437.488C327.585 437.488 325.689 435.544 325.689 433.096C325.689 430.648 327.585 428.68 329.961 428.68C331.665 428.68 333.129 429.688 333.825 431.152H335.817C335.025 428.704 332.721 427 329.961 427C326.529 427 323.817 429.664 323.817 433.096C323.817 436.528 326.529 439.192 329.961 439.192C332.745 439.192 335.049 437.488 335.817 434.992H333.849ZM340.004 439V422.68H338.18V439H340.004ZM354.639 433.624C354.663 433.456 354.663 433.264 354.663 433.096C354.663 429.472 352.071 427 348.639 427C345.207 427 342.567 429.472 342.567 433.096C342.567 436.72 345.063 439.192 348.615 439.192C351.351 439.192 353.511 437.656 354.423 435.424H352.383C351.615 436.672 350.271 437.488 348.615 437.488C346.311 437.488 344.679 435.976 344.463 433.624H354.639ZM344.511 432.136C344.895 430.048 346.503 428.68 348.615 428.68C350.679 428.68 352.359 430.048 352.671 432.136H344.511ZM362.539 437.488C360.163 437.488 358.267 435.616 358.267 433.096C358.267 430.576 360.163 428.68 362.539 428.68C364.915 428.68 366.835 430.504 366.835 433.096C366.835 435.688 364.915 437.488 362.539 437.488ZM368.635 439V427.192H366.859V429.136C365.851 427.864 364.315 427 362.467 427C359.035 427 356.395 429.664 356.395 433.096C356.395 436.6 358.939 439.192 362.443 439.192C364.291 439.192 365.851 438.328 366.859 437.056V439H368.635ZM373.682 439V431.656C373.682 430.216 374.354 428.824 375.962 428.824C376.466 428.824 376.85 428.992 377.162 429.16L378.146 427.48C377.834 427.24 377.21 427 376.394 427C375.026 427 374.21 427.696 373.658 428.536V427.192H371.858V439H373.682ZM385.852 437.488C383.476 437.488 381.556 435.616 381.556 433.096C381.556 430.576 383.476 428.68 385.852 428.68C388.228 428.68 390.124 430.648 390.124 433.096C390.124 435.544 388.228 437.488 385.852 437.488ZM381.58 443.416V437.152C382.564 438.376 384.052 439.192 385.876 439.192C389.308 439.192 391.996 436.504 391.996 433.072C391.996 429.64 389.38 427 385.948 427C384.076 427 382.54 427.864 381.532 429.16V427.192H379.756V443.416H381.58ZM399.875 437.488C397.499 437.488 395.603 435.616 395.603 433.096C395.603 430.576 397.499 428.68 399.875 428.68C402.251 428.68 404.171 430.504 404.171 433.096C404.171 435.688 402.251 437.488 399.875 437.488ZM405.971 439V427.192H404.195V429.136C403.187 427.864 401.651 427 399.803 427C396.371 427 393.731 429.664 393.731 433.096C393.731 436.6 396.275 439.192 399.779 439.192C401.627 439.192 403.187 438.328 404.195 437.056V439H405.971ZM410.082 443.416C412.338 443.416 412.842 442.336 413.682 440.344L419.274 427.192H417.378L413.49 436.672H413.442L409.482 427.192H407.538L412.338 438.28C412.482 438.616 412.506 438.904 412.362 439.264L412.098 439.888C411.57 441.136 411.258 441.712 409.842 441.712H409.218V443.416H410.082ZM421.122 437.848C421.122 437.056 420.498 436.432 419.73 436.432C418.962 436.432 418.362 437.056 418.362 437.848C418.362 438.592 418.962 439.192 419.73 439.192C420.498 439.192 421.122 438.592 421.122 437.848ZM432.568 434.992C431.872 436.48 430.408 437.488 428.68 437.488C426.304 437.488 424.408 435.544 424.408 433.096C424.408 430.648 426.304 428.68 428.68 428.68C430.384 428.68 431.848 429.688 432.544 431.152H434.536C433.744 428.704 431.44 427 428.68 427C425.248 427 422.536 429.664 422.536 433.096C422.536 436.528 425.248 439.192 428.68 439.192C431.464 439.192 433.768 437.488 434.536 434.992H432.568ZM448.371 433.096C448.371 429.664 445.659 427 442.227 427C438.795 427 436.083 429.664 436.083 433.096C436.083 436.528 438.795 439.192 442.227 439.192C445.659 439.192 448.371 436.528 448.371 433.096ZM442.227 437.488C439.851 437.488 437.955 435.544 437.955 433.096C437.955 430.648 439.851 428.68 442.227 428.68C444.603 428.68 446.523 430.648 446.523 433.096C446.523 435.544 444.603 437.488 442.227 437.488ZM452.528 437.848C452.528 437.056 451.904 436.432 451.136 436.432C450.368 436.432 449.768 437.056 449.768 437.848C449.768 438.592 450.368 439.192 451.136 439.192C451.904 439.192 452.528 438.592 452.528 437.848ZM464.401 439V427.192H462.577V434.944C462.577 436.24 461.473 437.488 459.529 437.488C457.705 437.488 456.745 436.432 456.745 434.944V427.192H454.921V435.064C454.921 437.464 456.385 439.192 459.145 439.192C461.017 439.192 462.097 438.328 462.601 437.56V439H464.401ZM478.136 439L472.76 431.704L477.704 427.192H475.424L469.52 432.664H469.448V422.68H467.624V439H469.448V434.728L471.392 432.952L475.856 439H478.136ZM479.553 439.144L487.785 422.584H486.201L477.945 439.144H479.553ZM494.005 439V437.32H493.309C491.965 437.32 491.653 436.792 491.653 435.448V428.824H493.957V427.192H491.653V424.264H489.829V427.192H488.005V428.824H489.829V435.64C489.829 438.016 490.669 439 493.069 439H494.005ZM507.194 433.624C507.218 433.456 507.218 433.264 507.218 433.096C507.218 429.472 504.626 427 501.194 427C497.762 427 495.122 429.472 495.122 433.096C495.122 436.72 497.618 439.192 501.17 439.192C503.906 439.192 506.066 437.656 506.978 435.424H504.938C504.17 436.672 502.826 437.488 501.17 437.488C498.866 437.488 497.234 435.976 497.018 433.624H507.194ZM497.066 432.136C497.45 430.048 499.058 428.68 501.17 428.68C503.234 428.68 504.914 430.048 505.226 432.136H497.066ZM511.518 439V431.656C511.518 430.216 512.19 428.824 513.798 428.824C514.302 428.824 514.686 428.992 514.998 429.16L515.982 427.48C515.67 427.24 515.046 427 514.23 427C512.862 427 512.046 427.696 511.494 428.536V427.192H509.694V439H511.518ZM534.056 439V431.128C534.056 428.728 532.76 427 530 427C528.224 427 527.168 427.816 526.328 429.064C525.752 427.792 524.552 427 522.68 427C520.808 427 519.896 427.864 519.392 428.632V427.192H517.592V439H519.416V431.248C519.416 429.952 520.352 428.704 522.296 428.704C524.12 428.704 524.912 429.76 524.912 431.248V439H526.736V431.152C526.736 429.904 527.72 428.704 529.616 428.704C531.44 428.704 532.232 429.76 532.232 431.248V439H534.056ZM546.88 430.576C546.496 427.768 544 427 541.648 427C538.672 427 536.68 428.224 536.68 430.528C536.68 435.256 545.152 432.544 545.152 435.664C545.152 436.912 543.76 437.512 541.864 437.512C540.088 437.512 538.72 437.032 538.312 435.424H536.488C536.896 438.184 539.104 439.192 541.72 439.192C544.576 439.192 547.048 437.944 547.048 435.448C547.048 430.768 538.504 433.216 538.504 430.288C538.504 429.136 539.8 428.704 541.48 428.704C543.424 428.704 544.768 429.28 545.008 430.576H546.88Z" fill="black"/>
</svg>
