<svg width="1920" height="100" viewBox="0 0 1920 100" fill="none" xmlns="http://www.w3.org/2000/svg">
<rect width="1920" height="100" fill="black"/>
<path d="M475.228 79H362.632C346.615 79 333.632 66.0174 333.632 50C333.632 33.9826 346.615 21 362.632 21H475.228C491.246 21 504.228 33.9826 504.228 50C504.239 66.0069 491.246 79 475.228 79Z" fill="#B2FCE4"/>
<path d="M455.7 43.7725L447.154 61.4022H443.614L446.807 54.8161L441.791 43.7725H445.426L448.651 51.17L452.17 43.7725H455.7Z" fill="black"/>
<path d="M423.181 50.0323C423.181 48.009 421.653 46.4494 419.777 46.4494C417.902 46.4494 416.374 47.9564 416.374 50.0323C416.374 52.0872 417.902 53.6151 419.777 53.6151C421.653 53.6151 423.181 52.0556 423.181 50.0323ZM413.265 61.4026V43.7728H416.342V45.3957C417.269 44.247 418.65 43.541 420.294 43.541C423.676 43.541 426.332 46.323 426.332 50.0007C426.332 53.6784 423.624 56.4814 420.22 56.4814C418.639 56.4814 417.343 55.8597 416.437 54.8059V61.392H413.265V61.4026Z" fill="black"/>
<path d="M437.439 50.0325C437.439 47.9249 435.911 46.4496 434.035 46.4496C432.159 46.4496 430.631 47.9566 430.631 50.0325C430.631 52.0874 432.159 53.6153 434.035 53.6153C435.911 53.6153 437.439 52.1295 437.439 50.0325ZM437.46 56.2919V54.6691C436.532 55.7967 435.152 56.4922 433.508 56.4922C430.073 56.4922 427.47 53.7418 427.47 50.0325C427.47 46.3548 430.178 43.5518 433.582 43.5518C435.184 43.5518 436.532 44.2578 437.46 45.3537V43.7731H440.537V56.2919H437.46Z" fill="black"/>
<path d="M407.711 44.9952C407.711 44.9952 408.491 43.541 410.419 43.541C411.241 43.541 411.768 43.8255 411.768 43.8255V47.0185C411.768 47.0185 410.609 46.3019 409.545 46.4494C408.48 46.597 407.806 47.5665 407.806 48.8731V56.2917H404.624V43.7728H407.701V44.9952H407.711Z" fill="black"/>
<path d="M479.6 43.0665L475.954 40.98L472.255 38.8619C469.811 37.4604 466.755 39.2202 466.755 42.0443V42.5185C466.755 42.782 466.892 43.0244 467.124 43.1508L468.841 44.1308C469.315 44.4048 469.906 44.0571 469.906 43.5091V42.3816C469.906 41.8231 470.506 41.4753 470.991 41.7493L474.363 43.6882L477.725 45.6167C478.209 45.8906 478.209 46.5967 477.725 46.8707L474.363 48.7991L470.991 50.738C470.506 51.012 469.906 50.6643 469.906 50.1058V49.5473C469.906 46.7231 466.85 44.9528 464.405 46.3648L460.706 48.4829L457.06 50.5694C454.605 51.9815 454.605 55.5327 457.06 56.9448L460.706 59.0313L464.405 61.1494C466.85 62.5509 469.906 60.7911 469.906 57.9669V57.4927C469.906 57.2293 469.769 56.9869 469.537 56.8605L467.819 55.8805C467.345 55.6065 466.755 55.9542 466.755 56.5022V57.6297C466.755 58.1882 466.154 58.536 465.669 58.262L462.297 56.323L458.936 54.3946C458.451 54.1207 458.451 53.4146 458.936 53.1406L462.297 51.2122L465.669 49.2733C466.154 48.9993 466.755 49.347 466.755 49.9055V50.464C466.755 53.2882 469.811 55.0585 472.255 53.6464L475.954 51.5284L479.6 49.4419C482.056 48.0193 482.056 44.4786 479.6 43.0665Z" fill="black"/>
<path d="M369.249 51.6215C368.575 54.4984 366.098 56.4795 362.895 56.4795C359.196 56.4795 356.414 53.6975 356.414 50.0198C356.414 46.3421 359.238 43.5391 362.947 43.5391C366.077 43.5391 368.522 45.5202 369.228 48.3443H365.972C365.392 47.2168 364.244 46.4686 362.969 46.4686C361.114 46.4686 359.565 47.9965 359.565 50.0198C359.565 52.0431 361.114 53.571 362.969 53.571C364.296 53.571 365.445 52.8229 365.993 51.6215H369.249Z" fill="black"/>
<path d="M370.712 56.2805V38.6191H373.863V56.2805H370.712Z" fill="black"/>
<path d="M378.606 50.8535C378.827 52.7081 380.155 53.7514 381.83 53.7514C383.158 53.7514 384.18 53.1296 384.781 52.1285H388.006C387.257 54.7841 384.876 56.4806 381.746 56.4806C377.963 56.4806 375.318 53.8251 375.318 50.0526C375.318 46.2801 378.121 43.5508 381.82 43.5508C385.55 43.5508 388.248 46.3011 388.248 50.0526C388.248 50.3266 388.227 50.6006 388.174 50.8535H378.606V50.8535ZM384.886 48.8934C384.665 47.2706 383.337 46.2906 381.788 46.2906C380.239 46.2906 378.964 47.239 378.638 48.8934H384.886Z" fill="black"/>
<path d="M399.502 56.2792V54.6564C398.575 55.784 397.205 56.4795 395.551 56.4795C392.126 56.4795 389.523 53.7291 389.523 50.0198C389.523 46.3421 392.221 43.5391 395.624 43.5391C397.226 43.5391 398.575 44.2346 399.502 45.341V43.7604H402.579V56.2687H399.502V56.2792ZM399.471 50.0198C399.471 47.9228 397.943 46.437 396.067 46.437C394.191 46.437 392.663 47.9333 392.663 50.0198C392.663 52.0747 394.191 53.6027 396.067 53.6027C397.943 53.6027 399.471 52.1274 399.471 50.0198Z" fill="black"/>
<path d="M69.096 58.016V54.368H57.224V48.832H65.832V45.216H57.224V39.904H69.096V36.256H53V58.016H69.096Z" fill="white"/>
<path d="M77.9827 54.592C75.5828 54.592 73.6308 52.64 73.6308 50.016C73.6308 47.36 75.5828 45.44 77.9827 45.44C80.3828 45.44 82.3348 47.328 82.3348 50.016C82.3348 52.704 80.3828 54.592 77.9827 54.592ZM86.3027 58.016V42.016H82.3668V44.032C81.1828 42.624 79.4547 41.728 77.4067 41.728C73.0547 41.728 69.5987 45.312 69.5987 50.016C69.5987 54.752 72.9267 58.272 77.3107 58.272C79.4227 58.272 81.1828 57.376 82.3668 55.936V58.016H86.3027Z" fill="white"/>
<path d="M96.9478 58.016V54.464H96.1478C94.7718 54.464 94.3877 53.952 94.3877 52.608V45.504H96.9157V42.016H94.3877V38.112H90.3558V42.016H88.2757V45.504H90.3558V53.344C90.3558 56.608 91.6038 58.016 94.8678 58.016H96.9478Z" fill="white"/>
<path d="M118.786 58.016V47.328C118.786 43.904 116.77 41.728 113.346 41.728C110.946 41.728 109.474 43.072 108.898 44.032V42.016H104.962V58.016H109.026V48.032C109.026 46.4 110.306 45.344 111.97 45.344C113.57 45.344 114.754 46.304 114.754 48.064V58.016H118.786Z" fill="white"/>
<path d="M138.023 50.016C138.023 45.312 134.375 41.728 129.639 41.728C124.871 41.728 121.255 45.312 121.255 50.016C121.255 54.72 124.871 58.272 129.639 58.272C134.375 58.272 138.023 54.72 138.023 50.016ZM129.639 54.56C127.271 54.56 125.287 52.608 125.287 50.016C125.287 47.424 127.271 45.472 129.639 45.472C132.007 45.472 133.959 47.424 133.959 50.016C133.959 52.608 132.007 54.56 129.639 54.56Z" fill="white"/>
<path d="M157.593 58.016L162.585 42.016H158.489L155.385 52.48H155.353L152.121 42.016H149.273L145.881 52.384H145.817L142.841 42.016H138.649L143.385 58.016H147.065L150.489 48.096H150.585L153.881 58.016H157.593Z" fill="white"/>
<path d="M166.899 55.872C166.899 54.528 165.811 53.44 164.467 53.44C163.155 53.44 162.1 54.528 162.1 55.872C162.1 57.184 163.155 58.24 164.467 58.24C165.811 58.24 166.899 57.184 166.899 55.872Z" fill="white"/>
<path d="M178.51 58.016V49.312H185.39C189.55 49.312 192.494 46.496 192.494 42.624C192.494 39.04 189.838 36.256 185.358 36.256H175.95V58.016H178.51ZM178.51 47.04V38.56H185.262C187.854 38.56 189.806 40.416 189.806 42.688C189.806 45.28 187.822 47.04 185.198 47.04H178.51Z" fill="white"/>
<path d="M202.111 56C198.943 56 196.415 53.504 196.415 50.144C196.415 46.784 198.943 44.256 202.111 44.256C205.279 44.256 207.84 46.688 207.84 50.144C207.84 53.6 205.279 56 202.111 56ZM210.24 58.016V42.272H207.872V44.864C206.528 43.168 204.48 42.016 202.016 42.016C197.44 42.016 193.919 45.568 193.919 50.144C193.919 54.816 197.312 58.272 201.984 58.272C204.448 58.272 206.528 57.12 207.872 55.424V58.016H210.24Z" fill="white"/>
<path d="M215.721 63.904C218.729 63.904 219.401 62.464 220.521 59.808L227.977 42.272H225.449L220.264 54.912H220.201L214.921 42.272H212.329L218.729 57.056C218.921 57.504 218.952 57.888 218.76 58.368L218.408 59.2C217.704 60.864 217.288 61.632 215.4 61.632H214.568V63.904H215.721Z" fill="white"/>
<path d="M237.192 39.328C238.088 39.328 238.856 38.592 238.856 37.664C238.856 36.768 238.088 36 237.192 36C236.264 36 235.528 36.768 235.528 37.664C235.528 38.592 236.264 39.328 237.192 39.328ZM238.408 58.016V42.272H235.976V58.016H238.408Z" fill="white"/>
<path d="M248.962 58.016V55.776H248.034C246.242 55.776 245.826 55.072 245.826 53.28V44.448H248.898V42.272H245.826V38.368H243.394V42.272H240.962V44.448H243.394V53.536C243.394 56.704 244.514 58.016 247.714 58.016H248.962Z" fill="white"/>
<path d="M258.505 39.328C259.401 39.328 260.169 38.592 260.169 37.664C260.169 36.768 259.401 36 258.505 36C257.577 36 256.841 36.768 256.841 37.664C256.841 38.592 257.577 39.328 258.505 39.328ZM259.721 58.016V42.272H257.289V58.016H259.721Z" fill="white"/>
<path d="M276.77 58.016V47.616C276.77 44.416 274.818 42.016 271.138 42.016C268.642 42.016 267.202 43.264 266.53 44.288V42.272H264.13V58.016H266.562V47.776C266.562 46.048 268.034 44.288 270.626 44.288C273.058 44.288 274.338 45.792 274.338 47.776V58.016H276.77Z" fill="white"/>
<path d="M298.498 58.016V53.696H301.89V51.52H298.498V46.24H296.258L296.034 51.52H288.578L298.306 36.256H295.394L285.826 51.776V53.696H296.066V58.016H298.498Z" fill="white"/>
<path d="M307.69 56.48C307.69 55.424 306.858 54.592 305.834 54.592C304.81 54.592 304.01 55.424 304.01 56.48C304.01 57.472 304.81 58.272 305.834 58.272C306.858 58.272 307.69 57.472 307.69 56.48Z" fill="white"/>
<path d="M1489.44 22.345C1488.07 24.636 1485.61 26.144 1482.71 26.144C1478.24 26.144 1474.85 22.606 1474.85 18.14C1474.85 13.674 1478.24 10.136 1482.71 10.136C1485.64 10.136 1487.99 11.644 1489.32 13.906H1491.99C1490.37 10.397 1486.83 8.048 1482.71 8.048C1477.05 8.048 1472.5 12.427 1472.5 18.227C1472.5 23.911 1476.88 28.232 1482.71 28.232C1487.03 28.232 1490.54 25.883 1492.08 22.345H1489.44ZM1496.95 28V8.28H1494.75V28H1496.95ZM1514.63 21.504C1514.66 21.301 1514.66 21.069 1514.66 20.866C1514.66 16.487 1511.53 13.5 1507.38 13.5C1503.24 13.5 1500.05 16.487 1500.05 20.866C1500.05 25.245 1503.06 28.232 1507.36 28.232C1510.66 28.232 1513.27 26.376 1514.37 23.679H1511.91C1510.98 25.187 1509.36 26.173 1507.36 26.173C1504.57 26.173 1502.6 24.346 1502.34 21.504H1514.63ZM1502.4 19.706C1502.86 17.183 1504.8 15.53 1507.36 15.53C1509.85 15.53 1511.88 17.183 1512.26 19.706H1502.4ZM1524.18 26.173C1521.31 26.173 1519.02 23.911 1519.02 20.866C1519.02 17.821 1521.31 15.53 1524.18 15.53C1527.05 15.53 1529.37 17.734 1529.37 20.866C1529.37 23.998 1527.05 26.173 1524.18 26.173ZM1531.55 28V13.732H1529.4V16.081C1528.18 14.544 1526.33 13.5 1524.09 13.5C1519.95 13.5 1516.76 16.719 1516.76 20.866C1516.76 25.1 1519.83 28.232 1524.06 28.232C1526.3 28.232 1528.18 27.188 1529.4 25.651V28H1531.55ZM1537.65 28V19.126C1537.65 17.386 1538.46 15.704 1540.4 15.704C1541.01 15.704 1541.47 15.907 1541.85 16.11L1543.04 14.08C1542.66 13.79 1541.91 13.5 1540.92 13.5C1539.27 13.5 1538.28 14.341 1537.62 15.356V13.732H1535.44V28H1537.65ZM1552.35 26.173C1549.48 26.173 1547.16 23.911 1547.16 20.866C1547.16 17.821 1549.48 15.53 1552.35 15.53C1555.22 15.53 1557.51 17.908 1557.51 20.866C1557.51 23.824 1555.22 26.173 1552.35 26.173ZM1547.19 33.336V25.767C1548.38 27.246 1550.18 28.232 1552.38 28.232C1556.53 28.232 1559.77 24.984 1559.77 20.837C1559.77 16.69 1556.61 13.5 1552.47 13.5C1550.2 13.5 1548.35 14.544 1547.13 16.11V13.732H1544.98V33.336H1547.19ZM1569.3 26.173C1566.42 26.173 1564.13 23.911 1564.13 20.866C1564.13 17.821 1566.42 15.53 1569.3 15.53C1572.17 15.53 1574.49 17.734 1574.49 20.866C1574.49 23.998 1572.17 26.173 1569.3 26.173ZM1576.66 28V13.732H1574.52V16.081C1573.3 14.544 1571.44 13.5 1569.21 13.5C1565.06 13.5 1561.87 16.719 1561.87 20.866C1561.87 25.1 1564.95 28.232 1569.18 28.232C1571.41 28.232 1573.3 27.188 1574.52 25.651V28H1576.66ZM1581.63 33.336C1584.35 33.336 1584.96 32.031 1585.98 29.624L1592.74 13.732H1590.44L1585.75 25.187H1585.69L1580.9 13.732H1578.55L1584.35 27.13C1584.53 27.536 1584.56 27.884 1584.38 28.319L1584.06 29.073C1583.43 30.581 1583.05 31.277 1581.34 31.277H1580.58V33.336H1581.63ZM1601.09 11.064C1601.9 11.064 1602.6 10.397 1602.6 9.556C1602.6 8.744 1601.9 8.048 1601.09 8.048C1600.25 8.048 1599.58 8.744 1599.58 9.556C1599.58 10.397 1600.25 11.064 1601.09 11.064ZM1602.19 28V13.732H1599.99V28H1602.19ZM1617.79 17.821C1617.32 14.428 1614.31 13.5 1611.46 13.5C1607.87 13.5 1605.46 14.979 1605.46 17.763C1605.46 23.476 1615.7 20.199 1615.7 23.969C1615.7 25.477 1614.02 26.202 1611.72 26.202C1609.58 26.202 1607.93 25.622 1607.43 23.679H1605.23C1605.72 27.014 1608.39 28.232 1611.55 28.232C1615 28.232 1617.99 26.724 1617.99 23.708C1617.99 18.053 1607.66 21.011 1607.66 17.473C1607.66 16.081 1609.23 15.559 1611.26 15.559C1613.61 15.559 1615.23 16.255 1615.52 17.821H1617.79ZM1637.63 28V13.732H1635.43V23.099C1635.43 24.665 1634.1 26.173 1631.75 26.173C1629.54 26.173 1628.38 24.897 1628.38 23.099V13.732H1626.18V23.244C1626.18 26.144 1627.95 28.232 1631.28 28.232C1633.55 28.232 1634.85 27.188 1635.46 26.26V28H1637.63ZM1652.98 28V18.575C1652.98 15.675 1651.21 13.5 1647.88 13.5C1645.62 13.5 1644.31 14.631 1643.7 15.559V13.732H1641.53V28H1643.73V18.72C1643.73 17.154 1645.07 15.559 1647.42 15.559C1649.62 15.559 1650.78 16.922 1650.78 18.72V28H1652.98ZM1659.08 28V19.126C1659.08 17.386 1659.89 15.704 1661.84 15.704C1662.45 15.704 1662.91 15.907 1663.29 16.11L1664.48 14.08C1664.1 13.79 1663.35 13.5 1662.36 13.5C1660.71 13.5 1659.72 14.341 1659.05 15.356V13.732H1656.88V28H1659.08ZM1679.54 21.504C1679.57 21.301 1679.57 21.069 1679.57 20.866C1679.57 16.487 1676.44 13.5 1672.29 13.5C1668.15 13.5 1664.96 16.487 1664.96 20.866C1664.96 25.245 1667.97 28.232 1672.27 28.232C1675.57 28.232 1678.18 26.376 1679.28 23.679H1676.82C1675.89 25.187 1674.27 26.173 1672.27 26.173C1669.48 26.173 1667.51 24.346 1667.25 21.504H1679.54ZM1667.31 19.706C1667.77 17.183 1669.71 15.53 1672.27 15.53C1674.76 15.53 1676.79 17.183 1677.17 19.706H1667.31ZM1690.83 33.336C1694.4 33.336 1696.46 31.364 1696.46 27.768V13.732H1694.31V16.11C1693.09 14.573 1691.29 13.5 1689.06 13.5C1684.91 13.5 1681.67 16.719 1681.67 20.866C1681.67 25.013 1684.91 28.232 1689.06 28.232C1691.24 28.232 1693.03 27.188 1694.25 25.709V27.652C1694.25 30.262 1692.92 31.277 1690.54 31.277H1688.6V33.336H1690.83ZM1689.09 26.173C1686.22 26.173 1683.93 23.824 1683.93 20.866C1683.93 17.908 1686.22 15.53 1689.09 15.53C1691.96 15.53 1694.28 17.821 1694.28 20.866C1694.28 23.911 1691.96 26.173 1689.09 26.173ZM1711.81 28V13.732H1709.6V23.099C1709.6 24.665 1708.27 26.173 1705.92 26.173C1703.71 26.173 1702.55 24.897 1702.55 23.099V13.732H1700.35V23.244C1700.35 26.144 1702.12 28.232 1705.45 28.232C1707.72 28.232 1709.02 27.188 1709.63 26.26V28H1711.81ZM1717.99 28V8.28H1715.79V28H1717.99ZM1728.51 26.173C1725.64 26.173 1723.35 23.911 1723.35 20.866C1723.35 17.821 1725.64 15.53 1728.51 15.53C1731.38 15.53 1733.7 17.734 1733.7 20.866C1733.7 23.998 1731.38 26.173 1728.51 26.173ZM1735.88 28V13.732H1733.73V16.081C1732.51 14.544 1730.66 13.5 1728.42 13.5C1724.28 13.5 1721.09 16.719 1721.09 20.866C1721.09 25.1 1724.16 28.232 1728.4 28.232C1730.63 28.232 1732.51 27.188 1733.73 25.651V28H1735.88ZM1745.34 28V25.97H1744.5C1742.88 25.97 1742.5 25.332 1742.5 23.708V15.704H1745.28V13.732H1742.5V10.194H1740.29V13.732H1738.09V15.704H1740.29V23.94C1740.29 26.811 1741.31 28 1744.21 28H1745.34ZM1761.28 21.504C1761.31 21.301 1761.31 21.069 1761.31 20.866C1761.31 16.487 1758.17 13.5 1754.03 13.5C1749.88 13.5 1746.69 16.487 1746.69 20.866C1746.69 25.245 1749.71 28.232 1754 28.232C1757.3 28.232 1759.91 26.376 1761.02 23.679H1758.55C1757.62 25.187 1756 26.173 1754 26.173C1751.21 26.173 1749.24 24.346 1748.98 21.504H1761.28ZM1749.04 19.706C1749.5 17.183 1751.45 15.53 1754 15.53C1756.49 15.53 1758.52 17.183 1758.9 19.706H1749.04ZM1770.82 26.173C1767.95 26.173 1765.66 23.824 1765.66 20.866C1765.66 17.908 1767.95 15.53 1770.82 15.53C1773.69 15.53 1776.01 17.821 1776.01 20.866C1776.01 23.911 1773.69 26.173 1770.82 26.173ZM1778.19 28V8.28H1775.98V16.023C1774.77 14.515 1772.97 13.5 1770.79 13.5C1766.65 13.5 1763.4 16.719 1763.4 20.866C1763.4 25.013 1766.65 28.232 1770.79 28.232C1773.03 28.232 1774.82 27.159 1776.04 25.622V28H1778.19ZM1798.52 23.157C1797.68 24.955 1795.91 26.173 1793.82 26.173C1790.95 26.173 1788.66 23.824 1788.66 20.866C1788.66 17.908 1790.95 15.53 1793.82 15.53C1795.88 15.53 1797.65 16.748 1798.49 18.517H1800.89C1799.94 15.559 1797.15 13.5 1793.82 13.5C1789.67 13.5 1786.39 16.719 1786.39 20.866C1786.39 25.013 1789.67 28.232 1793.82 28.232C1797.18 28.232 1799.97 26.173 1800.89 23.157H1798.52ZM1805.87 28V19.126C1805.87 17.386 1806.68 15.704 1808.62 15.704C1809.23 15.704 1809.69 15.907 1810.07 16.11L1811.26 14.08C1810.88 13.79 1810.13 13.5 1809.14 13.5C1807.49 13.5 1806.5 14.341 1805.84 15.356V13.732H1803.66V28H1805.87ZM1826.33 21.504C1826.36 21.301 1826.36 21.069 1826.36 20.866C1826.36 16.487 1823.23 13.5 1819.08 13.5C1814.93 13.5 1811.74 16.487 1811.74 20.866C1811.74 25.245 1814.76 28.232 1819.05 28.232C1822.36 28.232 1824.97 26.376 1826.07 23.679H1823.6C1822.67 25.187 1821.05 26.173 1819.05 26.173C1816.27 26.173 1814.29 24.346 1814.03 21.504H1826.33ZM1814.09 19.706C1814.55 17.183 1816.5 15.53 1819.05 15.53C1821.54 15.53 1823.57 17.183 1823.95 19.706H1814.09ZM1835.87 26.173C1833 26.173 1830.71 23.824 1830.71 20.866C1830.71 17.908 1833 15.53 1835.87 15.53C1838.75 15.53 1841.07 17.821 1841.07 20.866C1841.07 23.911 1838.75 26.173 1835.87 26.173ZM1843.24 28V8.28H1841.04V16.023C1839.82 14.515 1838.02 13.5 1835.85 13.5C1831.7 13.5 1828.45 16.719 1828.45 20.866C1828.45 25.013 1831.7 28.232 1835.85 28.232C1838.08 28.232 1839.88 27.159 1841.09 25.622V28H1843.24ZM1848.32 11.064C1849.14 11.064 1849.83 10.397 1849.83 9.556C1849.83 8.744 1849.14 8.048 1848.32 8.048C1847.48 8.048 1846.82 8.744 1846.82 9.556C1846.82 10.397 1847.48 11.064 1848.32 11.064ZM1849.43 28V13.732H1847.22V28H1849.43ZM1858.99 28V25.97H1858.15C1856.52 25.97 1856.15 25.332 1856.15 23.708V15.704H1858.93V13.732H1856.15V10.194H1853.94V13.732H1851.74V15.704H1853.94V23.94C1853.94 26.811 1854.96 28 1857.86 28H1858.99ZM1863.84 26.608C1863.84 25.651 1863.09 24.897 1862.16 24.897C1861.23 24.897 1860.51 25.651 1860.51 26.608C1860.51 27.507 1861.23 28.232 1862.16 28.232C1863.09 28.232 1863.84 27.507 1863.84 26.608ZM1459.63 48.88C1459.63 52.824 1457.34 55.144 1454.23 55.144C1451.13 55.144 1448.84 52.824 1448.84 48.88V37.28H1446.52V49.025C1446.52 54.187 1449.77 57.232 1454.23 57.232C1458.7 57.232 1461.95 54.187 1461.95 49.025V37.28H1459.63V48.88ZM1477.57 46.821C1477.11 43.428 1474.09 42.5 1471.25 42.5C1467.65 42.5 1465.25 43.979 1465.25 46.763C1465.25 52.476 1475.48 49.199 1475.48 52.969C1475.48 54.477 1473.8 55.202 1471.51 55.202C1469.36 55.202 1467.71 54.622 1467.22 52.679H1465.01C1465.51 56.014 1468.18 57.232 1471.34 57.232C1474.79 57.232 1477.77 55.724 1477.77 52.708C1477.77 47.053 1467.45 50.011 1467.45 46.473C1467.45 45.081 1469.02 44.559 1471.05 44.559C1473.4 44.559 1475.02 45.255 1475.31 46.821H1477.57ZM1494.44 50.504C1494.47 50.301 1494.47 50.069 1494.47 49.866C1494.47 45.487 1491.34 42.5 1487.19 42.5C1483.05 42.5 1479.86 45.487 1479.86 49.866C1479.86 54.245 1482.87 57.232 1487.16 57.232C1490.47 57.232 1493.08 55.376 1494.18 52.679H1491.72C1490.79 54.187 1489.16 55.173 1487.16 55.173C1484.38 55.173 1482.41 53.346 1482.15 50.504H1494.44ZM1482.2 48.706C1482.67 46.183 1484.61 44.53 1487.16 44.53C1489.66 44.53 1491.69 46.183 1492.06 48.706H1482.2ZM1504.88 57V48.126C1504.88 46.386 1505.69 44.704 1507.63 44.704C1508.24 44.704 1508.71 44.907 1509.08 45.11L1510.27 43.08C1509.9 42.79 1509.14 42.5 1508.16 42.5C1506.5 42.5 1505.52 43.341 1504.85 44.356V42.732H1502.67V57H1504.88ZM1525.34 50.504C1525.37 50.301 1525.37 50.069 1525.37 49.866C1525.37 45.487 1522.24 42.5 1518.09 42.5C1513.94 42.5 1510.75 45.487 1510.75 49.866C1510.75 54.245 1513.77 57.232 1518.06 57.232C1521.37 57.232 1523.98 55.376 1525.08 52.679H1522.61C1521.69 54.187 1520.06 55.173 1518.06 55.173C1515.28 55.173 1513.3 53.346 1513.04 50.504H1525.34ZM1513.1 48.706C1513.57 46.183 1515.51 44.53 1518.06 44.53C1520.55 44.53 1522.58 46.183 1522.96 48.706H1513.1ZM1539.96 46.821C1539.5 43.428 1536.48 42.5 1533.64 42.5C1530.04 42.5 1527.64 43.979 1527.64 46.763C1527.64 52.476 1537.87 49.199 1537.87 52.969C1537.87 54.477 1536.19 55.202 1533.9 55.202C1531.75 55.202 1530.1 54.622 1529.61 52.679H1527.4C1527.9 56.014 1530.56 57.232 1533.73 57.232C1537.18 57.232 1540.16 55.724 1540.16 52.708C1540.16 47.053 1529.84 50.011 1529.84 46.473C1529.84 45.081 1531.41 44.559 1533.44 44.559C1535.78 44.559 1537.41 45.255 1537.7 46.821H1539.96ZM1550.51 55.173C1547.64 55.173 1545.32 52.911 1545.32 49.866C1545.32 46.821 1547.64 44.53 1550.51 44.53C1553.38 44.53 1555.67 46.908 1555.67 49.866C1555.67 52.824 1553.38 55.173 1550.51 55.173ZM1545.35 62.336V54.767C1546.54 56.246 1548.34 57.232 1550.54 57.232C1554.69 57.232 1557.93 53.984 1557.93 49.837C1557.93 45.69 1554.77 42.5 1550.63 42.5C1548.36 42.5 1546.51 43.544 1545.29 45.11V42.732H1543.14V62.336H1545.35ZM1574.88 49.866C1574.88 45.719 1571.6 42.5 1567.45 42.5C1563.31 42.5 1560.03 45.719 1560.03 49.866C1560.03 54.013 1563.31 57.232 1567.45 57.232C1571.6 57.232 1574.88 54.013 1574.88 49.866ZM1567.45 55.173C1564.58 55.173 1562.29 52.824 1562.29 49.866C1562.29 46.908 1564.58 44.53 1567.45 44.53C1570.33 44.53 1572.65 46.908 1572.65 49.866C1572.65 52.824 1570.33 55.173 1567.45 55.173ZM1589.32 57V47.575C1589.32 44.675 1587.55 42.5 1584.22 42.5C1581.95 42.5 1580.65 43.631 1580.04 44.559V42.732H1577.86V57H1580.07V47.72C1580.07 46.154 1581.4 44.559 1583.75 44.559C1585.96 44.559 1587.12 45.922 1587.12 47.72V57H1589.32ZM1604.81 46.821C1604.35 43.428 1601.33 42.5 1598.49 42.5C1594.9 42.5 1592.49 43.979 1592.49 46.763C1592.49 52.476 1602.73 49.199 1602.73 52.969C1602.73 54.477 1601.04 55.202 1598.75 55.202C1596.61 55.202 1594.95 54.622 1594.46 52.679H1592.26C1592.75 56.014 1595.42 57.232 1598.58 57.232C1602.03 57.232 1605.02 55.724 1605.02 52.708C1605.02 47.053 1594.69 50.011 1594.69 46.473C1594.69 45.081 1596.26 44.559 1598.29 44.559C1600.64 44.559 1602.26 45.255 1602.55 46.821H1604.81ZM1609.19 40.064C1610 40.064 1610.69 39.397 1610.69 38.556C1610.69 37.744 1610 37.048 1609.19 37.048C1608.35 37.048 1607.68 37.744 1607.68 38.556C1607.68 39.397 1608.35 40.064 1609.19 40.064ZM1610.29 57V42.732H1608.08V57H1610.29ZM1616.43 57V54.622C1617.62 56.159 1619.45 57.232 1621.68 57.232C1625.83 57.232 1629.07 53.984 1629.07 49.837C1629.07 45.69 1625.94 42.5 1621.8 42.5C1619.56 42.5 1617.71 43.573 1616.49 45.081V37.28H1614.28V57H1616.43ZM1621.65 55.173C1618.78 55.173 1616.46 52.911 1616.46 49.866C1616.46 46.821 1618.78 44.53 1621.65 44.53C1624.52 44.53 1626.81 46.908 1626.81 49.866C1626.81 52.824 1624.52 55.173 1621.65 55.173ZM1634.36 57V37.28H1632.16V57H1634.36ZM1639.43 62.336C1642.16 62.336 1642.77 61.031 1643.78 58.624L1650.54 42.732H1648.25L1643.55 54.187H1643.49L1638.71 42.732H1636.36L1642.16 56.13C1642.33 56.536 1642.36 56.884 1642.19 57.319L1641.87 58.073C1641.23 59.581 1640.85 60.277 1639.14 60.277H1638.39V62.336H1639.43ZM1652.77 55.608C1652.77 54.651 1652.02 53.897 1651.09 53.897C1650.16 53.897 1649.43 54.651 1649.43 55.608C1649.43 56.507 1650.16 57.232 1651.09 57.232C1652.02 57.232 1652.77 56.507 1652.77 55.608ZM1668.61 57V39.368H1675.6V37.28H1659.28V39.368H1666.27V57H1668.61ZM1682.82 45.748C1681.43 44.269 1680.53 43.283 1680.53 41.833C1680.53 40.383 1681.89 39.165 1683.69 39.165C1685.32 39.165 1686.79 40.18 1686.79 41.804C1686.79 43.573 1685.03 44.82 1682.82 45.748ZM1686.59 52.94C1685.34 54.187 1683.78 55.144 1681.98 55.144C1679.6 55.144 1677.83 53.781 1677.83 51.925C1677.83 49.895 1679.6 48.764 1681.78 47.865L1686.59 52.94ZM1693.41 57L1689.43 52.795L1693.32 47.111H1690.88L1688.01 51.258L1684.01 46.995C1686.71 45.806 1689.09 44.385 1689.09 41.746C1689.09 39.339 1687.14 37.048 1683.72 37.048C1680.41 37.048 1678.15 39.194 1678.15 42.036C1678.15 43.776 1678.99 44.907 1680.56 46.589C1677.95 47.662 1675.57 49.199 1675.57 52.128C1675.57 55.144 1678.3 57.232 1681.57 57.232C1683.81 57.232 1686.21 55.985 1687.95 54.39L1690.27 56.826C1690.39 56.971 1690.56 57 1690.74 57H1693.41ZM1712.29 51.345C1710.93 53.636 1708.46 55.144 1705.56 55.144C1701.1 55.144 1697.7 51.606 1697.7 47.14C1697.7 42.674 1701.1 39.136 1705.56 39.136C1708.49 39.136 1710.84 40.644 1712.17 42.906H1714.84C1713.22 39.397 1709.68 37.048 1705.56 37.048C1699.91 37.048 1695.35 41.427 1695.35 47.227C1695.35 52.911 1699.73 57.232 1705.56 57.232C1709.88 57.232 1713.39 54.883 1714.93 51.345H1712.29ZM1729.11 46.821C1728.65 43.428 1725.63 42.5 1722.79 42.5C1719.19 42.5 1716.79 43.979 1716.79 46.763C1716.79 52.476 1727.02 49.199 1727.02 52.969C1727.02 54.477 1725.34 55.202 1723.05 55.202C1720.91 55.202 1719.25 54.622 1718.76 52.679H1716.56C1717.05 56.014 1719.72 57.232 1722.88 57.232C1726.33 57.232 1729.32 55.724 1729.32 52.708C1729.32 47.053 1718.99 50.011 1718.99 46.473C1718.99 45.081 1720.56 44.559 1722.59 44.559C1724.94 44.559 1726.56 45.255 1726.85 46.821H1729.11ZM1743.6 45.748C1742.2 44.269 1741.31 43.283 1741.31 41.833C1741.31 40.383 1742.67 39.165 1744.47 39.165C1746.09 39.165 1747.57 40.18 1747.57 41.804C1747.57 43.573 1745.8 44.82 1743.6 45.748ZM1747.37 52.94C1746.12 54.187 1744.55 55.144 1742.76 55.144C1740.38 55.144 1738.61 53.781 1738.61 51.925C1738.61 49.895 1740.38 48.764 1742.55 47.865L1747.37 52.94ZM1754.18 57L1750.21 52.795L1754.09 47.111H1751.66L1748.79 51.258L1744.79 46.995C1747.48 45.806 1749.86 44.385 1749.86 41.746C1749.86 39.339 1747.92 37.048 1744.5 37.048C1741.19 37.048 1738.93 39.194 1738.93 42.036C1738.93 43.776 1739.77 44.907 1741.33 46.589C1738.72 47.662 1736.35 49.199 1736.35 52.128C1736.35 55.144 1739.07 57.232 1742.35 57.232C1744.58 57.232 1746.99 55.985 1748.73 54.39L1751.05 56.826C1751.17 56.971 1751.34 57 1751.51 57H1754.18ZM1764.12 57V37.28H1761.92V57H1764.12ZM1774.65 55.173C1771.77 55.173 1769.48 52.911 1769.48 49.866C1769.48 46.821 1771.77 44.53 1774.65 44.53C1777.52 44.53 1779.84 46.734 1779.84 49.866C1779.84 52.998 1777.52 55.173 1774.65 55.173ZM1782.01 57V42.732H1779.87V45.081C1778.65 43.544 1776.79 42.5 1774.56 42.5C1770.41 42.5 1767.22 45.719 1767.22 49.866C1767.22 54.1 1770.3 57.232 1774.53 57.232C1776.76 57.232 1778.65 56.188 1779.87 54.651V57H1782.01ZM1791.47 57V54.97H1790.63C1789.01 54.97 1788.63 54.332 1788.63 52.708V44.704H1791.42V42.732H1788.63V39.194H1786.43V42.732H1784.22V44.704H1786.43V52.94C1786.43 55.811 1787.44 57 1790.34 57H1791.47ZM1807.41 50.504C1807.44 50.301 1807.44 50.069 1807.44 49.866C1807.44 45.487 1804.31 42.5 1800.16 42.5C1796.01 42.5 1792.82 45.487 1792.82 49.866C1792.82 54.245 1795.84 57.232 1800.13 57.232C1803.44 57.232 1806.05 55.376 1807.15 52.679H1804.68C1803.76 54.187 1802.13 55.173 1800.13 55.173C1797.35 55.173 1795.38 53.346 1795.11 50.504H1807.41ZM1795.17 48.706C1795.64 46.183 1797.58 44.53 1800.13 44.53C1802.63 44.53 1804.66 46.183 1805.03 48.706H1795.17ZM1818.69 57V44.704H1822.31V42.732H1818.69V41.601C1818.69 39.977 1819.3 39.31 1820.95 39.31H1822.4V37.28H1820.75C1817.76 37.28 1816.45 38.498 1816.45 41.485V42.732H1813.96V44.704H1816.45V57H1818.69ZM1837.43 50.504C1837.46 50.301 1837.46 50.069 1837.46 49.866C1837.46 45.487 1834.33 42.5 1830.18 42.5C1826.03 42.5 1822.84 45.487 1822.84 49.866C1822.84 54.245 1825.86 57.232 1830.15 57.232C1833.46 57.232 1836.07 55.376 1837.17 52.679H1834.7C1833.78 54.187 1832.15 55.173 1830.15 55.173C1827.37 55.173 1825.39 53.346 1825.13 50.504H1837.43ZM1825.19 48.706C1825.66 46.183 1827.6 44.53 1830.15 44.53C1832.64 44.53 1834.67 46.183 1835.05 48.706H1825.19ZM1854.14 50.504C1854.17 50.301 1854.17 50.069 1854.17 49.866C1854.17 45.487 1851.04 42.5 1846.89 42.5C1842.74 42.5 1839.55 45.487 1839.55 49.866C1839.55 54.245 1842.57 57.232 1846.86 57.232C1850.17 57.232 1852.78 55.376 1853.88 52.679H1851.41C1850.48 54.187 1848.86 55.173 1846.86 55.173C1844.08 55.173 1842.1 53.346 1841.84 50.504H1854.14ZM1841.9 48.706C1842.36 46.183 1844.31 44.53 1846.86 44.53C1849.35 44.53 1851.38 46.183 1851.76 48.706H1841.9ZM1868.76 46.821C1868.3 43.428 1865.28 42.5 1862.44 42.5C1858.84 42.5 1856.43 43.979 1856.43 46.763C1856.43 52.476 1866.67 49.199 1866.67 52.969C1866.67 54.477 1864.99 55.202 1862.7 55.202C1860.55 55.202 1858.9 54.622 1858.41 52.679H1856.2C1856.7 56.014 1859.36 57.232 1862.52 57.232C1865.98 57.232 1868.96 55.724 1868.96 52.708C1868.96 47.053 1858.64 50.011 1858.64 46.473C1858.64 45.081 1860.2 44.559 1862.23 44.559C1864.58 44.559 1866.21 45.255 1866.5 46.821H1868.76ZM1496.85 84.173C1493.98 84.173 1491.69 81.911 1491.69 78.866C1491.69 75.821 1493.98 73.53 1496.85 73.53C1499.72 73.53 1502.04 75.734 1502.04 78.866C1502.04 81.998 1499.72 84.173 1496.85 84.173ZM1504.22 86V71.732H1502.07V74.081C1500.85 72.544 1499 71.5 1496.76 71.5C1492.62 71.5 1489.43 74.719 1489.43 78.866C1489.43 83.1 1492.5 86.232 1496.74 86.232C1498.97 86.232 1500.85 85.188 1502.07 83.651V86H1504.22ZM1515.48 84.173C1512.61 84.173 1510.29 81.911 1510.29 78.866C1510.29 75.821 1512.61 73.53 1515.48 73.53C1518.35 73.53 1520.64 75.908 1520.64 78.866C1520.64 81.824 1518.35 84.173 1515.48 84.173ZM1510.32 91.336V83.767C1511.5 85.246 1513.3 86.232 1515.51 86.232C1519.65 86.232 1522.9 82.984 1522.9 78.837C1522.9 74.69 1519.74 71.5 1515.59 71.5C1513.33 71.5 1511.48 72.544 1510.26 74.11V71.732H1508.11V91.336H1510.32ZM1533.26 84.173C1530.39 84.173 1528.07 81.911 1528.07 78.866C1528.07 75.821 1530.39 73.53 1533.26 73.53C1536.13 73.53 1538.43 75.908 1538.43 78.866C1538.43 81.824 1536.13 84.173 1533.26 84.173ZM1528.1 91.336V83.767C1529.29 85.246 1531.09 86.232 1533.29 86.232C1537.44 86.232 1540.69 82.984 1540.69 78.837C1540.69 74.69 1537.53 71.5 1533.38 71.5C1531.12 71.5 1529.26 72.544 1528.04 74.11V71.732H1525.9V91.336H1528.1ZM1545.97 86V66.28H1543.77V86H1545.97ZM1551.04 91.336C1553.77 91.336 1554.38 90.031 1555.39 87.624L1562.15 71.732H1559.86L1555.16 83.187H1555.1L1550.32 71.732H1547.97L1553.77 85.13C1553.94 85.536 1553.97 85.884 1553.8 86.319L1553.48 87.073C1552.84 88.581 1552.46 89.277 1550.75 89.277H1550V91.336H1551.04ZM1575.84 84.173C1572.97 84.173 1570.68 81.911 1570.68 78.866C1570.68 75.821 1572.97 73.53 1575.84 73.53C1578.71 73.53 1581.03 75.734 1581.03 78.866C1581.03 81.998 1578.71 84.173 1575.84 84.173ZM1583.2 86V71.732H1581.06V74.081C1579.84 72.544 1577.98 71.5 1575.75 71.5C1571.6 71.5 1568.41 74.719 1568.41 78.866C1568.41 83.1 1571.49 86.232 1575.72 86.232C1577.95 86.232 1579.84 85.188 1581.06 83.651V86H1583.2ZM1592.67 86V83.97H1591.82C1590.2 83.97 1589.82 83.332 1589.82 81.708V73.704H1592.61V71.732H1589.82V68.194H1587.62V71.732H1585.42V73.704H1587.62V81.94C1587.62 84.811 1588.63 86 1591.53 86H1592.67ZM1611.35 81.157C1610.51 82.955 1608.74 84.173 1606.65 84.173C1603.78 84.173 1601.49 81.824 1601.49 78.866C1601.49 75.908 1603.78 73.53 1606.65 73.53C1608.71 73.53 1610.48 74.748 1611.32 76.517H1613.73C1612.77 73.559 1609.98 71.5 1606.65 71.5C1602.5 71.5 1599.23 74.719 1599.23 78.866C1599.23 83.013 1602.5 86.232 1606.65 86.232C1610.01 86.232 1612.8 84.173 1613.73 81.157H1611.35ZM1618.78 86V66.28H1616.58V86H1618.78ZM1636.47 79.504C1636.5 79.301 1636.5 79.069 1636.5 78.866C1636.5 74.487 1633.37 71.5 1629.22 71.5C1625.07 71.5 1621.88 74.487 1621.88 78.866C1621.88 83.245 1624.9 86.232 1629.19 86.232C1632.5 86.232 1635.11 84.376 1636.21 81.679H1633.74C1632.81 83.187 1631.19 84.173 1629.19 84.173C1626.41 84.173 1624.43 82.346 1624.17 79.504H1636.47ZM1624.23 77.706C1624.69 75.183 1626.64 73.53 1629.19 73.53C1631.68 73.53 1633.71 75.183 1634.09 77.706H1624.23ZM1646.01 84.173C1643.14 84.173 1640.85 81.911 1640.85 78.866C1640.85 75.821 1643.14 73.53 1646.01 73.53C1648.89 73.53 1651.21 75.734 1651.21 78.866C1651.21 81.998 1648.89 84.173 1646.01 84.173ZM1653.38 86V71.732H1651.23V74.081C1650.02 72.544 1648.16 71.5 1645.93 71.5C1641.78 71.5 1638.59 74.719 1638.59 78.866C1638.59 83.1 1641.66 86.232 1645.9 86.232C1648.13 86.232 1650.02 85.188 1651.23 83.651V86H1653.38ZM1659.48 86V77.126C1659.48 75.386 1660.29 73.704 1662.23 73.704C1662.84 73.704 1663.31 73.907 1663.68 74.11L1664.87 72.08C1664.5 71.79 1663.74 71.5 1662.76 71.5C1661.1 71.5 1660.12 72.341 1659.45 73.356V71.732H1657.28V86H1659.48ZM1674.18 84.173C1671.31 84.173 1668.99 81.911 1668.99 78.866C1668.99 75.821 1671.31 73.53 1674.18 73.53C1677.06 73.53 1679.35 75.908 1679.35 78.866C1679.35 81.824 1677.06 84.173 1674.18 84.173ZM1669.02 91.336V83.767C1670.21 85.246 1672.01 86.232 1674.21 86.232C1678.36 86.232 1681.61 82.984 1681.61 78.837C1681.61 74.69 1678.45 71.5 1674.3 71.5C1672.04 71.5 1670.18 72.544 1668.96 74.11V71.732H1666.82V91.336H1669.02ZM1691.13 84.173C1688.26 84.173 1685.97 81.911 1685.97 78.866C1685.97 75.821 1688.26 73.53 1691.13 73.53C1694 73.53 1696.32 75.734 1696.32 78.866C1696.32 81.998 1694 84.173 1691.13 84.173ZM1698.5 86V71.732H1696.35V74.081C1695.13 72.544 1693.28 71.5 1691.04 71.5C1686.9 71.5 1683.71 74.719 1683.71 78.866C1683.71 83.1 1686.78 86.232 1691.01 86.232C1693.25 86.232 1695.13 85.188 1696.35 83.651V86H1698.5ZM1703.46 91.336C1706.19 91.336 1706.8 90.031 1707.81 87.624L1714.57 71.732H1712.28L1707.58 83.187H1707.52L1702.74 71.732H1700.39L1706.19 85.13C1706.36 85.536 1706.39 85.884 1706.22 86.319L1705.9 87.073C1705.26 88.581 1704.88 89.277 1703.17 89.277H1702.42V91.336H1703.46ZM1716.8 84.608C1716.8 83.651 1716.05 82.897 1715.12 82.897C1714.19 82.897 1713.47 83.651 1713.47 84.608C1713.47 85.507 1714.19 86.232 1715.12 86.232C1716.05 86.232 1716.8 85.507 1716.8 84.608ZM1730.63 81.157C1729.79 82.955 1728.02 84.173 1725.93 84.173C1723.06 84.173 1720.77 81.824 1720.77 78.866C1720.77 75.908 1723.06 73.53 1725.93 73.53C1727.99 73.53 1729.76 74.748 1730.6 76.517H1733.01C1732.05 73.559 1729.27 71.5 1725.93 71.5C1721.79 71.5 1718.51 74.719 1718.51 78.866C1718.51 83.013 1721.79 86.232 1725.93 86.232C1729.3 86.232 1732.08 84.173 1733.01 81.157H1730.63ZM1749.73 78.866C1749.73 74.719 1746.45 71.5 1742.3 71.5C1738.16 71.5 1734.88 74.719 1734.88 78.866C1734.88 83.013 1738.16 86.232 1742.3 86.232C1746.45 86.232 1749.73 83.013 1749.73 78.866ZM1742.3 84.173C1739.43 84.173 1737.14 81.824 1737.14 78.866C1737.14 75.908 1739.43 73.53 1742.3 73.53C1745.17 73.53 1747.49 75.908 1747.49 78.866C1747.49 81.824 1745.17 84.173 1742.3 84.173ZM1754.75 84.608C1754.75 83.651 1754 82.897 1753.07 82.897C1752.14 82.897 1751.42 83.651 1751.42 84.608C1751.42 85.507 1752.14 86.232 1753.07 86.232C1754 86.232 1754.75 85.507 1754.75 84.608ZM1769.1 86V71.732H1766.89V81.099C1766.89 82.665 1765.56 84.173 1763.21 84.173C1761.01 84.173 1759.85 82.897 1759.85 81.099V71.732H1757.64V81.244C1757.64 84.144 1759.41 86.232 1762.75 86.232C1765.01 86.232 1766.31 85.188 1766.92 84.26V86H1769.1ZM1785.69 86L1779.2 77.184L1785.17 71.732H1782.42L1775.28 78.344H1775.2V66.28H1772.99V86H1775.2V80.838L1777.54 78.692L1782.94 86H1785.69ZM1787.41 86.174L1797.35 66.164H1795.44L1785.46 86.174H1787.41ZM1804.87 86V83.97H1804.03C1802.4 83.97 1802.03 83.332 1802.03 81.708V73.704H1804.81V71.732H1802.03V68.194H1799.82V71.732H1797.62V73.704H1799.82V81.94C1799.82 84.811 1800.84 86 1803.74 86H1804.87ZM1820.81 79.504C1820.83 79.301 1820.83 79.069 1820.83 78.866C1820.83 74.487 1817.7 71.5 1813.56 71.5C1809.41 71.5 1806.22 74.487 1806.22 78.866C1806.22 83.245 1809.23 86.232 1813.53 86.232C1816.83 86.232 1819.44 84.376 1820.54 81.679H1818.08C1817.15 83.187 1815.53 84.173 1813.53 84.173C1810.74 84.173 1808.77 82.346 1808.51 79.504H1820.81ZM1808.57 77.706C1809.03 75.183 1810.97 73.53 1813.53 73.53C1816.02 73.53 1818.05 75.183 1818.43 77.706H1808.57ZM1826.03 86V77.126C1826.03 75.386 1826.84 73.704 1828.79 73.704C1829.39 73.704 1829.86 73.907 1830.24 74.11L1831.42 72.08C1831.05 71.79 1830.29 71.5 1829.31 71.5C1827.65 71.5 1826.67 72.341 1826 73.356V71.732H1823.83V86H1826.03ZM1853.26 86V76.488C1853.26 73.588 1851.7 71.5 1848.36 71.5C1846.22 71.5 1844.94 72.486 1843.93 73.994C1843.23 72.457 1841.78 71.5 1839.52 71.5C1837.26 71.5 1836.15 72.544 1835.55 73.472V71.732H1833.37V86H1835.57V76.633C1835.57 75.067 1836.71 73.559 1839.05 73.559C1841.26 73.559 1842.22 74.835 1842.22 76.633V86H1844.42V76.517C1844.42 75.009 1845.61 73.559 1847.9 73.559C1850.1 73.559 1851.06 74.835 1851.06 76.633V86H1853.26ZM1868.76 75.821C1868.3 72.428 1865.28 71.5 1862.44 71.5C1858.84 71.5 1856.43 72.979 1856.43 75.763C1856.43 81.476 1866.67 78.199 1866.67 81.969C1866.67 83.477 1864.99 84.202 1862.7 84.202C1860.55 84.202 1858.9 83.622 1858.41 81.679H1856.2C1856.7 85.014 1859.36 86.232 1862.52 86.232C1865.98 86.232 1868.96 84.724 1868.96 81.708C1868.96 76.053 1858.64 79.011 1858.64 75.473C1858.64 74.081 1860.2 73.559 1862.23 73.559C1864.58 73.559 1866.21 74.255 1866.5 75.821H1868.76Z" fill="white"/>
</svg>
